<svg width="21" height="22" viewBox="0 0 21 22" fill="none" xmlns="http://www.w3.org/2000/svg">
<path d="M4.41188 13.7703C4.41188 14.9844 3.42 15.9762 2.20594 15.9762C0.991875 15.9762 0 14.9844 0 13.7703C0 12.5563 0.991875 11.5644 2.20594 11.5644H4.41188V13.7703ZM5.52375 13.7703C5.52375 12.5563 6.51562 11.5644 7.72969 11.5644C8.94375 11.5644 9.93563 12.5563 9.93563 13.7703V19.2941C9.93563 20.5081 8.94375 21.5 7.72969 21.5C6.51562 21.5 5.52375 20.5081 5.52375 19.2941V13.7703ZM7.72969 4.91188C6.51562 4.91188 5.52375 3.92 5.52375 2.70594C5.52375 1.49187 6.51562 0.5 7.72969 0.5C8.94375 0.5 9.93563 1.49187 9.93563 2.70594V4.91188H7.72969ZM7.72969 6.02375C8.94375 6.02375 9.93563 7.01562 9.93563 8.22969C9.93563 9.44375 8.94375 10.4356 7.72969 10.4356H2.20594C0.991875 10.4356 0 9.44375 0 8.22969C0 7.01562 0.991875 6.02375 2.20594 6.02375H7.72969ZM16.5881 8.22969C16.5881 7.01562 17.58 6.02375 18.7941 6.02375C20.0081 6.02375 21 7.01562 21 8.22969C21 9.44375 20.0081 10.4356 18.7941 10.4356H16.5881V8.22969ZM15.4762 8.22969C15.4762 9.44375 14.4844 10.4356 13.2703 10.4356C12.0563 10.4356 11.0644 9.44375 11.0644 8.22969V2.70594C11.0644 1.49187 12.0563 0.5 13.2703 0.5C14.4844 0.5 15.4762 1.49187 15.4762 2.70594V8.22969ZM13.2703 17.0881C14.4844 17.0881 15.4762 18.08 15.4762 19.2941C15.4762 20.5081 14.4844 21.5 13.2703 21.5C12.0563 21.5 11.0644 20.5081 11.0644 19.2941V17.0881H13.2703ZM13.2703 15.9762C12.0563 15.9762 11.0644 14.9844 11.0644 13.7703C11.0644 12.5563 12.0563 11.5644 13.2703 11.5644H18.7941C20.0081 11.5644 21 12.5563 21 13.7703C21 14.9844 20.0081 15.9762 18.7941 15.9762H13.2703Z" fill="black"/>
</svg>
