<svg version="1.1" id="Layer_1" xmlns="http://www.w3.org/2000/svg" xmlns:xlink="http://www.w3.org/1999/xlink" x="0px" y="0px"
	 width="100%" viewBox="0 0 1024 1024" enable-background="new 0 0 1024 1024" xml:space="preserve">
<path fill="#FFFFFF" opacity="1.000000" stroke="none" 
	d="
M647.000000,1025.000000 
	C431.333344,1025.000000 216.166672,1025.000000 1.000000,1025.000000 
	C1.000000,683.666687 1.000000,342.333344 1.000000,1.000000 
	C342.333344,1.000000 683.666687,1.000000 1025.000000,1.000000 
	C1025.000000,342.333344 1025.000000,683.666687 1025.000000,1025.000000 
	C899.166687,1025.000000 773.333313,1025.000000 647.000000,1025.000000 
M248.042191,456.955902 
	C248.042191,456.955902 248.163086,456.945251 247.938644,456.489655 
	C247.638901,456.364258 247.339172,456.238892 246.669724,455.781067 
	C246.669724,455.781067 246.183167,455.678894 245.739197,455.171753 
	C229.749435,445.900604 213.759689,436.629456 197.226273,427.043060 
	C197.075500,428.961334 196.979401,429.612823 196.979462,430.264282 
	C196.987259,508.590851 196.977463,586.917480 197.159485,665.243652 
	C197.164032,667.200134 198.803482,669.944336 200.500610,670.989929 
	C246.035599,699.044189 291.674072,726.930664 337.303925,754.830994 
	C379.240601,780.473022 421.155457,806.151001 463.146759,831.703247 
	C478.611938,841.113953 494.279510,850.191711 509.827850,859.466492 
	C512.855347,861.272278 515.440186,861.081116 518.548035,859.214294 
	C555.285828,837.146790 592.192566,815.359863 628.881958,793.212524 
	C670.694641,767.972534 712.347046,742.466736 754.041260,717.030762 
	C777.003845,703.022217 799.953979,688.991638 822.775391,674.755554 
	C825.232605,673.222717 826.791992,670.250610 828.984924,667.037842 
	C828.959961,633.368103 828.934998,599.698303 829.087463,565.275513 
	C829.027893,564.508911 828.968323,563.742371 829.040771,562.049561 
	C829.047791,515.500122 829.069153,468.950623 829.053955,422.401154 
	C829.048706,406.278229 828.953003,390.155334 829.065369,373.355377 
	C829.003662,372.898407 828.941956,372.441406 828.983826,371.160583 
	C828.969971,368.064178 829.011230,364.965057 828.858582,361.875519 
	C828.843018,361.561066 827.662598,361.304169 826.393616,360.727478 
	C825.035706,359.588501 823.805237,358.234955 822.301208,357.342133 
	C789.287231,337.744934 756.221802,318.234497 723.208984,298.635406 
	C657.187500,259.439606 591.105713,220.343719 525.292236,180.801453 
	C516.901245,175.759949 510.481659,175.614822 502.323853,180.902893 
	C487.555206,190.476273 472.138245,199.049423 456.433502,208.052521 
	C456.210999,208.342911 455.988525,208.633301 455.390625,208.994431 
	C455.118866,209.063507 454.939606,209.231384 454.182098,209.759735 
	C452.040680,211.087326 449.899231,212.414917 447.871155,213.796860 
	C447.871155,213.796860 447.850922,213.672806 447.192535,213.779800 
	C446.664215,214.142899 446.135925,214.506012 445.281158,214.842865 
	C445.281158,214.842865 444.998505,215.008392 444.447662,215.030273 
	C444.227844,215.311783 444.008057,215.593292 443.893707,215.868210 
	C443.893707,215.868210 443.840363,215.777008 443.207336,215.885834 
	C442.390472,216.506577 441.573608,217.127319 440.871002,217.790771 
	C440.871002,217.790771 440.838013,217.673325 440.224457,217.773270 
	C439.748260,218.122818 439.272064,218.472382 438.941986,218.864426 
	C438.941986,218.864426 438.829010,218.762421 438.141296,218.872574 
	C436.629761,219.873245 435.118256,220.873901 433.282715,221.837692 
	C433.282715,221.837692 433.000000,222.000107 432.425354,222.041428 
	C432.177795,222.326706 431.930267,222.611969 431.324646,222.890259 
	C431.324646,222.890259 430.994751,223.029785 430.429596,223.040314 
	C430.205750,223.333527 429.981873,223.626740 429.258759,224.051086 
	C428.842377,224.352356 428.425964,224.653641 427.451691,225.012512 
	C427.220642,225.290070 426.989563,225.567627 426.870209,225.822296 
	C426.870209,225.822296 426.796326,225.735428 426.125977,225.856308 
	C424.678497,226.836426 423.231018,227.816559 421.940826,228.806366 
	C421.940826,228.806366 421.800903,228.733887 421.099213,228.846375 
	C417.325012,231.160248 413.550812,233.474106 409.954834,235.790604 
	C409.954834,235.790604 409.785522,235.734879 409.121979,235.896103 
	C407.566620,236.888397 406.011261,237.880676 404.187286,238.828674 
	C404.187286,238.828674 403.998657,239.024918 403.324493,239.191650 
	C369.498474,258.953888 335.643463,278.666809 301.857849,298.497803 
	C283.121552,309.495361 264.501160,320.690338 245.932678,331.980042 
	C245.932678,331.980042 245.784103,331.829224 245.229416,331.883057 
	C244.805466,332.211945 244.381516,332.540833 243.295807,333.008453 
	C241.818268,333.974060 240.340729,334.939697 238.959198,335.947632 
	C238.959198,335.947632 238.912262,335.853790 238.235306,336.009857 
	C236.106079,337.303589 233.976852,338.597321 231.948532,339.922821 
	C231.948532,339.922821 231.897324,339.830231 231.189880,339.960205 
	C223.410660,344.271851 215.631424,348.583496 207.952148,352.933380 
	C207.952148,352.933380 207.901901,352.838898 207.222214,352.975952 
	C205.095230,354.278503 202.968246,355.581055 200.951874,356.915985 
	C200.951874,356.915985 200.883102,356.823486 200.181717,356.987427 
	C197.162766,360.803955 200.673065,361.673157 202.975494,363.017700 
	C202.975494,363.017700 202.896881,363.064026 203.283859,363.600128 
	C204.824173,364.453918 206.364487,365.307709 207.947159,366.067291 
	C207.947159,366.067291 207.850677,366.104156 208.241684,366.669952 
	C209.845474,367.552856 211.449265,368.435760 213.438370,369.841370 
	C239.609100,385.667938 265.823120,401.423431 291.942261,417.334717 
	C363.634766,461.008453 435.257904,504.796356 507.069305,548.273499 
	C509.797577,549.925293 514.978882,550.245911 517.675354,548.756958 
	C529.138855,542.426880 540.096313,535.180237 551.111023,528.205444 
	C551.111023,528.205444 551.178101,528.330872 551.776367,528.215210 
	C552.243042,527.856995 552.709717,527.498840 553.053650,527.100281 
	C553.053650,527.100281 553.136292,527.199646 553.809875,527.045349 
	C556.286621,525.450684 558.763428,523.856079 561.181702,522.322571 
	C561.181702,522.322571 561.265869,522.314514 561.942566,522.152344 
	C565.039917,520.130493 568.137268,518.108643 571.883240,516.052551 
	C572.922668,515.354980 573.962158,514.657410 575.689392,513.888306 
	C577.514160,512.633850 579.338867,511.379425 581.051941,510.084351 
	C581.051941,510.084351 581.118469,510.182770 581.781189,510.068146 
	C582.593689,509.405304 583.406189,508.742462 584.620911,508.059326 
	C584.620911,508.059326 585.008728,507.951294 585.575867,507.978058 
	C585.795654,507.677063 586.015442,507.376068 586.767395,507.065216 
	C587.218384,506.848053 587.669312,506.630920 588.648315,506.116638 
	C588.844116,505.767029 589.039856,505.417419 589.628906,505.061523 
	C589.628906,505.061523 590.007874,504.955780 590.576233,504.980774 
	C590.796814,504.679291 591.017334,504.377808 591.761475,504.063751 
	C592.214233,503.858643 592.666992,503.653564 593.651917,503.141144 
	C593.844482,502.782471 594.037048,502.423798 594.626343,502.060181 
	C594.626343,502.060181 595.008423,501.953308 595.575134,501.977997 
	C595.795532,501.677155 596.015869,501.376312 596.936157,501.041321 
	C598.543945,500.198212 600.200623,499.436188 601.752380,498.500244 
	C656.569885,465.438690 711.361694,432.334412 766.208984,399.322327 
	C772.277405,395.669800 778.654968,392.530731 784.978271,389.780487 
	C785.049011,390.194855 785.119812,390.609253 785.046509,391.668579 
	C785.082886,392.105957 785.119263,392.543304 784.982178,393.891602 
	C785.034058,397.606140 785.085999,401.320648 785.017700,405.921082 
	C785.058167,408.599609 785.098694,411.278107 784.976929,414.887054 
	C785.030884,426.602814 785.084778,438.318542 785.018433,450.849030 
	C785.058350,452.218445 785.098206,453.587860 784.976868,455.883087 
	C785.030823,460.598267 785.084778,465.313446 785.033386,470.498047 
	C785.033386,470.498047 785.138245,470.967621 784.976318,471.882080 
	C785.030151,475.599457 785.083984,479.316864 785.018311,483.760468 
	C785.058472,484.493103 785.098633,485.225708 784.977295,486.878662 
	C785.029907,490.930511 785.082520,494.982361 785.015564,499.813721 
	C785.055603,500.862183 785.095642,501.910614 784.975342,503.764862 
	C785.028992,504.854919 785.082703,505.944977 785.016296,507.875061 
	C785.055237,509.569885 785.094177,511.264709 784.972290,513.889648 
	C785.026367,521.270691 785.080505,528.651794 785.015625,536.759827 
	C785.055481,537.493164 785.095337,538.226440 784.974182,539.888672 
	C785.027649,545.601379 785.081177,551.314026 785.030090,557.498108 
	C785.030090,557.498108 785.135010,557.969299 784.974854,558.863831 
	C785.029480,561.585083 785.084106,564.306274 785.033936,567.498047 
	C785.033936,567.498047 785.139526,567.968445 784.977844,568.897400 
	C785.030457,580.942932 785.083069,592.988403 785.016418,605.960266 
	C785.057556,614.959351 785.098694,623.958374 784.979065,633.840881 
	C785.029785,636.230530 785.080566,638.620117 785.011414,641.828735 
	C784.951843,643.203430 784.892334,644.578186 784.411438,646.012207 
	C784.094055,646.095886 783.923340,646.301453 783.434265,646.830627 
	C783.303162,646.937073 783.171997,647.043518 782.365845,647.267334 
	C749.401733,667.493896 716.497009,687.817932 683.457886,707.921143 
	C646.053040,730.680603 608.440063,753.098755 571.092407,775.950989 
	C552.864868,787.104065 535.044617,798.922180 516.992920,810.364929 
	C516.119324,810.918640 514.790527,810.754211 513.263733,810.065552 
	C513.178894,808.243286 513.020508,806.420959 513.019958,804.598694 
	C513.002075,744.505554 513.008667,684.412354 512.949280,624.319275 
	C512.947449,622.494873 512.279541,620.671204 511.603241,618.265503 
	C488.726685,604.229065 465.850098,590.192627 442.604126,575.871521 
	C442.604126,575.871521 442.149475,575.767334 442.076477,575.877747 
	C442.076477,575.877747 442.198944,575.827454 441.833466,575.272888 
	C440.282837,574.433167 438.732208,573.593506 437.047272,572.869385 
	C437.047272,572.869385 437.212769,572.806030 436.860229,572.258240 
	C435.729919,571.673218 434.599579,571.088196 433.389099,570.515930 
	C433.389099,570.515930 433.356079,570.590149 433.118286,570.095398 
	C432.779510,569.958191 432.440765,569.820923 431.906982,569.271851 
	C431.487793,569.134033 431.068604,568.996155 430.274658,568.307678 
	C429.866852,568.148376 429.459045,567.989075 429.065247,567.926697 
	C429.065247,567.926697 429.153259,567.883972 428.809357,567.386963 
	C428.259827,567.150879 427.710297,566.914795 427.140533,566.800842 
	C427.140533,566.800842 427.251190,566.745361 426.913757,566.213196 
	C425.992310,565.737305 425.070862,565.261414 424.058014,564.903687 
	C424.058014,564.903687 424.191681,564.836853 423.858429,564.299622 
	C422.935089,563.818542 422.011719,563.337463 421.041779,562.953918 
	C421.041779,562.953918 421.137421,562.903748 420.780243,562.380493 
	C420.224213,562.080261 419.668182,561.780029 418.758026,561.063965 
	C417.955688,560.668518 417.153351,560.273071 415.977936,559.335632 
	C415.016693,558.839233 414.055481,558.342896 413.046814,557.945007 
	C413.046814,557.945007 413.144806,557.896484 412.796967,557.376526 
	C412.234802,557.110413 411.672638,556.844238 410.736267,556.111572 
	C409.354248,555.357483 407.972229,554.603455 406.162903,553.307678 
	C405.158783,552.797729 404.154633,552.287781 403.068481,551.891357 
	C403.068481,551.891357 403.196228,551.834106 402.863586,551.295227 
	C401.931976,550.824341 401.000366,550.353394 400.031433,549.975281 
	C400.031433,549.975281 400.115631,549.921387 399.768799,549.424011 
	C399.213898,549.198242 398.658966,548.972412 398.097839,548.864502 
	C398.097839,548.864502 398.206726,548.818970 397.877411,548.278137 
	C396.949066,547.802063 396.020721,547.325989 395.044556,546.951050 
	C395.044556,546.951050 395.141998,546.896118 394.796814,546.397461 
	C394.243164,546.167297 393.689545,545.937134 393.120483,545.827576 
	C393.120483,545.827576 393.231384,545.777710 392.884186,545.243347 
	C391.945862,544.766541 391.007568,544.289673 389.829163,543.370850 
	C389.369904,543.200806 388.910675,543.030701 388.044373,542.328613 
	C387.070312,541.823303 386.096252,541.317993 385.058441,540.921509 
	C385.058441,540.921509 385.170990,540.864746 384.845306,540.351868 
	C384.292816,540.116760 383.740356,539.881653 383.151428,539.764282 
	C383.151428,539.764282 383.263000,539.711914 382.905029,539.196350 
	C381.979523,538.732727 381.053986,538.269165 380.058929,537.916199 
	C380.058929,537.916199 380.175903,537.857849 379.837433,537.324707 
	C378.918274,536.838806 377.999115,536.352966 377.036499,535.964050 
	C377.036499,535.964050 377.127838,535.909729 376.781494,535.410156 
	C376.226501,535.181946 375.671509,534.953796 375.107605,534.847839 
	C375.107605,534.847839 375.220001,534.799011 374.879608,534.266724 
	C373.953247,533.791321 373.026855,533.315918 372.045959,532.943604 
	C372.045959,532.943604 372.148651,532.888306 371.805878,532.390869 
	C371.257446,532.153259 370.709045,531.915588 370.139282,531.799744 
	C370.139282,531.799744 370.250366,531.745361 369.905457,531.216858 
	C368.978577,530.748352 368.051727,530.279907 367.061462,529.916626 
	C367.061462,529.916626 367.173706,529.866699 366.834381,529.320618 
	C366.259460,529.034973 365.684570,528.749390 364.654236,528.023621 
	C363.899536,527.663269 363.144836,527.302917 362.027985,526.460510 
	C359.376740,524.919617 356.725494,523.378723 353.756226,521.348999 
	C353.224670,521.119934 352.693085,520.890930 351.757996,520.128906 
	C328.429443,505.837982 305.118958,491.517365 281.760590,477.275360 
	C275.280609,473.324402 268.658264,469.606842 261.853546,465.129852 
	C257.629700,462.737366 253.405869,460.344879 248.960815,457.432617 
	C248.657455,457.233368 248.354080,457.034088 248.042191,456.955902 
z"/>
<path fill="#3D72C9" opacity="1.000000" stroke="none" 
	d="
M454.852905,209.498077 
	C454.939606,209.231384 455.118866,209.063507 455.835632,208.894913 
	C456.517731,208.543655 456.754852,208.291916 456.991974,208.040161 
	C472.138245,199.049423 487.555206,190.476273 502.323853,180.902893 
	C510.481659,175.614822 516.901245,175.759949 525.292236,180.801453 
	C591.105713,220.343719 657.187500,259.439606 723.208984,298.635406 
	C756.221802,318.234497 789.287231,337.744934 822.301208,357.342133 
	C823.805237,358.234955 825.035706,359.588501 826.691650,361.097168 
	C826.989746,361.466827 826.919434,361.908600 826.564392,361.962585 
	C816.429993,367.922089 806.551025,373.671204 796.916870,379.804840 
	C792.652222,382.519928 788.883179,386.013397 784.889160,389.153503 
	C778.654968,392.530731 772.277405,395.669800 766.208984,399.322327 
	C711.361694,432.334412 656.569885,465.438690 601.752380,498.500244 
	C600.200623,499.436188 598.543945,500.198212 596.329468,501.122528 
	C595.484619,501.453613 595.246521,501.703461 595.008423,501.953308 
	C595.008423,501.953308 594.626343,502.060181 594.139709,502.194794 
	C593.475342,502.702454 593.297546,503.075470 593.119751,503.448486 
	C592.666992,503.653564 592.214233,503.858643 591.242249,504.133972 
	C590.484619,504.454681 590.246277,504.705231 590.007874,504.955780 
	C590.007874,504.955780 589.628906,505.061523 589.145691,505.190308 
	C588.481750,505.683990 588.301025,506.048889 588.120361,506.413788 
	C587.669312,506.630920 587.218384,506.848053 586.244873,507.134064 
	C585.484497,507.452393 585.246643,507.701874 585.008789,507.951294 
	C585.008728,507.951294 584.620911,508.059326 584.038330,508.048706 
	C582.676636,508.752991 581.897522,509.467865 581.118469,510.182739 
	C581.118469,510.182770 581.051941,510.084351 580.689697,510.062866 
	C577.451477,509.851410 574.744446,509.891144 575.001648,513.959839 
	C573.962158,514.657410 572.922668,515.354980 571.193115,516.015320 
	C568.604370,515.738953 565.835144,514.613159 564.988098,515.444946 
	C563.211609,517.189209 562.446289,519.963257 561.265869,522.314514 
	C561.265869,522.314514 561.181702,522.322571 560.798584,522.200562 
	C558.583862,521.713562 556.752258,521.348450 554.531860,520.905884 
	C554.014221,523.240417 553.575256,525.220032 553.136292,527.199646 
	C553.136292,527.199646 553.053650,527.100281 552.778625,527.101074 
	C552.061768,527.511597 551.619934,527.921204 551.178101,528.330872 
	C551.178101,528.330872 551.111023,528.205444 550.789551,528.144653 
	C543.982727,526.116943 545.389709,520.179932 544.421875,514.573547 
	C540.555176,519.406067 538.915588,518.032043 537.073608,513.626160 
	C535.349365,509.501892 532.326965,505.920441 529.634583,501.724091 
	C531.637024,496.716156 529.754272,494.108521 524.639038,494.190460 
	C523.404663,491.527832 521.552551,489.346558 521.555054,487.167389 
	C521.560486,482.360596 514.603821,478.182220 520.298096,472.807159 
	C520.909119,472.230316 519.927734,469.966461 519.685059,468.485168 
	C518.467163,468.971802 517.114563,469.262543 516.060547,469.987488 
	C514.116272,471.324707 512.347229,472.916748 509.841553,474.937866 
	C509.009705,472.595856 508.049927,471.218140 508.158783,469.930695 
	C508.402313,467.049866 510.022217,464.313477 505.567535,462.719818 
	C503.075439,461.828278 501.467957,458.712067 499.059845,457.269104 
	C496.579681,455.782867 491.637817,445.806610 492.514648,443.099701 
	C493.028290,441.514008 493.821198,439.371552 493.167023,438.251038 
	C492.601349,437.282104 490.170471,437.402161 488.577789,437.043945 
	C489.401733,435.746429 490.269257,434.380249 491.388458,432.617737 
	C488.797394,432.126282 487.073486,431.799316 486.357819,431.663574 
	C485.726532,426.455170 485.169891,421.862793 484.613251,417.270386 
	C484.179718,417.601807 483.746155,417.933228 483.312592,418.264648 
	C480.374664,416.078003 477.436768,413.891357 474.604279,411.783173 
	C473.542572,412.736542 472.312408,413.841187 471.194763,414.844788 
	C470.161133,410.287506 468.990875,406.392303 468.464600,402.412018 
	C468.035767,399.168549 468.377472,395.823242 468.377472,391.457092 
	C462.937286,395.970337 463.208130,395.832642 460.647247,390.775909 
	C459.102448,387.725494 456.556213,385.182281 453.966644,381.759033 
	C451.733551,375.332001 449.142487,367.874786 446.089996,359.089539 
	C444.971344,361.568573 444.710846,363.210846 443.751617,363.968719 
	C442.813232,364.710083 440.310211,365.171448 439.957611,364.688080 
	C436.799316,360.358246 434.113708,355.684784 430.975586,351.338715 
	C429.247742,348.945862 426.727020,347.134735 424.919434,344.787445 
	C423.360260,342.762726 421.742676,340.488251 421.151276,338.078674 
	C420.140411,333.959839 419.912048,329.648956 419.240326,324.547852 
	C418.017242,326.322083 417.500305,327.871552 416.709259,328.027100 
	C415.598267,328.245575 413.207794,327.378967 413.222382,327.061920 
	C413.369507,323.863464 411.785614,322.470825 409.059723,321.120850 
	C407.829529,320.511566 407.654022,317.772675 407.343079,315.994934 
	C408.297974,315.664886 408.909821,315.339874 409.521637,315.014862 
	C409.224396,314.732971 408.927155,314.451080 408.629883,314.169189 
	C408.086609,314.779480 407.543304,315.389740 406.617310,315.917175 
	C405.817780,314.009125 405.277283,312.201447 405.014954,310.354248 
	C404.676819,307.973663 403.967255,306.756958 401.120575,307.460205 
	C398.392700,308.134094 395.496185,308.125336 392.673767,308.416565 
	C392.741150,306.657471 392.980652,306.034546 393.295593,305.993774 
	C397.925537,305.393768 398.950226,301.162048 399.465607,298.097900 
	C399.886444,295.595886 397.817383,292.288483 395.996765,290.026886 
	C395.435791,289.330017 392.059265,290.899719 390.106201,291.397369 
	C388.680420,290.298950 387.302185,288.984406 385.693878,288.078217 
	C384.410919,287.355316 382.847534,287.130096 381.408630,286.683960 
	C381.552673,286.176880 381.696747,285.669800 381.840820,285.162720 
	C383.249390,285.430450 384.734711,286.095367 386.042725,285.842651 
	C387.126312,285.633331 388.878662,284.265198 388.815613,283.543121 
	C388.545715,280.453033 388.221558,277.152161 386.851318,274.473297 
	C386.251404,273.300385 383.062103,273.540894 381.113342,272.932404 
	C380.100311,272.616119 379.081085,271.984375 378.370605,271.213257 
	C378.115601,270.936462 378.554871,269.645782 379.023438,269.136169 
	C382.594574,265.252106 386.329529,261.516266 389.832886,257.573730 
	C390.854950,256.423553 391.880188,254.753082 391.878143,253.322540 
	C391.873627,250.145660 393.572937,248.917679 396.189270,248.099243 
	C400.647430,246.704666 402.978424,243.412567 403.998657,239.024918 
	C403.998657,239.024918 404.187286,238.828674 404.778198,238.883331 
	C407.578430,238.886749 410.482697,239.793655 409.785522,235.734879 
	C409.785522,235.734879 409.954834,235.790604 410.281921,235.859070 
	C415.840637,235.864899 419.360168,233.138565 421.800903,228.733887 
	C421.800903,228.733887 421.940826,228.806366 422.253052,228.864014 
	C423.975616,227.859589 425.385986,226.797501 426.796326,225.735428 
	C426.796326,225.735428 426.870209,225.822296 427.085999,225.787811 
	C427.537689,225.487183 427.773621,225.221039 428.009583,224.954910 
	C428.425964,224.653641 428.842377,224.352356 429.768555,223.922241 
	C430.517181,223.538864 430.755981,223.284332 430.994751,223.029785 
	C430.994751,223.029785 431.324646,222.890259 431.778625,222.836700 
	C432.488403,222.522125 432.744202,222.261108 433.000000,222.000092 
	C433.000000,222.000107 433.282715,221.837692 433.847015,221.888519 
	C435.883881,220.880371 437.356445,219.821396 438.829010,218.762421 
	C438.829010,218.762421 438.941986,218.864426 439.207764,218.877289 
	C439.928375,218.484543 440.383179,218.078918 440.838013,217.673309 
	C440.838013,217.673325 440.871002,217.790771 441.199127,217.846375 
	C442.298309,217.193665 443.069336,216.485336 443.840363,215.777008 
	C443.840363,215.777008 443.893707,215.868210 444.101257,215.820557 
	C444.538696,215.518066 444.768616,215.263229 444.998505,215.008392 
	C444.998505,215.008392 445.281158,214.842865 445.804230,214.872803 
	C446.835175,214.492767 447.343048,214.082779 447.850922,213.672791 
	C447.850922,213.672806 447.871155,213.796860 448.212158,213.850769 
	C450.653076,212.435822 452.752991,210.966949 454.852905,209.498077 
M511.569366,465.296783 
	C511.296173,465.010620 511.022980,464.724487 510.749786,464.438324 
	C510.631378,464.551636 510.403778,464.757172 510.410309,464.764893 
	C510.665253,465.066681 510.941559,465.350433 511.569366,465.296783 
M498.202606,453.609833 
	C498.206818,453.214691 498.211029,452.819519 498.215240,452.424377 
	C498.051270,452.422852 497.744720,452.410339 497.743866,452.421417 
	C497.713562,452.814606 497.711884,453.210022 498.202606,453.609833 
z"/>
<path fill="#144DAD" opacity="1.000000" stroke="none" 
	d="
M784.933716,389.466980 
	C788.883179,386.013397 792.652222,382.519928 796.916870,379.804840 
	C806.551025,373.671204 816.429993,367.922089 826.589355,362.419250 
	C827.606323,365.876099 828.243286,368.930267 828.880249,371.984436 
	C828.941956,372.441406 829.003662,372.898407 828.700195,373.996613 
	C828.220703,375.619415 828.006775,376.600922 828.006531,377.582520 
	C827.990234,437.974701 827.985291,498.366852 828.029480,558.759033 
	C828.030518,560.164795 828.602905,561.570190 828.908813,562.975769 
	C828.968323,563.742371 829.027893,564.508911 828.714966,565.953674 
	C828.226318,567.444580 828.008972,568.257263 828.008484,569.070068 
	C827.990417,600.771484 827.983154,632.472839 828.023926,664.174194 
	C828.025574,665.431824 828.508911,666.688843 828.767822,667.946106 
	C826.791992,670.250610 825.232605,673.222717 822.775391,674.755554 
	C799.953979,688.991638 777.003845,703.022217 754.041260,717.030762 
	C712.347046,742.466736 670.694641,767.972534 628.881958,793.212524 
	C592.192566,815.359863 555.285828,837.146790 518.548035,859.214294 
	C515.440186,861.081116 512.855347,861.272278 509.827850,859.466492 
	C494.279510,850.191711 478.611938,841.113953 463.146759,831.703247 
	C421.155457,806.151001 379.240601,780.473022 337.303925,754.830994 
	C291.674072,726.930664 246.035599,699.044189 200.500610,670.989929 
	C198.803482,669.944336 197.164032,667.200134 197.159485,665.243652 
	C196.977463,586.917480 196.987259,508.590851 196.979462,430.264282 
	C196.979401,429.612823 197.075500,428.961334 197.226273,427.043060 
	C213.759689,436.629456 229.749435,445.900604 245.776901,455.794556 
	C245.208832,458.411377 244.076828,460.404602 244.073761,462.399567 
	C243.981796,522.018433 244.026810,581.637512 243.930939,641.256348 
	C243.926010,644.322510 244.904465,646.212280 247.440048,647.706909 
	C256.016296,652.762390 264.586548,657.831055 273.073578,663.034180 
	C310.702423,686.103271 348.282227,709.252441 385.933685,732.284485 
	C391.111298,735.451721 396.591187,738.124939 402.095184,741.327209 
	C403.571228,742.619080 404.811462,743.727173 406.205719,744.584961 
	C434.612457,762.061340 463.020691,779.535400 491.469360,796.943237 
	C498.231903,801.081299 505.141724,804.978638 512.043457,809.339111 
	C512.626648,810.102478 513.150146,810.513306 513.673706,810.924194 
	C514.790527,810.754211 516.119324,810.918640 516.992920,810.364929 
	C535.044617,798.922180 552.864868,787.104065 571.092407,775.950989 
	C608.440063,753.098755 646.053040,730.680603 683.457886,707.921143 
	C716.497009,687.817932 749.401733,667.493896 782.846191,647.340576 
	C783.517395,647.152100 783.708252,646.890442 783.899170,646.628784 
	C783.923340,646.301453 784.094055,646.095886 784.993286,645.949585 
	C787.553894,644.067627 788.028748,642.385254 785.131287,641.009766 
	C785.080566,638.620117 785.029785,636.230530 785.333191,633.091064 
	C785.794800,628.248230 786.064392,624.151489 785.968323,620.063232 
	C785.850586,615.049683 785.427063,610.043396 785.135742,605.033936 
	C785.083069,592.988403 785.030457,580.942932 785.210693,568.348877 
	C785.341980,567.542725 785.240356,567.285156 785.138733,567.027527 
	C785.084106,564.306274 785.029480,561.585083 785.208496,558.333008 
	C785.339661,557.543762 785.237183,557.285217 785.134644,557.026733 
	C785.081177,551.314026 785.027649,545.601379 785.284973,539.241211 
	C785.442078,537.740051 785.288330,536.886475 785.134583,536.032837 
	C785.080505,528.651794 785.026367,521.270691 785.307434,513.173279 
	C785.473816,510.649628 785.305054,508.842316 785.136353,507.035034 
	C785.082703,505.944977 785.028992,504.854919 785.296509,503.149353 
	C785.456787,501.367279 785.295959,500.200745 785.135132,499.034210 
	C785.082520,494.982361 785.029907,490.930511 785.287354,486.235138 
	C785.444214,484.739166 785.290955,483.886688 785.137756,483.034241 
	C785.083984,479.316864 785.030151,475.599457 785.209473,471.341370 
	C785.341309,470.543335 785.240051,470.285980 785.138733,470.028625 
	C785.084778,465.313446 785.030823,460.598267 785.305054,455.185333 
	C785.468323,453.003143 785.303528,451.518738 785.138672,450.034302 
	C785.084778,438.318542 785.030884,426.602814 785.322021,414.137024 
	C785.490723,410.603027 785.314270,407.819122 785.137878,405.035187 
	C785.085999,401.320648 785.034058,397.606140 785.348389,393.400269 
	C786.011353,392.598145 786.308105,392.287292 786.604797,391.976440 
	C786.133423,391.658844 785.661987,391.341248 785.190613,391.023621 
	C785.119812,390.609253 785.049011,390.194855 784.933716,389.466980 
z"/>
<path fill="#376DC5" opacity="1.000000" stroke="none" 
	d="
M406.617310,315.917175 
	C407.654022,317.772675 407.829529,320.511566 409.059723,321.120850 
	C411.785614,322.470825 413.369507,323.863464 413.222382,327.061920 
	C413.207794,327.378967 415.598267,328.245575 416.709259,328.027100 
	C417.500305,327.871552 418.017242,326.322083 419.240326,324.547852 
	C419.912048,329.648956 420.140411,333.959839 421.151276,338.078674 
	C421.742676,340.488251 423.360260,342.762726 424.919434,344.787445 
	C426.727020,347.134735 429.247742,348.945862 430.975586,351.338715 
	C434.113708,355.684784 436.799316,360.358246 439.957611,364.688080 
	C440.310211,365.171448 442.813232,364.710083 443.751617,363.968719 
	C444.710846,363.210846 444.971344,361.568573 446.089996,359.089539 
	C449.142487,367.874786 451.733551,375.332001 453.966644,381.759033 
	C456.556213,385.182281 459.102448,387.725494 460.647247,390.775909 
	C463.208130,395.832642 462.937286,395.970337 468.377472,391.457092 
	C468.377472,395.823242 468.035767,399.168549 468.464600,402.412018 
	C468.990875,406.392303 470.161133,410.287506 471.194763,414.844788 
	C472.312408,413.841187 473.542572,412.736542 474.604279,411.783173 
	C477.436768,413.891357 480.374664,416.078003 483.312592,418.264648 
	C483.746155,417.933228 484.179718,417.601807 484.613251,417.270386 
	C485.169891,421.862793 485.726532,426.455170 486.357819,431.663574 
	C487.073486,431.799316 488.797394,432.126282 491.388458,432.617737 
	C490.269257,434.380249 489.401733,435.746429 488.577789,437.043945 
	C490.170471,437.402161 492.601349,437.282104 493.167023,438.251038 
	C493.821198,439.371552 493.028290,441.514008 492.514648,443.099701 
	C491.637817,445.806610 496.579681,455.782867 499.059845,457.269104 
	C501.467957,458.712067 503.075439,461.828278 505.567535,462.719818 
	C510.022217,464.313477 508.402313,467.049866 508.158783,469.930695 
	C508.049927,471.218140 509.009705,472.595856 509.841553,474.937866 
	C512.347229,472.916748 514.116272,471.324707 516.060547,469.987488 
	C517.114563,469.262543 518.467163,468.971802 519.685059,468.485168 
	C519.927734,469.966461 520.909119,472.230316 520.298096,472.807159 
	C514.603821,478.182220 521.560486,482.360596 521.555054,487.167389 
	C521.552551,489.346558 523.404663,491.527832 524.639038,494.190460 
	C529.754272,494.108521 531.637024,496.716156 529.634583,501.724091 
	C532.326965,505.920441 535.349365,509.501892 537.073608,513.626160 
	C538.915588,518.032043 540.555176,519.406067 544.421875,514.573547 
	C545.389709,520.179932 543.982727,526.116943 550.853333,528.176086 
	C540.096313,535.180237 529.138855,542.426880 517.675354,548.756958 
	C514.978882,550.245911 509.797577,549.925293 507.069305,548.273499 
	C435.257904,504.796356 363.634766,461.008453 291.942261,417.334717 
	C265.823120,401.423431 239.609100,385.667938 213.201599,369.195801 
	C211.260101,367.734894 209.555389,366.919525 207.850677,366.104156 
	C207.850677,366.104156 207.947159,366.067291 207.917633,365.745941 
	C206.224365,364.637726 204.560623,363.850861 202.896881,363.064026 
	C202.896881,363.064026 202.975494,363.017700 202.949158,362.687988 
	C202.242905,360.513367 201.563004,358.668427 200.883102,356.823486 
	C200.883102,356.823486 200.951874,356.915985 201.296127,356.938354 
	C203.727554,355.586823 205.814743,354.212860 207.901917,352.838928 
	C207.901901,352.838898 207.952148,352.933380 208.291107,352.944153 
	C216.200943,349.182343 223.781082,345.427948 231.316147,341.585175 
	C231.706650,341.386047 231.712433,340.432526 231.897308,339.830231 
	C231.897324,339.830231 231.948532,339.922821 232.286591,339.937012 
	C234.720520,338.585388 236.816391,337.219574 238.912262,335.853790 
	C238.912262,335.853790 238.959198,335.947632 239.294525,335.953308 
	C241.072418,334.929230 242.514984,333.899445 243.957550,332.869690 
	C244.381516,332.540833 244.805466,332.211945 245.596008,332.013062 
	C246.059982,332.208618 246.157333,332.274200 246.254684,332.339813 
	C246.112656,332.158661 245.970612,331.977539 245.828552,331.796387 
	C264.501160,320.690338 283.121552,309.495361 301.857849,298.497803 
	C335.643463,278.666809 369.498474,258.953888 403.661560,239.108276 
	C402.978424,243.412567 400.647430,246.704666 396.189270,248.099243 
	C393.572937,248.917679 391.873627,250.145660 391.878143,253.322540 
	C391.880188,254.753082 390.854950,256.423553 389.832886,257.573730 
	C386.329529,261.516266 382.594574,265.252106 379.023438,269.136169 
	C378.554871,269.645782 378.115601,270.936462 378.370605,271.213257 
	C379.081085,271.984375 380.100311,272.616119 381.113342,272.932404 
	C383.062103,273.540894 386.251404,273.300385 386.851318,274.473297 
	C388.221558,277.152161 388.545715,280.453033 388.815613,283.543121 
	C388.878662,284.265198 387.126312,285.633331 386.042725,285.842651 
	C384.734711,286.095367 383.249390,285.430450 381.840820,285.162720 
	C381.696747,285.669800 381.552673,286.176880 381.408630,286.683960 
	C382.847534,287.130096 384.410919,287.355316 385.693878,288.078217 
	C387.302185,288.984406 388.680420,290.298950 390.106201,291.397369 
	C392.059265,290.899719 395.435791,289.330017 395.996765,290.026886 
	C397.817383,292.288483 399.886444,295.595886 399.465607,298.097900 
	C398.950226,301.162048 397.925537,305.393768 393.295593,305.993774 
	C392.980652,306.034546 392.741150,306.657471 392.673767,308.416565 
	C395.496185,308.125336 398.392700,308.134094 401.120575,307.460205 
	C403.967255,306.756958 404.676819,307.973663 405.014954,310.354248 
	C405.277283,312.201447 405.817780,314.009125 406.617310,315.917175 
z"/>
<path fill="#2F65BD" opacity="1.000000" stroke="none" 
	d="
M511.983826,808.986694 
	C505.141724,804.978638 498.231903,801.081299 491.469360,796.943237 
	C463.020691,779.535400 434.612457,762.061340 406.205719,744.584961 
	C404.811462,743.727173 403.571228,742.619080 402.485474,741.322693 
	C411.546997,745.627380 420.382324,750.236938 429.674591,755.084839 
	C429.949738,750.949646 429.165985,749.014832 425.127869,747.773682 
	C420.654205,746.398804 416.263336,743.813599 412.670074,740.770996 
	C408.831818,737.520813 406.484070,732.452820 402.539856,729.400574 
	C398.087738,725.955200 396.163513,723.183167 401.254364,717.955872 
	C398.296844,717.247620 395.566406,716.525330 393.348358,717.289795 
	C389.426666,718.641357 388.454590,717.513489 387.859528,713.711487 
	C387.329498,710.325317 385.620148,707.114258 384.349365,703.857910 
	C383.814911,702.488464 382.769684,701.264221 382.476501,699.864990 
	C381.597198,695.668396 381.539795,691.016663 375.229858,691.345093 
	C374.653046,691.375122 373.581299,689.610779 373.421692,688.574646 
	C372.810486,684.606445 371.228912,681.717346 366.959412,680.715210 
	C366.161346,680.527832 365.457703,679.119507 365.069855,678.133301 
	C362.065369,670.493896 360.119812,662.160889 351.384644,658.478088 
	C350.795013,658.229553 350.300385,657.209900 350.180725,656.480164 
	C349.358917,651.469543 348.648956,646.440491 347.902985,641.417358 
	C347.341095,641.750977 346.779236,642.084534 346.217377,642.418152 
	C345.091827,641.259399 343.950470,640.115479 342.844421,638.938477 
	C341.146637,637.131653 339.658813,635.073303 337.753632,633.525879 
	C332.509979,629.266907 330.831665,622.619507 326.763702,617.594482 
	C326.474030,617.236755 326.209137,616.568726 326.346802,616.199341 
	C328.087769,611.529419 325.098053,610.794861 321.988983,610.725891 
	C320.604218,607.337097 319.841370,602.125671 318.057617,601.749084 
	C313.221558,600.727844 313.633728,597.015808 312.172180,594.184998 
	C310.192291,590.350220 310.167816,584.983398 305.627594,584.518616 
	C303.896667,577.652283 302.334991,571.457458 300.658691,564.807861 
	C298.545746,566.707947 297.262421,567.862000 295.394684,569.541626 
	C294.151184,564.162109 293.763367,559.347961 291.882629,555.212646 
	C289.923889,550.905762 286.524536,547.254028 283.684540,543.215515 
	C282.758392,542.113708 281.395508,541.093811 280.873932,539.747925 
	C279.755005,536.860596 279.502197,533.586426 278.122742,530.861389 
	C274.662170,524.025085 270.805634,517.387268 267.034027,510.711639 
	C265.915558,508.731995 263.488068,506.887909 263.493958,504.987396 
	C263.513672,498.629700 260.813995,493.550110 257.613312,488.436890 
	C256.158783,486.113312 254.229980,483.204742 254.545242,480.830994 
	C255.300140,475.146942 255.117310,468.512787 262.101227,465.782227 
	C268.658264,469.606842 275.280609,473.324402 281.760590,477.275360 
	C305.118958,491.517365 328.429443,505.837982 351.807251,520.732849 
	C347.952972,524.690247 345.763763,531.109741 347.786377,535.025269 
	C349.571411,538.480713 351.578461,542.418457 357.207458,540.057983 
	C357.812836,542.316345 359.162292,544.470032 358.650696,546.002502 
	C357.319489,549.990173 359.705811,551.265808 362.274780,553.036072 
	C363.759949,554.059509 365.516571,555.738281 365.756500,557.332031 
	C366.643829,563.226074 368.178314,568.390381 373.650513,571.899353 
	C375.071594,572.810608 375.201172,575.670837 376.032013,577.589050 
	C376.655701,579.028931 377.239960,581.421204 378.207550,581.621338 
	C383.564514,582.729492 383.522736,585.612915 381.881195,588.225403 
	C385.893066,592.293152 389.283051,596.013489 392.986572,599.389954 
	C395.636475,601.805786 396.794098,603.886536 391.951965,606.919617 
	C395.848114,608.613770 398.679810,609.845093 401.667419,611.144165 
	C398.628601,614.454529 401.617004,616.158630 403.741455,618.192688 
	C405.717957,620.085022 407.598724,622.077332 410.487488,625.004333 
	C410.740723,625.179565 413.614716,626.637024 413.456268,627.140686 
	C411.869629,632.185059 415.814270,632.543457 418.866211,633.734558 
	C418.750275,635.458557 418.645752,637.012939 418.501251,639.161926 
	C427.973785,636.859558 425.846710,646.201050 429.358948,649.791565 
	C431.185822,649.124390 432.649902,648.589722 433.765320,648.182373 
	C434.996399,651.204407 435.626282,654.145386 437.249115,656.358215 
	C439.015991,658.767395 442.123413,660.196167 443.878784,662.610474 
	C445.819946,665.280273 447.328125,667.691895 451.217987,667.175659 
	C452.001221,667.071716 453.266113,668.527649 453.859253,669.530334 
	C454.828033,671.168030 455.369598,673.051880 456.194611,674.782654 
	C457.757904,678.062134 459.978271,681.164062 460.821045,684.609924 
	C461.532654,687.519409 462.453125,688.890869 465.268097,690.275879 
	C468.003510,691.621826 471.131866,694.619507 471.724731,697.396423 
	C473.312653,704.833618 477.244019,708.510681 485.346130,708.096558 
	C491.113159,707.801880 494.032379,710.392578 492.064606,714.555115 
	C490.074341,718.765259 493.915985,720.126465 495.352936,722.500549 
	C495.879913,723.371155 498.612915,722.906555 500.677948,723.079407 
	C503.559967,727.154114 506.792664,731.778259 510.116028,736.336304 
	C510.430511,736.767639 511.313812,736.784241 511.961548,737.462036 
	C511.987976,761.615967 511.985901,785.301331 511.983826,808.986694 
z"/>
<path fill="#2B61BA" opacity="1.000000" stroke="none" 
	d="
M261.977386,465.456055 
	C255.117310,468.512787 255.300140,475.146942 254.545242,480.830994 
	C254.229980,483.204742 256.158783,486.113312 257.613312,488.436890 
	C260.813995,493.550110 263.513672,498.629700 263.493958,504.987396 
	C263.488068,506.887909 265.915558,508.731995 267.034027,510.711639 
	C270.805634,517.387268 274.662170,524.025085 278.122742,530.861389 
	C279.502197,533.586426 279.755005,536.860596 280.873932,539.747925 
	C281.395508,541.093811 282.758392,542.113708 283.684540,543.215515 
	C286.524536,547.254028 289.923889,550.905762 291.882629,555.212646 
	C293.763367,559.347961 294.151184,564.162109 295.394684,569.541626 
	C297.262421,567.862000 298.545746,566.707947 300.658691,564.807861 
	C302.334991,571.457458 303.896667,577.652283 305.627594,584.518616 
	C310.167816,584.983398 310.192291,590.350220 312.172180,594.184998 
	C313.633728,597.015808 313.221558,600.727844 318.057617,601.749084 
	C319.841370,602.125671 320.604218,607.337097 321.988983,610.725891 
	C325.098053,610.794861 328.087769,611.529419 326.346802,616.199341 
	C326.209137,616.568726 326.474030,617.236755 326.763702,617.594482 
	C330.831665,622.619507 332.509979,629.266907 337.753632,633.525879 
	C339.658813,635.073303 341.146637,637.131653 342.844421,638.938477 
	C343.950470,640.115479 345.091827,641.259399 346.217377,642.418152 
	C346.779236,642.084534 347.341095,641.750977 347.902985,641.417358 
	C348.648956,646.440491 349.358917,651.469543 350.180725,656.480164 
	C350.300385,657.209900 350.795013,658.229553 351.384644,658.478088 
	C360.119812,662.160889 362.065369,670.493896 365.069855,678.133301 
	C365.457703,679.119507 366.161346,680.527832 366.959412,680.715210 
	C371.228912,681.717346 372.810486,684.606445 373.421692,688.574646 
	C373.581299,689.610779 374.653046,691.375122 375.229858,691.345093 
	C381.539795,691.016663 381.597198,695.668396 382.476501,699.864990 
	C382.769684,701.264221 383.814911,702.488464 384.349365,703.857910 
	C385.620148,707.114258 387.329498,710.325317 387.859528,713.711487 
	C388.454590,717.513489 389.426666,718.641357 393.348358,717.289795 
	C395.566406,716.525330 398.296844,717.247620 401.254364,717.955872 
	C396.163513,723.183167 398.087738,725.955200 402.539856,729.400574 
	C406.484070,732.452820 408.831818,737.520813 412.670074,740.770996 
	C416.263336,743.813599 420.654205,746.398804 425.127869,747.773682 
	C429.165985,749.014832 429.949738,750.949646 429.674591,755.084839 
	C420.382324,750.236938 411.546997,745.627380 402.321411,741.022339 
	C396.591187,738.124939 391.111298,735.451721 385.933685,732.284485 
	C348.282227,709.252441 310.702423,686.103271 273.073578,663.034180 
	C264.586548,657.831055 256.016296,652.762390 247.440048,647.706909 
	C244.904465,646.212280 243.926010,644.322510 243.930939,641.256348 
	C244.026810,581.637512 243.981796,522.018433 244.073761,462.399567 
	C244.076828,460.404602 245.208832,458.411377 245.998886,456.048126 
	C246.183167,455.678894 246.669724,455.781067 246.990387,456.145752 
	C247.556351,456.731171 247.840363,456.876129 248.163086,456.945251 
	C248.163086,456.945251 248.042191,456.955902 248.147369,457.158234 
	C248.562378,457.557831 248.872208,457.755096 249.182037,457.952362 
	C253.405869,460.344879 257.629700,462.737366 261.977386,465.456055 
z"/>
<path fill="#3269C0" opacity="1.000000" stroke="none" 
	d="
M511.933044,736.993408 
	C511.313812,736.784241 510.430511,736.767639 510.116028,736.336304 
	C506.792664,731.778259 503.559967,727.154114 500.677948,723.079407 
	C498.612915,722.906555 495.879913,723.371155 495.352936,722.500549 
	C493.915985,720.126465 490.074341,718.765259 492.064606,714.555115 
	C494.032379,710.392578 491.113159,707.801880 485.346130,708.096558 
	C477.244019,708.510681 473.312653,704.833618 471.724731,697.396423 
	C471.131866,694.619507 468.003510,691.621826 465.268097,690.275879 
	C462.453125,688.890869 461.532654,687.519409 460.821045,684.609924 
	C459.978271,681.164062 457.757904,678.062134 456.194611,674.782654 
	C455.369598,673.051880 454.828033,671.168030 453.859253,669.530334 
	C453.266113,668.527649 452.001221,667.071716 451.217987,667.175659 
	C447.328125,667.691895 445.819946,665.280273 443.878784,662.610474 
	C442.123413,660.196167 439.015991,658.767395 437.249115,656.358215 
	C435.626282,654.145386 434.996399,651.204407 433.765320,648.182373 
	C432.649902,648.589722 431.185822,649.124390 429.358948,649.791565 
	C425.846710,646.201050 427.973785,636.859558 418.501251,639.161926 
	C418.645752,637.012939 418.750275,635.458557 418.866211,633.734558 
	C415.814270,632.543457 411.869629,632.185059 413.456268,627.140686 
	C413.614716,626.637024 410.740723,625.179565 410.487488,625.004333 
	C407.598724,622.077332 405.717957,620.085022 403.741455,618.192688 
	C401.617004,616.158630 398.628601,614.454529 401.667419,611.144165 
	C398.679810,609.845093 395.848114,608.613770 391.951965,606.919617 
	C396.794098,603.886536 395.636475,601.805786 392.986572,599.389954 
	C389.283051,596.013489 385.893066,592.293152 381.881195,588.225403 
	C383.522736,585.612915 383.564514,582.729492 378.207550,581.621338 
	C377.239960,581.421204 376.655701,579.028931 376.032013,577.589050 
	C375.201172,575.670837 375.071594,572.810608 373.650513,571.899353 
	C368.178314,568.390381 366.643829,563.226074 365.756500,557.332031 
	C365.516571,555.738281 363.759949,554.059509 362.274780,553.036072 
	C359.705811,551.265808 357.319489,549.990173 358.650696,546.002502 
	C359.162292,544.470032 357.812836,542.316345 357.207458,540.057983 
	C351.578461,542.418457 349.571411,538.480713 347.786377,535.025269 
	C345.763763,531.109741 347.952972,524.690247 352.008972,520.999390 
	C352.693085,520.890930 353.224670,521.119934 353.753632,521.962341 
	C354.058411,524.943542 354.365753,527.311401 354.673096,529.679260 
	C357.245483,528.767090 359.817810,527.854858 362.390137,526.942627 
	C363.144836,527.302917 363.899536,527.663269 364.978027,528.586670 
	C365.925781,529.388733 366.549744,529.627686 367.173706,529.866699 
	C367.173706,529.866699 367.061462,529.916626 367.103210,530.242065 
	C368.180084,530.960083 369.215240,531.352722 370.250366,531.745361 
	C370.250366,531.745361 370.139282,531.799744 370.245483,532.057190 
	C370.950684,532.505859 371.549652,532.697083 372.148651,532.888306 
	C372.148651,532.888306 372.045959,532.943604 372.091339,533.265625 
	C373.164490,533.991455 374.192230,534.395264 375.220001,534.799011 
	C375.220001,534.799011 375.107605,534.847839 375.224884,535.094604 
	C375.937378,535.530823 376.532623,535.720276 377.127838,535.909729 
	C377.127838,535.909729 377.036499,535.964050 377.083008,536.284180 
	C378.144989,537.022156 379.160431,537.440002 380.175903,537.857849 
	C380.175903,537.857849 380.058929,537.916199 380.102844,538.240356 
	C381.185486,538.947021 382.224243,539.329468 383.263000,539.711914 
	C383.263000,539.711914 383.151428,539.764282 383.254913,540.031006 
	C383.962585,540.486755 384.566803,540.675720 385.170990,540.864746 
	C385.170990,540.864746 385.058441,540.921509 385.109436,541.259155 
	C386.257446,542.018127 387.354431,542.439392 388.451416,542.860657 
	C388.910675,543.030701 389.369904,543.200806 389.976990,543.967163 
	C391.160370,544.968262 392.195862,545.372986 393.231384,545.777710 
	C393.231384,545.777710 393.120483,545.827576 393.234100,546.079712 
	C393.945801,546.519958 394.543915,546.708069 395.141998,546.896118 
	C395.141998,546.896118 395.044556,546.951050 395.089264,547.272583 
	C396.158234,548.002380 397.182465,548.410645 398.206726,548.818970 
	C398.206726,548.818970 398.097839,548.864502 398.218933,549.108704 
	C398.931885,549.542419 399.523743,549.731934 400.115631,549.921387 
	C400.115631,549.921387 400.031433,549.975281 400.079834,550.297302 
	C401.150879,551.024231 402.173553,551.429199 403.196228,551.834106 
	C403.196228,551.834106 403.068481,551.891357 403.122864,552.238281 
	C404.314911,553.006531 405.452545,553.427979 406.590210,553.849365 
	C407.972229,554.603455 409.354248,555.357483 411.026978,556.670044 
	C411.926758,557.451111 412.535767,557.673828 413.144806,557.896484 
	C413.144806,557.896484 413.046814,557.945007 413.097412,558.278442 
	C414.215698,559.033813 415.283356,559.455688 416.351013,559.877563 
	C417.153351,560.273071 417.955688,560.668518 419.028564,561.610352 
	C419.911865,562.405701 420.524628,562.654724 421.137421,562.903748 
	C421.137421,562.903748 421.041779,562.953918 421.086914,563.275696 
	C422.151947,564.010559 423.171814,564.423706 424.191681,564.836853 
	C424.191681,564.836853 424.058014,564.903687 424.104919,565.224731 
	C425.184906,565.945679 426.218048,566.345520 427.251190,566.745361 
	C427.251190,566.745361 427.140533,566.800842 427.246796,567.058228 
	C427.953125,567.505066 428.553192,567.694519 429.153259,567.883972 
	C429.153259,567.883972 429.065247,567.926697 429.229736,568.170654 
	C429.812653,568.562561 430.231018,568.710449 430.649414,568.858337 
	C431.068604,568.996155 431.487793,569.134033 432.099304,569.760742 
	C432.646484,570.363159 433.001282,570.476624 433.356079,570.590149 
	C433.356079,570.590149 433.389099,570.515930 433.385986,570.896606 
	C434.659485,571.786926 435.936127,572.296509 437.212769,572.806030 
	C437.212769,572.806030 437.047272,572.869385 437.100006,573.187256 
	C438.834808,574.279175 440.516876,575.053284 442.198944,575.827454 
	C442.198944,575.827454 442.076477,575.877747 442.121094,576.014526 
	C442.434998,576.152893 442.704285,576.154541 442.973541,576.156189 
	C465.850098,590.192627 488.726685,604.229065 511.778259,619.037231 
	C511.946533,658.870422 511.939789,697.931885 511.933044,736.993408 
z"/>
<path fill="#0132A3" opacity="1.000000" stroke="none" 
	d="
M511.961548,737.462036 
	C511.939789,697.931885 511.946533,658.870422 511.937714,619.328003 
	C512.279541,620.671204 512.947449,622.494873 512.949280,624.319275 
	C513.008667,684.412354 513.002075,744.505554 513.019958,804.598694 
	C513.020508,806.420959 513.178894,808.243286 513.468750,810.494873 
	C513.150146,810.513306 512.626648,810.102478 512.043457,809.339111 
	C511.985901,785.301331 511.987976,761.615967 511.961548,737.462036 
z"/>
<path fill="#0132A3" opacity="1.000000" stroke="none" 
	d="
M828.974731,562.512695 
	C828.602905,561.570190 828.030518,560.164795 828.029480,558.759033 
	C827.985291,498.366852 827.990234,437.974701 828.006531,377.582520 
	C828.006775,376.600922 828.220703,375.619415 828.616821,374.335144 
	C828.953003,390.155334 829.048706,406.278229 829.053955,422.401154 
	C829.069153,468.950623 829.047791,515.500122 828.974731,562.512695 
z"/>
<path fill="#0132A3" opacity="1.000000" stroke="none" 
	d="
M828.876343,667.491943 
	C828.508911,666.688843 828.025574,665.431824 828.023926,664.174194 
	C827.983154,632.472839 827.990417,600.771484 828.008484,569.070068 
	C828.008972,568.257263 828.226318,567.444580 828.626221,566.330200 
	C828.934998,599.698303 828.959961,633.368103 828.876343,667.491943 
z"/>
<path fill="#2F65BD" opacity="1.000000" stroke="none" 
	d="
M362.209045,526.701538 
	C359.817810,527.854858 357.245483,528.767090 354.673096,529.679260 
	C354.365753,527.311401 354.058411,524.943542 353.912659,522.206787 
	C356.725494,523.378723 359.376740,524.919617 362.209045,526.701538 
z"/>
<path fill="#2B61BA" opacity="1.000000" stroke="none" 
	d="
M231.543594,339.895203 
	C231.712433,340.432526 231.706650,341.386047 231.316147,341.585175 
	C223.781082,345.427948 216.200943,349.182343 208.241119,352.925049 
	C215.631424,348.583496 223.410660,344.271851 231.543594,339.895203 
z"/>
<path fill="#376DC5" opacity="1.000000" stroke="none" 
	d="
M561.604248,522.233398 
	C562.446289,519.963257 563.211609,517.189209 564.988098,515.444946 
	C565.835144,514.613159 568.604370,515.738953 570.868774,516.032471 
	C568.137268,518.108643 565.039917,520.130493 561.604248,522.233398 
z"/>
<path fill="#0132A3" opacity="1.000000" stroke="none" 
	d="
M785.076050,605.497070 
	C785.427063,610.043396 785.850586,615.049683 785.968323,620.063232 
	C786.064392,624.151489 785.794800,628.248230 785.413574,632.649353 
	C785.098694,623.958374 785.057556,614.959351 785.076050,605.497070 
z"/>
<path fill="#376DC5" opacity="1.000000" stroke="none" 
	d="
M421.450073,228.790131 
	C419.360168,233.138565 415.840637,235.864899 410.192810,235.857758 
	C413.550812,233.474106 417.325012,231.160248 421.450073,228.790131 
z"/>
<path fill="#376DC5" opacity="1.000000" stroke="none" 
	d="
M553.473083,527.122498 
	C553.575256,525.220032 554.014221,523.240417 554.531860,520.905884 
	C556.752258,521.348450 558.583862,521.713562 560.827820,522.170044 
	C558.763428,523.856079 556.286621,525.450684 553.473083,527.122498 
z"/>
<path fill="#0132A3" opacity="1.000000" stroke="none" 
	d="
M828.932007,371.572510 
	C828.243286,368.930267 827.606323,365.876099 826.944336,362.365265 
	C826.919434,361.908600 826.989746,361.466827 827.006226,361.243713 
	C827.662598,361.304169 828.843018,361.561066 828.858582,361.875519 
	C829.011230,364.965057 828.969971,368.064178 828.932007,371.572510 
z"/>
<path fill="#2B61BA" opacity="1.000000" stroke="none" 
	d="
M200.532410,356.905457 
	C201.563004,358.668427 202.242905,360.513367 202.932495,362.730469 
	C200.673065,361.673157 197.162766,360.803955 200.532410,356.905457 
z"/>
<path fill="#2B61BA" opacity="1.000000" stroke="none" 
	d="
M238.573776,335.931824 
	C236.816391,337.219574 234.720520,338.585388 232.236130,339.921143 
	C233.976852,338.597321 236.106079,337.303589 238.573776,335.931824 
z"/>
<path fill="#2B61BA" opacity="1.000000" stroke="none" 
	d="
M207.562073,352.907440 
	C205.814743,354.212860 203.727554,355.586823 201.240814,356.922180 
	C202.968246,355.581055 205.095230,354.278503 207.562073,352.907440 
z"/>
<path fill="#376DC5" opacity="1.000000" stroke="none" 
	d="
M454.517517,209.628906 
	C452.752991,210.966949 450.653076,212.435822 448.155487,213.823608 
	C449.899231,212.414917 452.040680,211.087326 454.517517,209.628906 
z"/>
<path fill="#376DC5" opacity="1.000000" stroke="none" 
	d="
M575.345520,513.924072 
	C574.744446,509.891144 577.451477,509.851410 580.745544,510.083191 
	C579.338867,511.379425 577.514160,512.633850 575.345520,513.924072 
z"/>
<path fill="#376DC5" opacity="1.000000" stroke="none" 
	d="
M409.453735,235.815491 
	C410.482697,239.793655 407.578430,238.886749 404.912476,238.905472 
	C406.011261,237.880676 407.566620,236.888397 409.453735,235.815491 
z"/>
<path fill="#0132A3" opacity="1.000000" stroke="none" 
	d="
M785.071350,641.419250 
	C788.028748,642.385254 787.553894,644.067627 785.203979,645.919922 
	C784.892334,644.578186 784.951843,643.203430 785.071350,641.419250 
z"/>
<path fill="#2B61BA" opacity="1.000000" stroke="none" 
	d="
M208.046173,366.387054 
	C209.555389,366.919525 211.260101,367.734894 213.008942,368.934448 
	C211.449265,368.435760 209.845474,367.552856 208.046173,366.387054 
z"/>
<path fill="#0132A3" opacity="1.000000" stroke="none" 
	d="
M785.077759,405.478149 
	C785.314270,407.819122 785.490723,410.603027 785.403198,413.671814 
	C785.098694,411.278107 785.058167,408.599609 785.077759,405.478149 
z"/>
<path fill="#376DC5" opacity="1.000000" stroke="none" 
	d="
M438.485168,218.817505 
	C437.356445,219.821396 435.883881,220.880371 434.009033,221.906967 
	C435.118256,220.873901 436.629761,219.873245 438.485168,218.817505 
z"/>
<path fill="#376DC5" opacity="1.000000" stroke="none" 
	d="
M426.461151,225.795868 
	C425.385986,226.797501 423.975616,227.859589 422.174408,228.859161 
	C423.231018,227.816559 424.678497,226.836426 426.461151,225.795868 
z"/>
<path fill="#2B61BA" opacity="1.000000" stroke="none" 
	d="
M243.626678,332.939087 
	C242.514984,333.899445 241.072418,334.929230 239.246521,335.932159 
	C240.340729,334.939697 241.818268,333.974060 243.626678,332.939087 
z"/>
<path fill="#2B61BA" opacity="1.000000" stroke="none" 
	d="
M203.090363,363.332062 
	C204.560623,363.850861 206.224365,364.637726 207.896454,365.793030 
	C206.364487,365.307709 204.824173,364.453918 203.090363,363.332062 
z"/>
<path fill="#2F65BD" opacity="1.000000" stroke="none" 
	d="
M442.016205,575.550171 
	C440.516876,575.053284 438.834808,574.279175 437.167175,573.129395 
	C438.732208,573.593506 440.282837,574.433167 442.016205,575.550171 
z"/>
<path fill="#0132A3" opacity="1.000000" stroke="none" 
	d="
M785.076294,507.455048 
	C785.305054,508.842316 785.473816,510.649628 785.387817,512.708252 
	C785.094177,511.264709 785.055237,509.569885 785.076294,507.455048 
z"/>
<path fill="#2F65BD" opacity="1.000000" stroke="none" 
	d="
M437.036499,572.532104 
	C435.936127,572.296509 434.659485,571.786926 433.426086,570.890259 
	C434.599579,571.088196 435.729919,571.673218 437.036499,572.532104 
z"/>
<path fill="#2F65BD" opacity="1.000000" stroke="none" 
	d="
M370.077911,531.481079 
	C369.215240,531.352722 368.180084,530.960083 367.134888,530.189453 
	C368.051727,530.279907 368.978577,530.748352 370.077911,531.481079 
z"/>
<path fill="#2F65BD" opacity="1.000000" stroke="none" 
	d="
M393.057800,545.510498 
	C392.195862,545.372986 391.160370,544.968262 390.097046,544.188232 
	C391.007568,544.289673 391.945862,544.766541 393.057800,545.510498 
z"/>
<path fill="#2F65BD" opacity="1.000000" stroke="none" 
	d="
M406.376556,553.578552 
	C405.452545,553.427979 404.314911,553.006531 403.163879,552.181519 
	C404.154633,552.287781 405.158783,552.797729 406.376556,553.578552 
z"/>
<path fill="#2F65BD" opacity="1.000000" stroke="none" 
	d="
M403.029907,551.564697 
	C402.173553,551.429199 401.150879,551.024231 400.098480,550.250916 
	C401.000366,550.353394 401.931976,550.824341 403.029907,551.564697 
z"/>
<path fill="#2F65BD" opacity="1.000000" stroke="none" 
	d="
M375.049805,534.532837 
	C374.192230,534.395264 373.164490,533.991455 372.118591,533.214111 
	C373.026855,533.315918 373.953247,533.791321 375.049805,534.532837 
z"/>
<path fill="#2F65BD" opacity="1.000000" stroke="none" 
	d="
M398.042053,548.548584 
	C397.182465,548.410645 396.158234,548.002380 395.113159,547.221985 
	C396.020721,547.325989 396.949066,547.802063 398.042053,548.548584 
z"/>
<path fill="#2F65BD" opacity="1.000000" stroke="none" 
	d="
M380.006653,537.591309 
	C379.160431,537.440002 378.144989,537.022156 377.104736,536.235718 
	C377.999115,536.352966 378.918274,536.838806 380.006653,537.591309 
z"/>
<path fill="#2F65BD" opacity="1.000000" stroke="none" 
	d="
M383.084015,539.454102 
	C382.224243,539.329468 381.185486,538.947021 380.137604,538.185059 
	C381.053986,538.269165 381.979523,538.732727 383.084015,539.454102 
z"/>
<path fill="#376DC5" opacity="1.000000" stroke="none" 
	d="
M443.523865,215.831421 
	C443.069336,216.485336 442.298309,217.193665 441.141998,217.825012 
	C441.573608,217.127319 442.390472,216.506577 443.523865,215.831421 
z"/>
<path fill="#2F65BD" opacity="1.000000" stroke="none" 
	d="
M388.247894,542.594604 
	C387.354431,542.439392 386.257446,542.018127 385.141296,541.204834 
	C386.096252,541.317993 387.070312,541.823303 388.247894,542.594604 
z"/>
<path fill="#2F65BD" opacity="1.000000" stroke="none" 
	d="
M416.164490,559.606567 
	C415.283356,559.455688 414.215698,559.033813 413.121155,558.229187 
	C414.055481,558.342896 415.016693,558.839233 416.164490,559.606567 
z"/>
<path fill="#2F65BD" opacity="1.000000" stroke="none" 
	d="
M424.025055,564.568237 
	C423.171814,564.423706 422.151947,564.010559 421.110229,563.226929 
	C422.011719,563.337463 422.935089,563.818542 424.025055,564.568237 
z"/>
<path fill="#2F65BD" opacity="1.000000" stroke="none" 
	d="
M427.082458,566.479248 
	C426.218048,566.345520 425.184906,565.945679 424.150604,565.165649 
	C425.070862,565.261414 425.992310,565.737305 427.082458,566.479248 
z"/>
<path fill="#376DC5" opacity="1.000000" stroke="none" 
	d="
M581.449829,510.125427 
	C581.897522,509.467865 582.676636,508.752991 583.837280,508.058899 
	C583.406189,508.742462 582.593689,509.405304 581.449829,510.125427 
z"/>
<path fill="#0132A3" opacity="1.000000" stroke="none" 
	d="
M785.078552,450.441650 
	C785.303528,451.518738 785.468323,453.003143 785.385620,454.722412 
	C785.098206,453.587860 785.058350,452.218445 785.078552,450.441650 
z"/>
<path fill="#0132A3" opacity="1.000000" stroke="none" 
	d="
M785.118530,391.346100 
	C785.661987,391.341248 786.133423,391.658844 786.604797,391.976440 
	C786.308105,392.287292 786.011353,392.598145 785.435120,392.944824 
	C785.119263,392.543304 785.082886,392.105957 785.118530,391.346100 
z"/>
<path fill="#0132A3" opacity="1.000000" stroke="none" 
	d="
M785.075317,499.423950 
	C785.295959,500.200745 785.456787,501.367279 785.376709,502.746460 
	C785.095642,501.910614 785.055603,500.862183 785.075317,499.423950 
z"/>
<path fill="#0132A3" opacity="1.000000" stroke="none" 
	d="
M785.078003,483.397339 
	C785.290955,483.886688 785.444214,484.739166 785.368103,485.774963 
	C785.098633,485.225708 785.058472,484.493103 785.078003,483.397339 
z"/>
<path fill="#0132A3" opacity="1.000000" stroke="none" 
	d="
M785.075073,536.396362 
	C785.288330,536.886475 785.442078,537.740051 785.365479,538.776733 
	C785.095337,538.226440 785.055481,537.493164 785.075073,536.396362 
z"/>
<path fill="#2F65BD" opacity="1.000000" stroke="none" 
	d="
M399.942200,549.672729 
	C399.523743,549.731934 398.931885,549.542419 398.222046,549.049805 
	C398.658966,548.972412 399.213898,549.198242 399.942200,549.672729 
z"/>
<path fill="#376DC5" opacity="1.000000" stroke="none" 
	d="
M440.531250,217.723297 
	C440.383179,218.078918 439.928375,218.484543 439.134705,218.856049 
	C439.272064,218.472382 439.748260,218.122818 440.531250,217.723297 
z"/>
<path fill="#2F65BD" opacity="1.000000" stroke="none" 
	d="
M394.969421,546.646790 
	C394.543915,546.708069 393.945801,546.519958 393.241821,546.019409 
	C393.689545,545.937134 394.243164,546.167297 394.969421,546.646790 
z"/>
<path fill="#2F65BD" opacity="1.000000" stroke="none" 
	d="
M428.981323,567.635498 
	C428.553192,567.694519 427.953125,567.505066 427.256897,566.997192 
	C427.710297,566.914795 428.259827,567.150879 428.981323,567.635498 
z"/>
<path fill="#2F65BD" opacity="1.000000" stroke="none" 
	d="
M420.958832,562.642090 
	C420.524628,562.654724 419.911865,562.405701 419.205627,561.818237 
	C419.668182,561.780029 420.224213,562.080261 420.958832,562.642090 
z"/>
<path fill="#2F65BD" opacity="1.000000" stroke="none" 
	d="
M412.970886,557.636475 
	C412.535767,557.673828 411.926758,557.451111 411.214111,556.903259 
	C411.672638,556.844238 412.234802,557.110413 412.970886,557.636475 
z"/>
<path fill="#2F65BD" opacity="1.000000" stroke="none" 
	d="
M376.954651,535.659912 
	C376.532623,535.720276 375.937378,535.530823 375.229340,535.033447 
	C375.671509,534.953796 376.226501,535.181946 376.954651,535.659912 
z"/>
<path fill="#2F65BD" opacity="1.000000" stroke="none" 
	d="
M371.977264,532.639587 
	C371.549652,532.697083 370.950684,532.505859 370.256165,531.996277 
	C370.709045,531.915588 371.257446,532.153259 371.977264,532.639587 
z"/>
<path fill="#2F65BD" opacity="1.000000" stroke="none" 
	d="
M367.004028,529.593628 
	C366.549744,529.627686 365.925781,529.388733 365.205750,528.806763 
	C365.684570,528.749390 366.259460,529.034973 367.004028,529.593628 
z"/>
<path fill="#376DC5" opacity="1.000000" stroke="none" 
	d="
M551.477234,528.273071 
	C551.619934,527.921204 552.061768,527.511597 552.839966,527.121338 
	C552.709717,527.498840 552.243042,527.856995 551.477234,528.273071 
z"/>
<path fill="#2F65BD" opacity="1.000000" stroke="none" 
	d="
M385.008148,540.608276 
	C384.566803,540.675720 383.962585,540.486755 383.273132,539.972168 
	C383.740356,539.881653 384.292816,540.116760 385.008148,540.608276 
z"/>
<path fill="#376DC5" opacity="1.000000" stroke="none" 
	d="
M447.521729,213.726288 
	C447.343048,214.082779 446.835175,214.492767 445.967468,214.885925 
	C446.135925,214.506012 446.664215,214.142899 447.521729,213.726288 
z"/>
<path fill="#376DC5" opacity="1.000000" stroke="none" 
	d="
M456.712738,208.046341 
	C456.754852,208.291916 456.517731,208.543655 456.023346,208.859558 
	C455.988525,208.633301 456.210999,208.342911 456.712738,208.046341 
z"/>
<path fill="#376DC5" opacity="1.000000" stroke="none" 
	d="
M432.712677,222.020752 
	C432.744202,222.261108 432.488403,222.522125 431.957672,222.840179 
	C431.930267,222.611969 432.177795,222.326706 432.712677,222.020752 
z"/>
<path fill="#0132A3" opacity="1.000000" stroke="none" 
	d="
M783.666748,646.729736 
	C783.708252,646.890442 783.517395,647.152100 783.183594,647.281860 
	C783.171997,647.043518 783.303162,646.937073 783.666748,646.729736 
z"/>
<path fill="#376DC5" opacity="1.000000" stroke="none" 
	d="
M430.712189,223.035065 
	C430.755981,223.284332 430.517181,223.538864 430.018188,223.856659 
	C429.981873,223.626740 430.205750,223.333527 430.712189,223.035065 
z"/>
<path fill="#376DC5" opacity="1.000000" stroke="none" 
	d="
M427.730652,224.983704 
	C427.773621,225.221039 427.537689,225.487183 427.030121,225.799255 
	C426.989563,225.567627 427.220642,225.290070 427.730652,224.983704 
z"/>
<path fill="#376DC5" opacity="1.000000" stroke="none" 
	d="
M444.723083,215.019333 
	C444.768616,215.263229 444.538696,215.518066 444.048523,215.823853 
	C444.008057,215.593292 444.227844,215.311783 444.723083,215.019333 
z"/>
<path fill="#2F65BD" opacity="1.000000" stroke="none" 
	d="
M442.788818,576.013855 
	C442.704285,576.154541 442.434998,576.152893 442.157593,575.959290 
	C442.149475,575.767334 442.604126,575.871521 442.788818,576.013855 
z"/>
<path fill="#144DAD" opacity="1.000000" stroke="none" 
	d="
M248.050873,456.717468 
	C247.840363,456.876129 247.556351,456.731171 247.175247,456.311951 
	C247.339172,456.238892 247.638901,456.364258 248.050873,456.717468 
z"/>
<path fill="#2F65BD" opacity="1.000000" stroke="none" 
	d="
M433.237183,570.342773 
	C433.001282,570.476624 432.646484,570.363159 432.196838,569.966675 
	C432.440765,569.820923 432.779510,569.958191 433.237183,570.342773 
z"/>
<path fill="#2F65BD" opacity="1.000000" stroke="none" 
	d="
M430.462036,568.583008 
	C430.231018,568.710449 429.812653,568.562561 429.222717,568.122253 
	C429.459045,567.989075 429.866852,568.148376 430.462036,568.583008 
z"/>
<path fill="#0132A3" opacity="1.000000" stroke="none" 
	d="
M785.086304,567.262817 
	C785.240356,567.285156 785.341980,567.542725 785.291565,567.884399 
	C785.139526,567.968445 785.033936,567.498047 785.086304,567.262817 
z"/>
<path fill="#144DAD" opacity="1.000000" stroke="none" 
	d="
M249.071426,457.692505 
	C248.872208,457.755096 248.562378,457.557831 248.151627,457.097717 
	C248.354080,457.034088 248.657455,457.233368 249.071426,457.692505 
z"/>
<path fill="#0132A3" opacity="1.000000" stroke="none" 
	d="
M785.086060,470.263336 
	C785.240051,470.285980 785.341309,470.543335 785.290405,470.884155 
	C785.138245,470.967621 785.033386,470.498047 785.086060,470.263336 
z"/>
<path fill="#376DC5" opacity="1.000000" stroke="none" 
	d="
M595.291748,501.965637 
	C595.246521,501.703461 595.484619,501.453613 595.979492,501.139587 
	C596.015869,501.376312 595.795532,501.677155 595.291748,501.965637 
z"/>
<path fill="#376DC5" opacity="1.000000" stroke="none" 
	d="
M593.385864,503.294800 
	C593.297546,503.075470 593.475342,502.702454 593.941345,502.197266 
	C594.037048,502.423798 593.844482,502.782471 593.385864,503.294800 
z"/>
<path fill="#376DC5" opacity="1.000000" stroke="none" 
	d="
M590.292053,504.968262 
	C590.246277,504.705231 590.484619,504.454681 590.980469,504.140228 
	C591.017334,504.377808 590.796814,504.679291 590.292053,504.968262 
z"/>
<path fill="#376DC5" opacity="1.000000" stroke="none" 
	d="
M588.384338,506.265198 
	C588.301025,506.048889 588.481750,505.683990 588.949036,505.193481 
	C589.039856,505.417419 588.844116,505.767029 588.384338,506.265198 
z"/>
<path fill="#0132A3" opacity="1.000000" stroke="none" 
	d="
M785.082397,557.262451 
	C785.237183,557.285217 785.339661,557.543762 785.288574,557.885742 
	C785.135010,557.969299 785.030090,557.498108 785.082397,557.262451 
z"/>
<path fill="#376DC5" opacity="1.000000" stroke="none" 
	d="
M585.292358,507.964691 
	C585.246643,507.701874 585.484497,507.452393 585.978821,507.138977 
	C586.015442,507.376068 585.795654,507.677063 585.292358,507.964691 
z"/>
<path fill="#376DC5" opacity="1.000000" stroke="none" 
	d="
M407.343079,315.994934 
	C407.543304,315.389740 408.086609,314.779480 408.629883,314.169189 
	C408.927155,314.451080 409.224396,314.732971 409.521637,315.014862 
	C408.909821,315.339874 408.297974,315.664886 407.343079,315.994934 
z"/>
<path fill="#376DC5" opacity="1.000000" stroke="none" 
	d="
M511.392212,465.466675 
	C510.941559,465.350433 510.665253,465.066681 510.410309,464.764893 
	C510.403778,464.757172 510.631378,464.551636 510.749786,464.438324 
	C511.022980,464.724487 511.296173,465.010620 511.392212,465.466675 
z"/>
<path fill="#376DC5" opacity="1.000000" stroke="none" 
	d="
M497.954407,453.607483 
	C497.711884,453.210022 497.713562,452.814606 497.743866,452.421417 
	C497.744720,452.410339 498.051270,452.422852 498.215240,452.424377 
	C498.211029,452.819519 498.206818,453.214691 497.954407,453.607483 
z"/>
<path fill="#2B61BA" opacity="1.000000" stroke="none" 
	d="
M245.880615,331.888214 
	C245.970612,331.977539 246.112656,332.158661 246.254684,332.339813 
	C246.157333,332.274200 246.059982,332.208618 245.873352,331.986145 
	C245.784103,331.829224 245.932678,331.980042 245.880615,331.888214 
z"/>
</svg>