<svg width="120" height="120" viewBox="0 0 120 120" fill="none" xmlns="http://www.w3.org/2000/svg">
<path d="M32 40.5L31.5117 39.6273L31 40.5L32 40.5ZM102 32.6667L102.488 33.5394L102.488 31.794L102 32.6667ZM74 17L74.4883 16.1273L73.5117 16.1273L74 17ZM60 56.1667L60 57.1667L60.4883 57.0394L60 56.1667ZM32 56.1667L31 56.1667L32 57.1667L32 56.1667ZM32.4883 41.3727L74.4883 17.8727L73.5117 16.1273L31.5117 39.6273L32.4883 41.3727ZM73.5117 17.8727L101.512 33.5394L102.488 31.794L74.4883 16.1273L73.5117 17.8727ZM101.512 31.794L59.5117 55.294L60.4883 57.0394L102.488 33.5394L101.512 31.794ZM60 55.1667L32 55.1667L32 57.1667L60 57.1667L60 55.1667ZM33 56.1667L33 40.5L31 40.5L31 56.1667L33 56.1667Z" fill="#E32212"/>
<path opacity="0.4" d="M75 54.0001L47 38.0001L19 54.0001M75 54.0001L47 70.0001M75 54.0001V86.0001L47 102M47 70.0001L19 54.0001M47 70.0001V102M19 54.0001V86.0001L47 102" stroke="#E32212" stroke-width="2" stroke-linejoin="bevel"/>
<ellipse cx="39.5" cy="50.1667" rx="2.5" ry="2" transform="rotate(-180 39.5 50.1667)" stroke="#E32212" stroke-width="2"/>
</svg>
