<svg width="120" height="120" viewBox="0 0 120 120" fill="none" xmlns="http://www.w3.org/2000/svg">
<path d="M77.5 102L88 96V48M77.5 102V54M77.5 102L67 96V48M88 48L77.5 54M88 48L77.5 42L67 48M77.5 54L67 48" stroke="#E32212" stroke-width="2"/>
<path d="M56.5 114L67 108.037V73.963M56.5 114V79.9259M56.5 114L46 108.037V73.963M67 73.963L56.5 79.9259M67 73.963L56.5 68L46 73.963M56.5 79.9259L46 73.963" stroke="#E32212" stroke-width="2"/>
<path d="M98.5 90L109 84V60M98.5 90V66M98.5 90L88 84V60M109 60L98.5 66M109 60L98.5 54L88 60M98.5 66L88 60" stroke="#E32212" stroke-width="2"/>
<path opacity="0.4" d="M41 23.5L28 16L15 23.5L28 31L41 23.5Z" stroke="#E32212" stroke-width="2" stroke-linejoin="bevel"/>
<path opacity="0.4" d="M11 45L24 52.3333V67L11 59.6667V45Z" stroke="#E32212" stroke-width="2" stroke-linejoin="bevel"/>
<path opacity="0.4" d="M54 7L67 14.3333V29L54 21.6667V7Z" stroke="#E32212" stroke-width="2" stroke-linejoin="bevel"/>
<path opacity="0.4" d="M35 39.3333L48 32V46.6667L35 54V39.3333Z" stroke="#E32212" stroke-width="2" stroke-linejoin="bevel"/>
</svg>
