<svg width="600" height="600" viewBox="0 0 600 600" fill="none" xmlns="http://www.w3.org/2000/svg">
<path fill-rule="evenodd" clip-rule="evenodd" d="M332.5 340.845L264.291 379.667L332.5 418.489L400.709 379.667L332.5 340.845ZM403.375 384.172L335.125 423.018V500.661L403.375 461.816V384.172ZM329.875 500.661V424.115H261.625V461.816L329.875 500.661ZM256.375 423.018V463.334L257.698 465.604L331.198 507.437H333.802L407.302 465.604L408.625 463.334V379.667L407.302 377.397L333.802 335.563L331.198 335.563L258.303 377.052H185.5L184.198 381.937L256.375 423.018ZM261.625 418.886H322.615L261.625 384.172V418.886ZM256.375 382.281V416.995L195.385 382.281H256.375Z" fill="#E32212"/>
<path d="M349.142 436.046C350.959 435.001 352.546 434.502 353.905 434.549C355.263 434.596 356.311 435.161 357.047 436.244C357.8 437.298 358.177 438.804 358.177 440.762C358.177 442.701 357.8 444.639 357.047 446.578C356.311 448.508 355.255 450.282 353.88 451.901C352.522 453.511 350.942 454.833 349.142 455.869L342.685 459.582L342.685 439.759L349.142 436.046ZM348.872 451.845C350.459 450.932 351.695 449.722 352.579 448.216C353.463 446.71 353.905 445.044 353.905 443.218C353.905 441.392 353.463 440.225 352.579 439.717C351.695 439.208 350.459 439.411 348.872 440.324L346.883 441.467L346.883 452.988L348.872 451.845Z" fill="white"/>
<path d="M359.811 439.794C359.811 437.836 360.179 435.883 360.916 433.934C361.652 431.967 362.675 430.183 363.985 428.583C365.311 426.955 366.808 425.661 368.478 424.701C370.524 423.524 372.275 423.138 373.732 423.543C375.189 423.948 376.163 425.082 376.654 426.945L372.038 429.6C371.694 428.969 371.203 428.621 370.565 428.555C369.943 428.48 369.231 428.673 368.429 429.134C367.136 429.877 366.088 430.998 365.286 432.494C364.484 433.991 364.083 435.605 364.083 437.337C364.083 439.069 364.484 440.222 365.286 440.796C366.088 441.37 367.136 441.285 368.429 440.542C369.231 440.081 369.943 439.455 370.565 438.664C371.203 437.864 371.694 436.951 372.038 435.925L376.654 433.271C376.163 435.699 375.189 437.953 373.732 440.034C372.275 442.095 370.524 443.714 368.478 444.89C366.808 445.85 365.311 446.288 363.985 446.203C362.675 446.09 361.652 445.483 360.916 444.382C360.179 443.281 359.811 441.751 359.811 439.794Z" fill="white"/>
<path d="M377.905 416.726C377.905 416.126 378.002 415.544 378.196 414.979C378.396 414.411 378.666 413.907 379.005 413.468C379.345 413.029 379.723 412.689 380.142 412.448C380.499 412.243 380.812 412.147 381.078 412.161C381.351 412.171 381.56 412.27 381.706 412.459L381.706 411.632L383.261 410.738L383.261 416.574L381.706 417.468L381.706 416.642C381.554 417.001 381.342 417.343 381.069 417.667C380.803 417.988 380.49 418.251 380.133 418.456C379.72 418.694 379.345 418.788 379.005 418.739C378.666 418.683 378.396 418.486 378.196 418.148C378.002 417.799 377.905 417.325 377.905 416.726ZM381.706 414.55C381.706 414.104 381.597 413.815 381.378 413.682C381.166 413.546 380.906 413.567 380.596 413.745C380.287 413.923 380.024 414.203 379.805 414.587C379.593 414.96 379.487 415.37 379.487 415.816C379.487 416.262 379.593 416.557 379.805 416.699C380.024 416.832 380.287 416.809 380.596 416.632C380.906 416.454 381.166 416.175 381.378 415.795C381.597 415.411 381.706 414.997 381.706 414.55Z" fill="white"/>
<path d="M385.168 409.035C384.895 409.192 384.671 409.23 384.495 409.15C384.325 409.059 384.24 408.878 384.24 408.606C384.24 408.327 384.325 408.048 384.495 407.77C384.671 407.48 384.895 407.257 385.168 407.1C385.434 406.947 385.653 406.916 385.822 407.006C385.998 407.086 386.086 407.266 386.086 407.545C386.086 407.817 385.998 408.097 385.822 408.387C385.653 408.666 385.434 408.882 385.168 409.035ZM385.941 409.197L385.941 415.033L384.386 415.927L384.386 410.091L385.941 409.197Z" fill="white"/>
<path d="M343.301 469.606C343.854 469.288 344.332 469.133 344.734 469.142C345.142 469.142 345.452 469.301 345.665 469.619C345.884 469.934 345.993 470.39 345.993 470.987C345.993 471.583 345.884 472.165 345.665 472.731C345.452 473.289 345.142 473.802 344.734 474.27C344.332 474.731 343.854 475.12 343.301 475.438L341.722 476.345L341.722 470.514L343.301 469.606ZM343.301 474.81C343.956 474.434 344.455 473.948 344.8 473.354C345.144 472.755 345.316 472.095 345.316 471.376C345.316 470.65 345.142 470.185 344.792 469.978C344.448 469.769 343.951 469.851 343.301 470.225L342.384 470.752L342.384 475.337L343.301 474.81Z" fill="white"/>
<path d="M346.618 471.221C346.618 470.752 346.701 470.295 346.866 469.849C347.031 469.397 347.256 468.991 347.542 468.631C347.833 468.269 348.156 467.986 348.51 467.782C348.859 467.581 349.162 467.493 349.419 467.518C349.676 467.544 349.868 467.651 349.994 467.841L349.994 467.004L350.663 466.619L350.663 471.204L349.994 471.589L349.994 470.735C349.863 471.078 349.667 471.415 349.405 471.744C349.148 472.064 348.847 472.324 348.503 472.522C348.149 472.725 347.828 472.809 347.542 472.773C347.256 472.736 347.031 472.584 346.866 472.317C346.701 472.049 346.618 471.684 346.618 471.221ZM349.994 469.288C349.994 468.942 349.933 468.676 349.812 468.489C349.691 468.302 349.526 468.202 349.317 468.188C349.114 468.165 348.888 468.225 348.641 468.368C348.393 468.51 348.168 468.707 347.964 468.958C347.761 469.209 347.598 469.497 347.477 469.823C347.356 470.15 347.295 470.486 347.295 470.832C347.295 471.183 347.356 471.455 347.477 471.647C347.598 471.834 347.761 471.939 347.964 471.961C348.168 471.978 348.393 471.915 348.641 471.773C348.888 471.631 349.114 471.434 349.317 471.183C349.526 470.924 349.691 470.631 349.812 470.305C349.933 469.973 349.994 469.634 349.994 469.288Z" fill="white"/>
<path d="M352.589 466.139L352.589 468.841C352.589 469.064 352.631 469.2 352.713 469.247C352.795 469.289 352.939 469.251 353.142 469.134L353.63 468.854L353.63 469.498L353.033 469.841C352.665 470.053 352.388 470.114 352.204 470.025C352.02 469.936 351.927 469.668 351.927 469.222L351.927 466.52L351.411 466.817L351.411 466.189L351.927 465.892L351.927 464.737L352.589 464.357L352.589 465.511L353.63 464.913L353.63 465.541L352.589 466.139Z" fill="white"/>
<path d="M354.184 466.87C354.184 466.401 354.267 465.944 354.432 465.498C354.597 465.046 354.822 464.64 355.108 464.28C355.399 463.918 355.722 463.635 356.076 463.431C356.425 463.23 356.728 463.143 356.985 463.168C357.242 463.193 357.434 463.3 357.56 463.49L357.56 462.653L358.229 462.268L358.229 466.853L357.56 467.238L357.56 466.385C357.429 466.728 357.232 467.064 356.971 467.393C356.714 467.714 356.413 467.973 356.068 468.171C355.714 468.374 355.394 468.458 355.108 468.422C354.822 468.386 354.597 468.234 354.432 467.966C354.267 467.698 354.184 467.333 354.184 466.87ZM357.56 464.937C357.56 464.591 357.499 464.325 357.378 464.138C357.257 463.951 357.092 463.851 356.883 463.837C356.68 463.815 356.454 463.875 356.207 464.017C355.959 464.159 355.734 464.356 355.53 464.607C355.326 464.858 355.164 465.146 355.043 465.473C354.922 465.799 354.861 466.135 354.861 466.481C354.861 466.832 354.922 467.104 355.043 467.297C355.164 467.483 355.326 467.588 355.53 467.61C355.734 467.627 355.959 467.564 356.207 467.422C356.454 467.28 356.68 467.083 356.883 466.832C357.092 466.573 357.257 466.28 357.378 465.954C357.499 465.622 357.56 465.283 357.56 464.937Z" fill="white"/>
<path d="M362.112 461.232L362.112 461.876L359.21 463.545L359.21 462.901L362.112 461.232Z" fill="white"/>
<path d="M363.107 461.128C363.107 460.559 363.219 459.985 363.442 459.404C363.665 458.819 363.968 458.287 364.351 457.811C364.739 457.331 365.168 456.956 365.639 456.685C366.192 456.367 366.674 456.243 367.086 456.313C367.499 456.383 367.799 456.645 367.988 457.099L367.195 457.555C367.055 457.285 366.851 457.132 366.584 457.095C366.323 457.056 366.007 457.143 365.639 457.355C365.285 457.558 364.967 457.836 364.686 458.187C364.404 458.538 364.184 458.936 364.024 459.379C363.864 459.817 363.784 460.27 363.784 460.739C363.784 461.202 363.864 461.563 364.024 461.822C364.184 462.076 364.404 462.217 364.686 462.245C364.967 462.273 365.285 462.185 365.639 461.981C366.007 461.769 366.323 461.496 366.584 461.161C366.851 460.818 367.055 460.431 367.195 459.998L367.988 459.542C367.799 460.209 367.499 460.814 367.086 461.358C366.674 461.896 366.192 462.324 365.639 462.642C365.168 462.913 364.739 463.034 364.351 463.006C363.968 462.97 363.665 462.79 363.442 462.467C363.219 462.143 363.107 461.697 363.107 461.128Z" fill="white"/>
<path d="M372.611 456.114C372.611 456.259 372.604 456.417 372.589 456.587L369.403 458.419C369.427 458.857 369.561 459.135 369.803 459.252C370.05 459.361 370.349 459.315 370.698 459.114C370.984 458.949 371.222 458.737 371.411 458.478C371.605 458.21 371.741 457.926 371.818 457.625L372.531 457.215C372.424 457.717 372.211 458.199 371.891 458.662C371.571 459.119 371.173 459.485 370.698 459.758C370.32 459.976 369.98 460.073 369.679 460.051C369.384 460.026 369.151 459.884 368.981 459.624C368.811 459.359 368.727 458.99 368.727 458.516C368.727 458.042 368.809 457.579 368.974 457.127C369.139 456.675 369.369 456.269 369.665 455.909C369.966 455.541 370.31 455.246 370.698 455.023C371.076 454.805 371.411 454.707 371.702 454.73C371.993 454.752 372.216 454.886 372.371 455.131C372.531 455.368 372.611 455.696 372.611 456.114ZM371.927 456.349C371.927 456.059 371.872 455.843 371.76 455.7C371.648 455.552 371.496 455.481 371.302 455.487C371.113 455.484 370.902 455.55 370.669 455.684C370.334 455.876 370.048 456.163 369.81 456.545C369.578 456.925 369.444 457.342 369.41 457.796L371.927 456.349Z" fill="white"/>
<path d="M375.427 452.295C375.912 452.016 376.305 451.96 376.606 452.127C376.906 452.289 377.057 452.688 377.057 453.324L377.057 456.026L376.402 456.403L376.402 453.809C376.402 453.352 376.303 453.06 376.104 452.935C375.905 452.804 375.633 452.837 375.289 453.035C374.94 453.236 374.661 453.522 374.452 453.893C374.249 454.261 374.147 454.685 374.147 455.164L374.147 457.699L373.485 458.08L373.485 453.495L374.147 453.114L374.147 453.767C374.278 453.458 374.455 453.174 374.678 452.918C374.906 452.659 375.156 452.451 375.427 452.295Z" fill="white"/>
<path d="M378.946 450.982L378.946 453.685C378.946 453.908 378.987 454.043 379.069 454.091C379.152 454.133 379.295 454.095 379.499 453.978L379.986 453.697L379.986 454.342L379.389 454.685C379.021 454.897 378.744 454.958 378.56 454.869C378.376 454.78 378.284 454.512 378.284 454.066L378.284 451.363L377.767 451.66L377.767 451.033L378.284 450.736L378.284 449.581L378.946 449.2L378.946 450.355L379.986 449.757L379.986 450.384L378.946 450.982Z" fill="white"/>
<path d="M381.45 449.659C381.566 449.33 381.731 449.032 381.945 448.764C382.163 448.494 382.427 448.269 382.738 448.091L382.738 448.877L382.563 448.978C381.821 449.404 381.45 450.081 381.45 451.006L381.45 453.5L380.788 453.88L380.788 449.295L381.45 448.915L381.45 449.659Z" fill="white"/>
<path d="M383.844 446.794C383.718 446.866 383.611 446.877 383.524 446.827C383.436 446.777 383.393 446.679 383.393 446.534C383.393 446.389 383.436 446.241 383.524 446.091C383.611 445.94 383.718 445.829 383.844 445.756C383.965 445.686 384.067 445.678 384.149 445.731C384.237 445.781 384.28 445.879 384.28 446.024C384.28 446.169 384.237 446.317 384.149 446.467C384.067 446.615 383.965 446.724 383.844 446.794ZM384.164 447.354L384.164 451.939L383.502 452.32L383.502 447.735L384.164 447.354Z" fill="white"/>
<path d="M385.045 449.132C385.045 448.658 385.127 448.197 385.292 447.751C385.457 447.299 385.685 446.892 385.976 446.53C386.272 446.164 386.609 445.873 386.987 445.655C387.477 445.374 387.879 445.279 388.195 445.371C388.515 445.46 388.726 445.718 388.827 446.145L388.115 446.555C388.047 446.315 387.913 446.171 387.714 446.124C387.52 446.074 387.278 446.132 386.987 446.3C386.609 446.517 386.303 446.843 386.07 447.279C385.838 447.708 385.721 448.196 385.721 448.743C385.721 449.295 385.838 449.655 386.07 449.822C386.303 449.989 386.609 449.964 386.987 449.747C387.278 449.579 387.52 449.362 387.714 449.094C387.908 448.826 388.042 448.527 388.115 448.195L388.827 447.785C388.721 448.315 388.507 448.814 388.187 449.282C387.867 449.745 387.467 450.115 386.987 450.391C386.609 450.608 386.272 450.705 385.976 450.68C385.685 450.652 385.457 450.507 385.292 450.245C385.127 449.982 385.045 449.611 385.045 449.132Z" fill="white"/>
<path d="M394.647 444.614L392.436 445.885L392.028 447.416L391.33 447.818L393.163 440.966L393.927 440.527L395.753 445.275L395.055 445.676L394.647 444.614ZM394.458 444.103L393.542 441.685L392.625 445.157L394.458 444.103Z" fill="white"/>
<path d="M397.214 438.603L397.214 444.434L396.552 444.815L396.552 438.984L397.214 438.603Z" fill="white"/>
<path d="M341.475 486.118C341.475 485.549 341.587 484.974 341.81 484.394C342.033 483.808 342.336 483.277 342.719 482.8C343.107 482.321 343.536 481.945 344.007 481.675C344.56 481.357 345.042 481.233 345.454 481.303C345.867 481.372 346.167 481.635 346.356 482.089L345.563 482.545C345.423 482.275 345.219 482.121 344.952 482.085C344.69 482.046 344.375 482.132 344.007 482.344C343.653 482.548 343.335 482.825 343.054 483.177C342.772 483.528 342.552 483.926 342.392 484.369C342.232 484.807 342.152 485.26 342.152 485.729C342.152 486.192 342.232 486.553 342.392 486.812C342.552 487.066 342.772 487.207 343.054 487.235C343.335 487.262 343.653 487.175 344.007 486.971C344.375 486.759 344.69 486.486 344.952 486.151C345.219 485.808 345.423 485.42 345.563 484.988L346.356 484.532C346.167 485.199 345.867 485.804 345.454 486.348C345.042 486.886 344.56 487.314 344.007 487.632C343.536 487.903 343.107 488.024 342.719 487.996C342.336 487.96 342.033 487.78 341.81 487.456C341.587 487.133 341.475 486.687 341.475 486.118Z" fill="white"/>
<path d="M349.08 484.739C348.707 484.954 348.368 485.052 348.062 485.032C347.761 485.01 347.524 484.87 347.349 484.614C347.179 484.349 347.094 483.979 347.094 483.505C347.094 483.037 347.182 482.574 347.356 482.116C347.536 481.651 347.778 481.235 348.084 480.87C348.389 480.499 348.731 480.205 349.11 479.987C349.488 479.77 349.83 479.671 350.135 479.69C350.441 479.704 350.681 479.839 350.855 480.096C351.035 480.35 351.125 480.714 351.125 481.188C351.125 481.662 351.032 482.133 350.848 482.602C350.669 483.062 350.424 483.479 350.113 483.853C349.803 484.226 349.459 484.522 349.08 484.739ZM349.08 484.07C349.318 483.933 349.541 483.741 349.75 483.493C349.958 483.245 350.126 482.956 350.252 482.627C350.383 482.295 350.448 481.945 350.448 481.577C350.448 481.209 350.385 480.933 350.259 480.749C350.133 480.564 349.968 480.47 349.764 480.464C349.561 480.453 349.34 480.516 349.102 480.652C348.86 480.792 348.637 480.984 348.433 481.23C348.234 481.467 348.074 481.748 347.953 482.075C347.832 482.401 347.771 482.748 347.771 483.116C347.771 483.49 347.829 483.772 347.946 483.961C348.067 484.148 348.227 484.249 348.426 484.263C348.625 484.271 348.843 484.207 349.08 484.07Z" fill="white"/>
<path d="M356.789 475.563C357.099 475.384 357.376 475.301 357.618 475.312C357.861 475.317 358.052 475.427 358.193 475.642C358.334 475.857 358.404 476.176 358.404 476.6L358.404 479.303L357.749 479.679L357.749 477.085C357.749 476.628 357.65 476.337 357.451 476.211C357.257 476.077 356.993 476.106 356.658 476.299C356.314 476.497 356.04 476.783 355.836 477.157C355.632 477.525 355.53 477.949 355.53 478.428L355.53 480.955L354.876 481.331L354.876 478.738C354.876 478.28 354.776 477.989 354.577 477.863C354.383 477.73 354.119 477.759 353.785 477.951C353.44 478.149 353.166 478.435 352.963 478.809C352.759 479.177 352.657 479.601 352.657 480.081L352.657 482.607L351.995 482.988L351.995 478.403L352.657 478.022L352.657 478.683C352.788 478.368 352.963 478.084 353.181 477.83C353.404 477.573 353.649 477.368 353.915 477.215C354.25 477.023 354.546 476.939 354.803 476.964C355.06 476.989 355.252 477.133 355.378 477.395C355.489 477.007 355.674 476.65 355.931 476.324C356.188 475.998 356.474 475.744 356.789 475.563Z" fill="white"/>
<path d="M364.284 471.253C364.594 471.074 364.871 470.991 365.113 471.002C365.356 471.007 365.547 471.117 365.688 471.332C365.828 471.547 365.899 471.866 365.899 472.29L365.899 474.993L365.244 475.369L365.244 472.775C365.244 472.318 365.145 472.027 364.946 471.901C364.752 471.767 364.488 471.797 364.153 471.989C363.809 472.187 363.535 472.473 363.331 472.847C363.127 473.215 363.025 473.639 363.025 474.118L363.025 476.645L362.371 477.022L362.371 474.428C362.371 473.97 362.271 473.679 362.072 473.554C361.878 473.42 361.614 473.449 361.279 473.641C360.935 473.839 360.661 474.125 360.457 474.499C360.254 474.867 360.152 475.291 360.152 475.771L360.152 478.297L359.49 478.678L359.49 474.093L360.152 473.712L360.152 474.373C360.283 474.058 360.457 473.774 360.676 473.52C360.899 473.263 361.144 473.058 361.41 472.905C361.745 472.713 362.041 472.629 362.298 472.654C362.555 472.679 362.746 472.823 362.873 473.085C362.984 472.697 363.168 472.34 363.425 472.014C363.682 471.688 363.969 471.434 364.284 471.253Z" fill="white"/>
<path d="M370.52 467.75L370.52 472.335L369.858 472.716L369.858 472.038C369.732 472.345 369.555 472.631 369.327 472.896C369.104 473.152 368.857 473.359 368.585 473.515C368.275 473.693 367.996 473.781 367.749 473.778C367.501 473.77 367.305 473.66 367.159 473.448C367.019 473.233 366.948 472.914 366.948 472.49L366.948 469.804L367.603 469.428L367.603 472.013C367.603 472.465 367.702 472.756 367.901 472.887C368.1 473.013 368.372 472.976 368.716 472.778C369.07 472.575 369.349 472.289 369.553 471.921C369.756 471.553 369.858 471.129 369.858 470.649L369.858 468.131L370.52 467.75Z" fill="white"/>
<path d="M373.58 465.907C374.065 465.628 374.458 465.572 374.759 465.739C375.059 465.901 375.21 466.3 375.21 466.936L375.21 469.638L374.555 470.015L374.555 467.421C374.555 466.964 374.456 466.672 374.257 466.547C374.058 466.416 373.786 466.449 373.442 466.647C373.093 466.848 372.814 467.134 372.605 467.505C372.402 467.873 372.3 468.297 372.3 468.776L372.3 471.312L371.638 471.692L371.638 467.107L372.3 466.727L372.3 467.379C372.431 467.07 372.608 466.787 372.831 466.53C373.059 466.271 373.309 466.063 373.58 465.907Z" fill="white"/>
<path d="M376.633 463.49C376.507 463.563 376.4 463.574 376.313 463.524C376.226 463.473 376.182 463.376 376.182 463.231C376.182 463.086 376.226 462.938 376.313 462.787C376.4 462.637 376.507 462.525 376.633 462.453C376.754 462.383 376.856 462.375 376.939 462.428C377.026 462.478 377.069 462.575 377.069 462.72C377.069 462.866 377.026 463.013 376.939 463.164C376.856 463.312 376.754 463.421 376.633 463.49ZM376.953 464.051L376.953 468.636L376.291 469.016L376.291 464.431L376.953 464.051Z" fill="white"/>
<path d="M378.889 463.565L378.889 466.268C378.889 466.491 378.93 466.626 379.012 466.673C379.095 466.715 379.238 466.678 379.442 466.56L379.929 466.28L379.929 466.924L379.333 467.267C378.964 467.479 378.688 467.541 378.503 467.451C378.319 467.362 378.227 467.094 378.227 466.648L378.227 463.946L377.71 464.243L377.71 463.615L378.227 463.318L378.227 462.164L378.889 461.783L378.889 462.938L379.929 462.339L379.929 462.967L378.889 463.565Z" fill="white"/>
<path d="M384.165 459.904L381.764 468.028L381.08 468.421L381.866 465.76L380.258 462.15L380.993 461.728L382.244 464.723L383.481 460.297L384.165 459.904Z" fill="white"/>
<path fill-rule="evenodd" clip-rule="evenodd" d="M323.816 359.381H324.933C325.188 359.381 325.433 359.482 325.613 359.663C325.794 359.843 325.895 360.088 325.895 360.343V366.889C325.895 367.144 325.794 367.389 325.613 367.57C325.433 367.75 325.188 367.852 324.933 367.852H314.536C314.281 367.852 314.036 367.75 313.856 367.57C313.675 367.389 313.574 367.144 313.574 366.889V360.343C313.574 360.088 313.675 359.843 313.856 359.663C314.036 359.482 314.281 359.381 314.536 359.381H315.653C315.537 359.136 315.484 358.866 315.5 358.595C315.515 358.324 315.598 358.062 315.742 357.832C315.885 357.602 316.084 357.412 316.32 357.279C316.556 357.145 316.822 357.074 317.093 357.07C317.892 357.051 318.67 357.325 319.28 357.84C319.454 357.992 319.606 358.165 319.735 358.356C319.863 358.165 320.016 357.992 320.189 357.84C320.799 357.325 321.577 357.051 322.376 357.07C322.647 357.074 322.913 357.145 323.149 357.279C323.385 357.412 323.584 357.602 323.727 357.832C323.871 358.062 323.954 358.324 323.969 358.595C323.985 358.866 323.932 359.136 323.816 359.381ZM322.368 358.033C321.807 358.017 321.26 358.206 320.828 358.564C320.587 358.772 320.407 359.041 320.304 359.342H322.368C322.542 359.342 322.708 359.273 322.831 359.15C322.954 359.028 323.023 358.861 323.023 358.688C323.023 358.514 322.954 358.347 322.831 358.225C322.708 358.102 322.542 358.033 322.368 358.033ZM318.633 358.564C318.201 358.206 317.654 358.017 317.093 358.033V358.025C316.919 358.025 316.753 358.094 316.63 358.217C316.507 358.34 316.438 358.506 316.438 358.68C316.438 358.853 316.507 359.02 316.63 359.143C316.753 359.265 316.919 359.334 317.093 359.334H319.157C319.054 359.036 318.873 358.77 318.633 358.564ZM324.933 361.306V360.343H314.536V361.306H324.933ZM314.536 363.231V366.889H324.933V363.231H314.536ZM317.039 364.964H315.499V365.926H317.039V364.964Z" fill="#E32212"/>
<path fill-rule="evenodd" clip-rule="evenodd" d="M326.897 276.723H328.013C328.269 276.723 328.513 276.825 328.694 277.005C328.874 277.186 328.976 277.431 328.976 277.686V284.232C328.976 284.487 328.874 284.732 328.694 284.913C328.513 285.093 328.269 285.194 328.013 285.194H317.617C317.362 285.194 317.117 285.093 316.936 284.913C316.756 284.732 316.654 284.487 316.654 284.232V277.686C316.654 277.431 316.756 277.186 316.936 277.005C317.117 276.825 317.362 276.723 317.617 276.723H318.734C318.617 276.478 318.565 276.208 318.58 275.938C318.596 275.667 318.679 275.405 318.822 275.175C318.966 274.945 319.165 274.754 319.401 274.621C319.637 274.488 319.903 274.417 320.174 274.413C320.972 274.394 321.75 274.668 322.361 275.183C322.534 275.335 322.687 275.508 322.815 275.699C322.943 275.508 323.096 275.335 323.269 275.183C323.88 274.668 324.658 274.394 325.457 274.413C325.728 274.417 325.993 274.488 326.229 274.621C326.466 274.754 326.665 274.945 326.808 275.175C326.951 275.405 327.035 275.667 327.05 275.938C327.066 276.208 327.013 276.478 326.897 276.723ZM325.449 275.376C324.888 275.36 324.34 275.549 323.909 275.907C323.668 276.115 323.487 276.384 323.385 276.685H325.449C325.622 276.685 325.789 276.616 325.912 276.493C326.034 276.37 326.103 276.204 326.103 276.03C326.103 275.857 326.034 275.69 325.912 275.567C325.789 275.445 325.622 275.376 325.449 275.376ZM321.714 275.907C321.282 275.549 320.735 275.36 320.174 275.376V275.368C320 275.368 319.834 275.437 319.711 275.56C319.588 275.682 319.519 275.849 319.519 276.023C319.519 276.196 319.588 276.363 319.711 276.485C319.834 276.608 320 276.677 320.174 276.677H322.238C322.134 276.379 321.953 276.113 321.714 275.907ZM328.013 278.649V277.686H317.617V278.649H328.013ZM317.617 280.574V284.232H328.013V280.574H317.617ZM320.12 282.307H318.58V283.269H320.12V282.307Z" fill="#E32212"/>
<path d="M283.081 311.5C282.618 311.104 282.03 310.893 281.426 310.908H277.544C277.367 310.913 277.191 310.881 277.026 310.814C276.862 310.748 276.712 310.648 276.586 310.521C276.46 310.394 276.361 310.242 276.293 310.075C276.226 309.908 276.193 309.728 276.195 309.547C276.191 309.477 276.191 309.407 276.195 309.336C276.247 309.013 276.413 308.721 276.661 308.514C276.91 308.307 277.224 308.199 277.544 308.212H281.368C281.68 308.212 281.982 308.325 282.22 308.53C282.458 308.736 282.616 309.022 282.667 309.336H283.909C283.857 308.684 283.567 308.077 283.096 307.633C282.625 307.19 282.008 306.944 281.368 306.944H280.06V305H279.026V306.944H277.544C276.904 306.944 276.287 307.19 275.816 307.633C275.345 308.077 275.055 308.684 275.003 309.336C274.999 309.407 274.999 309.477 275.003 309.547C275.003 309.888 275.069 310.226 275.197 310.541C275.324 310.855 275.511 311.141 275.747 311.382C276.224 311.869 276.87 312.142 277.544 312.142H281.467C281.643 312.138 281.818 312.169 281.981 312.235C282.145 312.3 282.294 312.399 282.419 312.524C282.545 312.649 282.645 312.799 282.713 312.964C282.781 313.129 282.816 313.307 282.816 313.486C282.825 313.582 282.825 313.678 282.816 313.774C282.751 314.071 282.588 314.337 282.355 314.527C282.122 314.718 281.832 314.822 281.534 314.822H277.643C277.345 314.822 277.055 314.718 276.822 314.527C276.589 314.337 276.426 314.071 276.36 313.774H275.111C275.182 314.409 275.479 314.995 275.946 315.421C276.413 315.846 277.017 316.081 277.643 316.081H279.026V318H280.06V316.081H281.467C282.093 316.081 282.697 315.846 283.164 315.421C283.631 314.995 283.929 314.409 284 313.774V313.486C283.999 313.107 283.916 312.732 283.757 312.389C283.599 312.045 283.368 311.742 283.081 311.5Z" fill="#E32212"/>
<path fill-rule="evenodd" clip-rule="evenodd" d="M238.079 206.388H239.195C239.451 206.388 239.696 206.489 239.876 206.67C240.057 206.85 240.158 207.095 240.158 207.351V213.896C240.158 214.152 240.057 214.397 239.876 214.577C239.696 214.758 239.451 214.859 239.195 214.859H228.799C228.544 214.859 228.299 214.758 228.118 214.577C227.938 214.397 227.836 214.152 227.836 213.896V207.351C227.836 207.095 227.938 206.85 228.118 206.67C228.299 206.489 228.544 206.388 228.799 206.388H229.916C229.799 206.143 229.747 205.873 229.762 205.602C229.778 205.332 229.861 205.069 230.004 204.839C230.148 204.609 230.347 204.419 230.583 204.286C230.819 204.153 231.085 204.081 231.356 204.078C232.154 204.058 232.933 204.332 233.543 204.848C233.716 204.999 233.869 205.173 233.997 205.364C234.125 205.173 234.278 204.999 234.452 204.848C235.062 204.332 235.84 204.058 236.639 204.078C236.91 204.081 237.175 204.153 237.412 204.286C237.648 204.419 237.847 204.609 237.99 204.839C238.133 205.069 238.217 205.332 238.232 205.602C238.248 205.873 238.195 206.143 238.079 206.388ZM236.631 205.04C236.07 205.024 235.523 205.213 235.091 205.572C234.85 205.78 234.669 206.048 234.567 206.349H236.631C236.805 206.349 236.971 206.28 237.094 206.158C237.217 206.035 237.286 205.868 237.286 205.695C237.286 205.521 237.217 205.355 237.094 205.232C236.971 205.109 236.805 205.04 236.631 205.04ZM232.896 205.572C232.464 205.213 231.917 205.024 231.356 205.04V205.033C231.182 205.033 231.016 205.102 230.893 205.224C230.77 205.347 230.701 205.514 230.701 205.687C230.701 205.861 230.77 206.027 230.893 206.15C231.016 206.273 231.182 206.342 231.356 206.342H233.42C233.316 206.043 233.136 205.778 232.896 205.572ZM239.195 208.313V207.351H228.799V208.313H239.195ZM228.799 210.238V213.896H239.195V210.238H228.799ZM231.302 211.971H229.762V212.934H231.302V211.971Z" fill="#E32212"/>
<g filter="url(#filter0_f_402_1517)">
<path d="M396.081 204C395.618 203.634 395.03 203.44 394.426 203.454H390.544C390.367 203.458 390.191 203.429 390.026 203.367C389.862 203.306 389.712 203.214 389.586 203.096C389.46 202.979 389.361 202.839 389.293 202.685C389.226 202.53 389.193 202.365 389.195 202.198C389.191 202.133 389.191 202.068 389.195 202.003C389.247 201.704 389.413 201.434 389.661 201.243C389.91 201.052 390.224 200.953 390.544 200.965H394.368C394.68 200.965 394.982 201.069 395.22 201.259C395.458 201.449 395.616 201.713 395.667 202.003H396.909C396.857 201.401 396.567 200.84 396.096 200.431C395.625 200.022 395.008 199.795 394.368 199.795H393.06V198H392.026V199.795H390.544C389.904 199.795 389.287 200.022 388.816 200.431C388.345 200.84 388.055 201.401 388.003 202.003C387.999 202.068 387.999 202.133 388.003 202.198C388.003 202.512 388.069 202.824 388.197 203.114C388.324 203.405 388.511 203.669 388.747 203.891C389.224 204.341 389.87 204.593 390.544 204.593H394.467C394.643 204.589 394.818 204.618 394.981 204.678C395.145 204.739 395.294 204.829 395.419 204.945C395.545 205.061 395.645 205.199 395.713 205.351C395.781 205.504 395.816 205.668 395.816 205.834C395.825 205.922 395.825 206.011 395.816 206.099C395.751 206.373 395.588 206.619 395.355 206.794C395.122 206.97 394.832 207.066 394.534 207.066H390.643C390.345 207.066 390.055 206.97 389.822 206.794C389.589 206.619 389.426 206.373 389.36 206.099H388.111C388.182 206.685 388.479 207.226 388.946 207.619C389.413 208.012 390.017 208.229 390.643 208.229H392.026V210H393.06V208.229H394.467C395.093 208.229 395.697 208.012 396.164 207.619C396.631 207.226 396.929 206.685 397 206.099V205.834C396.999 205.483 396.916 205.137 396.757 204.82C396.599 204.503 396.368 204.223 396.081 204Z" fill="#E32212"/>
</g>
<path fill-rule="evenodd" clip-rule="evenodd" d="M350.513 189.446H351.63C351.885 189.446 352.13 189.547 352.311 189.728C352.491 189.909 352.593 190.153 352.593 190.409V196.954C352.593 197.21 352.491 197.455 352.311 197.635C352.13 197.816 351.885 197.917 351.63 197.917H341.234C340.978 197.917 340.733 197.816 340.553 197.635C340.372 197.455 340.271 197.21 340.271 196.954V190.409C340.271 190.153 340.372 189.909 340.553 189.728C340.733 189.547 340.978 189.446 341.234 189.446H342.35C342.234 189.201 342.181 188.931 342.197 188.66C342.212 188.39 342.296 188.127 342.439 187.897C342.582 187.667 342.781 187.477 343.017 187.344C343.254 187.211 343.519 187.139 343.79 187.136C344.589 187.116 345.367 187.39 345.977 187.906C346.151 188.057 346.304 188.231 346.432 188.422C346.56 188.231 346.713 188.057 346.886 187.906C347.496 187.39 348.275 187.116 349.073 187.136C349.344 187.139 349.61 187.211 349.846 187.344C350.082 187.477 350.281 187.667 350.425 187.897C350.568 188.127 350.651 188.39 350.667 188.66C350.682 188.931 350.629 189.201 350.513 189.446ZM349.066 188.098C348.505 188.083 347.957 188.271 347.525 188.63C347.285 188.838 347.104 189.106 347.002 189.408H349.066C349.239 189.408 349.406 189.339 349.528 189.216C349.651 189.093 349.72 188.927 349.72 188.753C349.72 188.579 349.651 188.413 349.528 188.29C349.406 188.167 349.239 188.098 349.066 188.098ZM345.331 188.63C344.899 188.271 344.351 188.083 343.79 188.098V188.091C343.617 188.091 343.45 188.16 343.327 188.282C343.205 188.405 343.136 188.572 343.136 188.745C343.136 188.919 343.205 189.085 343.327 189.208C343.45 189.331 343.617 189.4 343.79 189.4H345.854C345.751 189.101 345.57 188.836 345.331 188.63ZM351.63 191.371V190.409H341.234V191.371H351.63ZM341.234 193.297V196.954H351.63V193.297H341.234ZM343.737 195.029H342.196V195.992H343.737V195.029Z" fill="#E32212"/>
<path fill-rule="evenodd" clip-rule="evenodd" d="M420.242 343.311H421.359C421.614 343.311 421.859 343.413 422.04 343.593C422.22 343.774 422.322 344.019 422.322 344.274V350.82C422.322 351.075 422.22 351.32 422.04 351.5C421.859 351.681 421.614 351.782 421.359 351.782H410.963C410.707 351.782 410.462 351.681 410.282 351.5C410.101 351.32 410 351.075 410 350.82V344.274C410 344.019 410.101 343.774 410.282 343.593C410.462 343.413 410.707 343.311 410.963 343.311H412.079C411.963 343.066 411.91 342.796 411.926 342.526C411.941 342.255 412.025 341.993 412.168 341.763C412.311 341.533 412.51 341.342 412.746 341.209C412.983 341.076 413.248 341.004 413.519 341.001C414.318 340.981 415.096 341.255 415.706 341.771C415.88 341.922 416.033 342.096 416.161 342.287C416.289 342.096 416.442 341.922 416.615 341.771C417.225 341.255 418.004 340.981 418.802 341.001C419.073 341.004 419.339 341.076 419.575 341.209C419.811 341.342 420.01 341.533 420.154 341.763C420.297 341.993 420.38 342.255 420.396 342.526C420.411 342.796 420.358 343.066 420.242 343.311ZM418.795 341.964C418.234 341.948 417.686 342.137 417.254 342.495C417.014 342.703 416.833 342.971 416.731 343.273H418.795C418.968 343.273 419.135 343.204 419.257 343.081C419.38 342.958 419.449 342.792 419.449 342.618C419.449 342.445 419.38 342.278 419.257 342.155C419.135 342.033 418.968 341.964 418.795 341.964ZM415.06 342.495C414.628 342.137 414.08 341.948 413.519 341.964V341.956C413.346 341.956 413.179 342.025 413.056 342.148C412.934 342.27 412.865 342.437 412.865 342.61C412.865 342.784 412.934 342.951 413.056 343.073C413.179 343.196 413.346 343.265 413.519 343.265H415.583C415.48 342.967 415.299 342.701 415.06 342.495ZM421.359 345.237V344.274H410.963V345.237H421.359ZM410.963 347.162V350.82H421.359V347.162H410.963ZM413.466 348.894H411.925V349.857H413.466V348.894Z" fill="#E32212"/>
<g filter="url(#filter1_f_402_1517)">
<path fill-rule="evenodd" clip-rule="evenodd" d="M247.32 352.707H248.437C248.692 352.707 248.937 352.808 249.117 352.989C249.298 353.169 249.399 353.414 249.399 353.669V360.215C249.399 360.471 249.298 360.715 249.117 360.896C248.937 361.076 248.692 361.178 248.437 361.178H238.04C237.785 361.178 237.54 361.076 237.36 360.896C237.179 360.715 237.078 360.471 237.078 360.215V353.669C237.078 353.414 237.179 353.169 237.36 352.989C237.54 352.808 237.785 352.707 238.04 352.707H239.157C239.041 352.462 238.988 352.192 239.003 351.921C239.019 351.65 239.102 351.388 239.246 351.158C239.389 350.928 239.588 350.738 239.824 350.605C240.06 350.472 240.326 350.4 240.597 350.396C241.396 350.377 242.174 350.651 242.784 351.167C242.957 351.318 243.11 351.491 243.238 351.683C243.367 351.491 243.519 351.318 243.693 351.167C244.303 350.651 245.081 350.377 245.88 350.396C246.151 350.4 246.417 350.472 246.653 350.605C246.889 350.738 247.088 350.928 247.231 351.158C247.375 351.388 247.458 351.65 247.473 351.921C247.489 352.192 247.436 352.462 247.32 352.707ZM245.872 351.359C245.311 351.343 244.764 351.532 244.332 351.89C244.091 352.098 243.91 352.367 243.808 352.668H245.872C246.046 352.668 246.212 352.599 246.335 352.477C246.458 352.354 246.527 352.187 246.527 352.014C246.527 351.84 246.458 351.674 246.335 351.551C246.212 351.428 246.046 351.359 245.872 351.359ZM242.137 351.89C241.705 351.532 241.158 351.343 240.597 351.359V351.351C240.423 351.351 240.257 351.42 240.134 351.543C240.011 351.666 239.942 351.832 239.942 352.006C239.942 352.18 240.011 352.346 240.134 352.469C240.257 352.592 240.423 352.661 240.597 352.661H242.661C242.557 352.362 242.377 352.096 242.137 351.89ZM248.437 354.632V353.669H238.04V354.632H248.437ZM238.04 356.557V360.215H248.437V356.557H238.04ZM240.543 358.29H239.003V359.253H240.543V358.29Z" fill="#E32212"/>
</g>
<path d="M249.183 144C248.772 143.634 248.249 143.44 247.712 143.454H244.261C244.104 143.458 243.948 143.429 243.801 143.367C243.655 143.306 243.522 143.214 243.41 143.096C243.298 142.979 243.209 142.839 243.15 142.685C243.09 142.53 243.06 142.365 243.062 142.198C243.058 142.133 243.058 142.068 243.062 142.003C243.109 141.704 243.256 141.434 243.477 141.243C243.698 141.052 243.977 140.953 244.261 140.965H247.66C247.938 140.965 248.206 141.069 248.418 141.259C248.629 141.449 248.77 141.713 248.815 142.003H249.919C249.873 141.401 249.615 140.84 249.196 140.431C248.778 140.022 248.23 139.795 247.66 139.795H246.498V138H245.578V139.795H244.261C243.692 139.795 243.144 140.022 242.725 140.431C242.307 140.84 242.049 141.401 242.003 142.003C241.999 142.068 241.999 142.133 242.003 142.198C242.003 142.512 242.061 142.824 242.175 143.114C242.288 143.405 242.455 143.669 242.664 143.891C243.088 144.341 243.662 144.593 244.261 144.593H247.749C247.905 144.589 248.06 144.618 248.205 144.678C248.351 144.739 248.483 144.829 248.595 144.945C248.707 145.061 248.796 145.199 248.856 145.351C248.917 145.504 248.948 145.668 248.948 145.834C248.956 145.922 248.956 146.011 248.948 146.099C248.89 146.373 248.745 146.619 248.538 146.794C248.33 146.97 248.073 147.066 247.808 147.066H244.35C244.084 147.066 243.827 146.97 243.62 146.794C243.412 146.619 243.268 146.373 243.209 146.099H242.098C242.162 146.685 242.426 147.226 242.841 147.619C243.256 148.012 243.793 148.229 244.35 148.229H245.578V150H246.498V148.229H247.749C248.305 148.229 248.842 148.012 249.257 147.619C249.672 147.226 249.937 146.685 250 146.099V145.834C249.999 145.483 249.925 145.137 249.784 144.82C249.643 144.503 249.438 144.223 249.183 144Z" fill="#E32212"/>
<g filter="url(#filter2_f_402_1517)">
<path fill-rule="evenodd" clip-rule="evenodd" d="M243.213 274.156H244.33C244.585 274.156 244.83 274.258 245.01 274.438C245.191 274.619 245.292 274.864 245.292 275.119V281.665C245.292 281.92 245.191 282.165 245.01 282.346C244.83 282.526 244.585 282.628 244.33 282.628H233.933C233.678 282.628 233.433 282.526 233.253 282.346C233.072 282.165 232.971 281.92 232.971 281.665V275.119C232.971 274.864 233.072 274.619 233.253 274.438C233.433 274.258 233.678 274.156 233.933 274.156H235.05C234.934 273.912 234.881 273.641 234.896 273.371C234.912 273.1 234.995 272.838 235.139 272.608C235.282 272.378 235.481 272.187 235.717 272.054C235.953 271.921 236.219 271.85 236.49 271.846C237.289 271.827 238.067 272.101 238.677 272.616C238.85 272.768 239.003 272.941 239.131 273.132C239.26 272.941 239.412 272.768 239.586 272.616C240.196 272.101 240.974 271.827 241.773 271.846C242.044 271.85 242.31 271.921 242.546 272.054C242.782 272.187 242.981 272.378 243.124 272.608C243.268 272.838 243.351 273.1 243.366 273.371C243.382 273.641 243.329 273.912 243.213 274.156ZM241.765 272.809C241.204 272.793 240.657 272.982 240.225 273.34C239.984 273.548 239.804 273.817 239.701 274.118H241.765C241.939 274.118 242.105 274.049 242.228 273.926C242.351 273.803 242.42 273.637 242.42 273.463C242.42 273.29 242.351 273.123 242.228 273.001C242.105 272.878 241.939 272.809 241.765 272.809ZM238.03 273.34C237.598 272.982 237.051 272.793 236.49 272.809V272.801C236.316 272.801 236.15 272.87 236.027 272.993C235.904 273.116 235.835 273.282 235.835 273.456C235.835 273.629 235.904 273.796 236.027 273.919C236.15 274.041 236.316 274.11 236.49 274.11H238.554C238.451 273.812 238.27 273.546 238.03 273.34ZM244.33 276.082V275.119H233.933V276.082H244.33ZM233.933 278.007V281.665H244.33V278.007H233.933ZM236.436 279.74H234.896V280.702H236.436V279.74Z" fill="#E32212"/>
</g>
<g filter="url(#filter3_f_402_1517)">
<path d="M360.081 90C359.618 89.6342 359.03 89.44 358.426 89.4538H354.544C354.367 89.458 354.191 89.4286 354.026 89.3671C353.862 89.3057 353.712 89.2136 353.586 89.0963C353.46 88.979 353.361 88.839 353.293 88.6845C353.226 88.5301 353.193 88.3645 353.195 88.1977C353.191 88.1327 353.191 88.0676 353.195 88.0026C353.247 87.7044 353.413 87.4344 353.661 87.2433C353.91 87.0523 354.224 86.9533 354.544 86.9649H358.368C358.68 86.9646 358.982 87.0688 359.22 87.2589C359.458 87.4489 359.616 87.7125 359.667 88.0026H360.909C360.857 87.401 360.567 86.8398 360.096 86.4307C359.625 86.0216 359.008 85.7945 358.368 85.7945H357.06V84H356.026V85.7945H354.544C353.904 85.7945 353.287 86.0216 352.816 86.4307C352.345 86.8398 352.055 87.401 352.003 88.0026C351.999 88.0676 351.999 88.1327 352.003 88.1977C352.003 88.5122 352.069 88.8237 352.197 89.1143C352.324 89.4049 352.511 89.669 352.747 89.8914C353.224 90.3406 353.87 90.593 354.544 90.593H358.467C358.643 90.5888 358.818 90.6178 358.981 90.6783C359.145 90.7388 359.294 90.8295 359.419 90.9451C359.545 91.0607 359.645 91.1989 359.713 91.3515C359.781 91.5041 359.816 91.668 359.816 91.8336C359.825 91.9218 359.825 92.0106 359.816 92.0988C359.751 92.3734 359.588 92.6187 359.355 92.7945C359.122 92.9703 358.832 93.0661 358.534 93.0663H354.643C354.345 93.0661 354.055 92.9703 353.822 92.7945C353.589 92.6187 353.426 92.3734 353.36 92.0988H352.111C352.182 92.6851 352.479 93.2261 352.946 93.6189C353.413 94.0118 354.017 94.2289 354.643 94.2289H356.026V96H357.06V94.2289H358.467C359.093 94.2289 359.697 94.0118 360.164 93.6189C360.631 93.2261 360.929 92.6851 361 92.0988V91.8336C360.999 91.4831 360.916 91.1371 360.757 90.8203C360.599 90.5034 360.368 90.2233 360.081 90Z" fill="#E32212"/>
</g>
<g filter="url(#filter4_f_402_1517)">
<path fill-rule="evenodd" clip-rule="evenodd" d="M464.242 184.311H465.359C465.614 184.311 465.859 184.413 466.04 184.593C466.22 184.774 466.322 185.019 466.322 185.274V191.82C466.322 192.075 466.22 192.32 466.04 192.5C465.859 192.681 465.614 192.782 465.359 192.782H454.963C454.707 192.782 454.462 192.681 454.282 192.5C454.101 192.32 454 192.075 454 191.82V185.274C454 185.019 454.101 184.774 454.282 184.593C454.462 184.413 454.707 184.311 454.963 184.311H456.079C455.963 184.066 455.91 183.796 455.926 183.526C455.941 183.255 456.025 182.993 456.168 182.763C456.311 182.533 456.51 182.342 456.746 182.209C456.983 182.076 457.248 182.004 457.519 182.001C458.318 181.981 459.096 182.255 459.706 182.771C459.88 182.922 460.033 183.096 460.161 183.287C460.289 183.096 460.442 182.922 460.615 182.771C461.225 182.255 462.004 181.981 462.802 182.001C463.073 182.004 463.339 182.076 463.575 182.209C463.811 182.342 464.01 182.533 464.154 182.763C464.297 182.993 464.38 183.255 464.396 183.526C464.411 183.796 464.358 184.066 464.242 184.311ZM462.795 182.964C462.234 182.948 461.686 183.137 461.254 183.495C461.014 183.703 460.833 183.971 460.731 184.273H462.795C462.968 184.273 463.135 184.204 463.257 184.081C463.38 183.958 463.449 183.792 463.449 183.618C463.449 183.445 463.38 183.278 463.257 183.155C463.135 183.033 462.968 182.964 462.795 182.964ZM459.06 183.495C458.628 183.137 458.08 182.948 457.519 182.964V182.956C457.346 182.956 457.179 183.025 457.056 183.148C456.934 183.27 456.865 183.437 456.865 183.61C456.865 183.784 456.934 183.951 457.056 184.073C457.179 184.196 457.346 184.265 457.519 184.265H459.583C459.48 183.967 459.299 183.701 459.06 183.495ZM465.359 186.237V185.274H454.963V186.237H465.359ZM454.963 188.162V191.82H465.359V188.162H454.963ZM457.466 189.894H455.925V190.857H457.466V189.894Z" fill="#E32212"/>
</g>
<g filter="url(#filter5_f_402_1517)">
<path fill-rule="evenodd" clip-rule="evenodd" d="M238.035 98.6775H239.151C239.407 98.6775 239.652 98.7789 239.832 98.9594C240.013 99.14 240.114 99.3848 240.114 99.6401V106.186C240.114 106.441 240.013 106.686 239.832 106.867C239.652 107.047 239.407 107.149 239.151 107.149H228.755C228.5 107.149 228.255 107.047 228.074 106.867C227.894 106.686 227.792 106.441 227.792 106.186V99.6401C227.792 99.3848 227.894 99.14 228.074 98.9594C228.255 98.7789 228.5 98.6775 228.755 98.6775H229.872C229.756 98.4326 229.703 98.1624 229.718 97.8918C229.734 97.6212 229.817 97.3588 229.96 97.1288C230.104 96.8988 230.303 96.7085 230.539 96.5754C230.775 96.4423 231.041 96.3707 231.312 96.3672C232.111 96.3477 232.889 96.6217 233.499 97.1373C233.672 97.2887 233.825 97.4621 233.953 97.6532C234.082 97.4621 234.234 97.2887 234.408 97.1373C235.018 96.6217 235.796 96.3477 236.595 96.3672C236.866 96.3707 237.132 96.4423 237.368 96.5754C237.604 96.7085 237.803 96.8988 237.946 97.1288C238.089 97.3588 238.173 97.6212 238.188 97.8918C238.204 98.1624 238.151 98.4326 238.035 98.6775ZM236.587 97.3298C236.026 97.314 235.479 97.5029 235.047 97.8612C234.806 98.0692 234.625 98.3377 234.523 98.639H236.587C236.761 98.639 236.927 98.57 237.05 98.4473C237.173 98.3245 237.242 98.158 237.242 97.9844C237.242 97.8108 237.173 97.6443 237.05 97.5215C236.927 97.3988 236.761 97.3298 236.587 97.3298ZM232.852 97.8612C232.42 97.5029 231.873 97.314 231.312 97.3298V97.3221C231.138 97.3221 230.972 97.3911 230.849 97.5138C230.726 97.6366 230.657 97.8031 230.657 97.9767C230.657 98.1503 230.726 98.3168 230.849 98.4395C230.972 98.5623 231.138 98.6313 231.312 98.6313H233.376C233.272 98.3328 233.092 98.0671 232.852 97.8612ZM239.151 100.603V99.6401H228.755V100.603H239.151ZM228.755 102.528V106.186H239.151V102.528H228.755ZM304.718 279.74H303.178V280.702H304.718V279.74Z" fill="#E32212"/>
</g>
<g filter="url(#filter6_f_402_1517)">
<path fill-rule="evenodd" clip-rule="evenodd" d="M281.273 254.682H282.39C282.645 254.682 282.89 254.783 283.07 254.964C283.251 255.144 283.352 255.389 283.352 255.644V262.19C283.352 262.446 283.251 262.69 283.07 262.871C282.89 263.052 282.645 263.153 282.39 263.153H271.993C271.738 263.153 271.493 263.052 271.313 262.871C271.132 262.69 271.031 262.446 271.031 262.19V255.644C271.031 255.389 271.132 255.144 271.313 254.964C271.493 254.783 271.738 254.682 271.993 254.682H273.11C272.994 254.437 272.941 254.167 272.957 253.896C272.972 253.626 273.055 253.363 273.199 253.133C273.342 252.903 273.541 252.713 273.777 252.58C274.013 252.447 274.279 252.375 274.55 252.372C275.349 252.352 276.127 252.626 276.737 253.142C276.911 253.293 277.063 253.467 277.192 253.658C277.32 253.467 277.473 253.293 277.646 253.142C278.256 252.626 279.034 252.352 279.833 252.372C280.104 252.375 280.37 252.447 280.606 252.58C280.842 252.713 281.041 252.903 281.184 253.133C281.328 253.363 281.411 253.626 281.427 253.896C281.442 254.167 281.389 254.437 281.273 254.682ZM279.825 253.334C279.264 253.318 278.717 253.507 278.285 253.866C278.044 254.074 277.864 254.342 277.761 254.643H279.825C279.999 254.643 280.165 254.574 280.288 254.452C280.411 254.329 280.48 254.162 280.48 253.989C280.48 253.815 280.411 253.649 280.288 253.526C280.165 253.403 279.999 253.334 279.825 253.334ZM276.09 253.866C275.658 253.507 275.111 253.318 274.55 253.334V253.327C274.377 253.327 274.21 253.395 274.087 253.518C273.964 253.641 273.896 253.807 273.896 253.981C273.896 254.155 273.964 254.321 274.087 254.444C274.21 254.567 274.377 254.636 274.55 254.636H276.614C276.511 254.337 276.33 254.071 276.09 253.866ZM282.39 256.607V255.644H271.993V256.607H282.39ZM271.993 258.532V262.19H282.39V258.532H271.993ZM274.496 260.265H272.956V261.228H274.496V260.265Z" fill="#E32212"/>
</g>
<g filter="url(#filter7_f_402_1517)">
<path fill-rule="evenodd" clip-rule="evenodd" d="M461.242 103.311H462.359C462.614 103.311 462.859 103.413 463.04 103.593C463.22 103.774 463.322 104.019 463.322 104.274V110.82C463.322 111.075 463.22 111.32 463.04 111.5C462.859 111.681 462.614 111.782 462.359 111.782H451.963C451.707 111.782 451.462 111.681 451.282 111.5C451.101 111.32 451 111.075 451 110.82V104.274C451 104.019 451.101 103.774 451.282 103.593C451.462 103.413 451.707 103.311 451.963 103.311H453.079C452.963 103.066 452.91 102.796 452.926 102.526C452.941 102.255 453.025 101.993 453.168 101.763C453.311 101.533 453.51 101.342 453.746 101.209C453.983 101.076 454.248 101.004 454.519 101.001C455.318 100.981 456.096 101.255 456.706 101.771C456.88 101.922 457.033 102.096 457.161 102.287C457.289 102.096 457.442 101.922 457.615 101.771C458.225 101.255 459.004 100.981 459.802 101.001C460.073 101.004 460.339 101.076 460.575 101.209C460.811 101.342 461.01 101.533 461.154 101.763C461.297 101.993 461.38 102.255 461.396 102.526C461.411 102.796 461.358 103.066 461.242 103.311ZM459.795 101.964C459.234 101.948 458.686 102.137 458.254 102.495C458.014 102.703 457.833 102.971 457.731 103.273H459.795C459.968 103.273 460.135 103.204 460.257 103.081C460.38 102.958 460.449 102.792 460.449 102.618C460.449 102.445 460.38 102.278 460.257 102.155C460.135 102.033 459.968 101.964 459.795 101.964ZM456.06 102.495C455.628 102.137 455.08 101.948 454.519 101.964V101.956C454.346 101.956 454.179 102.025 454.056 102.148C453.934 102.27 453.865 102.437 453.865 102.61C453.865 102.784 453.934 102.951 454.056 103.073C454.179 103.196 454.346 103.265 454.519 103.265H456.583C456.48 102.967 456.299 102.701 456.06 102.495ZM462.359 105.237V104.274H451.963V105.237H462.359ZM451.963 107.162V110.82H462.359V107.162H451.963ZM454.466 108.894H452.925V109.857H454.466V108.894Z" fill="#E32212"/>
</g>
<g filter="url(#filter8_f_402_1517)">
<path fill-rule="evenodd" clip-rule="evenodd" d="M283.258 359.381H284.375C284.63 359.381 284.875 359.482 285.055 359.663C285.236 359.843 285.337 360.088 285.337 360.343V366.889C285.337 367.144 285.236 367.389 285.055 367.57C284.875 367.75 284.63 367.852 284.375 367.852H273.978C273.723 367.852 273.478 367.75 273.298 367.57C273.117 367.389 273.016 367.144 273.016 366.889V360.343C273.016 360.088 273.117 359.843 273.298 359.663C273.478 359.482 273.723 359.381 273.978 359.381H275.095C274.979 359.136 274.926 358.866 274.941 358.595C274.957 358.324 275.04 358.062 275.184 357.832C275.327 357.602 275.526 357.412 275.762 357.279C275.998 357.145 276.264 357.074 276.535 357.07C277.334 357.051 278.112 357.325 278.722 357.84C278.895 357.992 279.048 358.165 279.176 358.356C279.305 358.165 279.457 357.992 279.631 357.84C280.241 357.325 281.019 357.051 281.818 357.07C282.089 357.074 282.355 357.145 282.591 357.279C282.827 357.412 283.026 357.602 283.169 357.832C283.313 358.062 283.396 358.324 283.411 358.595C283.427 358.866 283.374 359.136 283.258 359.381ZM281.81 358.033C281.249 358.017 280.702 358.206 280.27 358.564C280.029 358.772 279.848 359.041 279.746 359.342H281.81C281.984 359.342 282.15 359.273 282.273 359.15C282.396 359.028 282.465 358.861 282.465 358.688C282.465 358.514 282.396 358.347 282.273 358.225C282.15 358.102 281.984 358.033 281.81 358.033ZM278.075 358.564C277.643 358.206 277.096 358.017 276.535 358.033V358.025C276.361 358.025 276.195 358.094 276.072 358.217C275.949 358.34 275.88 358.506 275.88 358.68C275.88 358.853 275.949 359.02 276.072 359.143C276.195 359.265 276.361 359.334 276.535 359.334H278.599C278.495 359.036 278.315 358.77 278.075 358.564ZM284.375 361.306V360.343H273.978V361.306H284.375ZM273.978 363.231V366.889H284.375V363.231H273.978ZM276.481 364.964H274.941V365.926H276.481V364.964Z" fill="#E32212"/>
</g>
<path d="M375.081 314.5C374.618 314.104 374.03 313.893 373.426 313.908H369.544C369.367 313.913 369.191 313.881 369.026 313.814C368.862 313.748 368.712 313.648 368.586 313.521C368.46 313.394 368.361 313.242 368.293 313.075C368.226 312.908 368.193 312.728 368.195 312.547C368.191 312.477 368.191 312.407 368.195 312.336C368.247 312.013 368.413 311.721 368.661 311.514C368.91 311.307 369.224 311.199 369.544 311.212H373.368C373.68 311.212 373.982 311.325 374.22 311.53C374.458 311.736 374.616 312.022 374.667 312.336H375.909C375.857 311.684 375.567 311.077 375.096 310.633C374.625 310.19 374.008 309.944 373.368 309.944H372.06V308H371.026V309.944H369.544C368.904 309.944 368.287 310.19 367.816 310.633C367.345 311.077 367.055 311.684 367.003 312.336C366.999 312.407 366.999 312.477 367.003 312.547C367.003 312.888 367.069 313.226 367.197 313.541C367.324 313.855 367.511 314.141 367.747 314.382C368.224 314.869 368.87 315.142 369.544 315.142H373.467C373.643 315.138 373.818 315.169 373.981 315.235C374.145 315.3 374.294 315.399 374.419 315.524C374.545 315.649 374.645 315.799 374.713 315.964C374.781 316.129 374.816 316.307 374.816 316.486C374.825 316.582 374.825 316.678 374.816 316.774C374.751 317.071 374.588 317.337 374.355 317.527C374.122 317.718 373.832 317.822 373.534 317.822H369.643C369.345 317.822 369.055 317.718 368.822 317.527C368.589 317.337 368.426 317.071 368.36 316.774H367.111C367.182 317.409 367.479 317.995 367.946 318.421C368.413 318.846 369.017 319.081 369.643 319.081H371.026V321H372.06V319.081H373.467C374.093 319.081 374.697 318.846 375.164 318.421C375.631 317.995 375.929 317.409 376 316.774V316.486C375.999 316.107 375.916 315.732 375.757 315.389C375.599 315.045 375.368 314.742 375.081 314.5Z" fill="#E32212"/>
<g filter="url(#filter9_f_402_1517)">
<path d="M351.183 145.5C350.772 145.104 350.249 144.893 349.712 144.908H346.261C346.104 144.913 345.948 144.881 345.801 144.814C345.655 144.748 345.522 144.648 345.41 144.521C345.298 144.394 345.209 144.242 345.15 144.075C345.09 143.908 345.06 143.728 345.062 143.547C345.058 143.477 345.058 143.407 345.062 143.336C345.109 143.013 345.256 142.721 345.477 142.514C345.698 142.307 345.977 142.199 346.261 142.212H349.66C349.938 142.212 350.206 142.325 350.418 142.53C350.629 142.736 350.77 143.022 350.815 143.336H351.919C351.873 142.684 351.615 142.077 351.196 141.633C350.778 141.19 350.23 140.944 349.66 140.944H348.498V139H347.578V140.944H346.261C345.692 140.944 345.144 141.19 344.725 141.633C344.307 142.077 344.049 142.684 344.003 143.336C343.999 143.407 343.999 143.477 344.003 143.547C344.003 143.888 344.061 144.226 344.175 144.541C344.288 144.855 344.455 145.141 344.664 145.382C345.088 145.869 345.662 146.142 346.261 146.142H349.749C349.905 146.138 350.06 146.169 350.205 146.235C350.351 146.3 350.483 146.399 350.595 146.524C350.707 146.649 350.796 146.799 350.856 146.964C350.917 147.129 350.948 147.307 350.948 147.486C350.956 147.582 350.956 147.678 350.948 147.774C350.89 148.071 350.745 148.337 350.538 148.527C350.33 148.718 350.073 148.822 349.808 148.822H346.35C346.084 148.822 345.827 148.718 345.62 148.527C345.412 148.337 345.268 148.071 345.209 147.774H344.098C344.162 148.409 344.426 148.995 344.841 149.421C345.256 149.846 345.793 150.081 346.35 150.081H347.578V152H348.498V150.081H349.749C350.305 150.081 350.842 149.846 351.257 149.421C351.672 148.995 351.937 148.409 352 147.774V147.486C351.999 147.107 351.925 146.732 351.784 146.389C351.643 146.045 351.438 145.742 351.183 145.5Z" fill="#E32212"/>
</g>
<g filter="url(#filter10_f_402_1517)">
<path fill-rule="evenodd" clip-rule="evenodd" d="M348.973 322.929H350.089C350.345 322.929 350.59 323.031 350.77 323.211C350.951 323.392 351.052 323.637 351.052 323.892V330.438C351.052 330.693 350.951 330.938 350.77 331.119C350.59 331.299 350.345 331.401 350.089 331.401H339.693C339.438 331.401 339.193 331.299 339.012 331.119C338.832 330.938 338.73 330.693 338.73 330.438V323.892C338.73 323.637 338.832 323.392 339.012 323.211C339.193 323.031 339.438 322.929 339.693 322.929H340.81C340.694 322.685 340.641 322.414 340.656 322.144C340.672 321.873 340.755 321.611 340.898 321.381C341.042 321.151 341.241 320.96 341.477 320.827C341.713 320.694 341.979 320.623 342.25 320.619C343.049 320.6 343.827 320.874 344.437 321.389C344.61 321.541 344.763 321.714 344.891 321.905C345.02 321.714 345.172 321.541 345.346 321.389C345.956 320.874 346.734 320.6 347.533 320.619C347.804 320.623 348.07 320.694 348.306 320.827C348.542 320.96 348.741 321.151 348.884 321.381C349.027 321.611 349.111 321.873 349.126 322.144C349.142 322.414 349.089 322.685 348.973 322.929ZM347.525 321.582C346.964 321.566 346.417 321.755 345.985 322.113C345.744 322.321 345.563 322.59 345.461 322.891H347.525C347.699 322.891 347.865 322.822 347.988 322.699C348.111 322.576 348.18 322.41 348.18 322.236C348.18 322.063 348.111 321.896 347.988 321.773C347.865 321.651 347.699 321.582 347.525 321.582ZM343.79 322.113C343.358 321.755 342.811 321.566 342.25 321.582V321.574C342.076 321.574 341.91 321.643 341.787 321.766C341.664 321.889 341.595 322.055 341.595 322.229C341.595 322.402 341.664 322.569 341.787 322.692C341.91 322.814 342.076 322.883 342.25 322.883H344.314C344.21 322.585 344.03 322.319 343.79 322.113ZM350.089 324.855V323.892H339.693V324.855H350.089ZM339.693 326.78V330.438H350.089V326.78H339.693ZM342.196 328.513H340.656V329.475H342.196V328.513Z" fill="#E32212"/>
</g>
<g filter="url(#filter11_f_402_1517)">
<path d="M348.183 231C347.772 230.634 347.249 230.44 346.712 230.454H343.261C343.104 230.458 342.948 230.429 342.801 230.367C342.655 230.306 342.522 230.214 342.41 230.096C342.298 229.979 342.209 229.839 342.15 229.685C342.09 229.53 342.06 229.365 342.062 229.198C342.058 229.133 342.058 229.068 342.062 229.003C342.109 228.704 342.256 228.434 342.477 228.243C342.698 228.052 342.977 227.953 343.261 227.965H346.66C346.938 227.965 347.206 228.069 347.418 228.259C347.629 228.449 347.77 228.713 347.815 229.003H348.919C348.873 228.401 348.615 227.84 348.196 227.431C347.778 227.022 347.23 226.795 346.66 226.795H345.498V225H344.578V226.795H343.261C342.692 226.795 342.144 227.022 341.725 227.431C341.307 227.84 341.049 228.401 341.003 229.003C340.999 229.068 340.999 229.133 341.003 229.198C341.003 229.512 341.061 229.824 341.175 230.114C341.288 230.405 341.455 230.669 341.664 230.891C342.088 231.341 342.662 231.593 343.261 231.593H346.749C346.905 231.589 347.06 231.618 347.205 231.678C347.351 231.739 347.483 231.829 347.595 231.945C347.707 232.061 347.796 232.199 347.856 232.351C347.917 232.504 347.948 232.668 347.948 232.834C347.956 232.922 347.956 233.011 347.948 233.099C347.89 233.373 347.745 233.619 347.538 233.794C347.33 233.97 347.073 234.066 346.808 234.066H343.35C343.084 234.066 342.827 233.97 342.62 233.794C342.412 233.619 342.268 233.373 342.209 233.099H341.098C341.162 233.685 341.426 234.226 341.841 234.619C342.256 235.012 342.793 235.229 343.35 235.229H344.578V237H345.498V235.229H346.749C347.305 235.229 347.842 235.012 348.257 234.619C348.672 234.226 348.937 233.685 349 233.099V232.834C348.999 232.483 348.925 232.137 348.784 231.82C348.643 231.503 348.438 231.223 348.183 231Z" fill="#E32212"/>
</g>
<g filter="url(#filter12_f_402_1517)">
<path d="M502.183 264C501.772 263.634 501.249 263.44 500.712 263.454H497.261C497.104 263.458 496.948 263.429 496.801 263.367C496.655 263.306 496.522 263.214 496.41 263.096C496.298 262.979 496.209 262.839 496.15 262.685C496.09 262.53 496.06 262.365 496.062 262.198C496.058 262.133 496.058 262.068 496.062 262.003C496.109 261.704 496.256 261.434 496.477 261.243C496.698 261.052 496.977 260.953 497.261 260.965H500.66C500.938 260.965 501.206 261.069 501.418 261.259C501.629 261.449 501.77 261.713 501.815 262.003H502.919C502.873 261.401 502.615 260.84 502.196 260.431C501.778 260.022 501.23 259.795 500.66 259.795H499.498V258H498.578V259.795H497.261C496.692 259.795 496.144 260.022 495.725 260.431C495.307 260.84 495.049 261.401 495.003 262.003C494.999 262.068 494.999 262.133 495.003 262.198C495.003 262.512 495.061 262.824 495.175 263.114C495.288 263.405 495.455 263.669 495.664 263.891C496.088 264.341 496.662 264.593 497.261 264.593H500.749C500.905 264.589 501.06 264.618 501.205 264.678C501.351 264.739 501.483 264.829 501.595 264.945C501.707 265.061 501.796 265.199 501.856 265.351C501.917 265.504 501.948 265.668 501.948 265.834C501.956 265.922 501.956 266.011 501.948 266.099C501.89 266.373 501.745 266.619 501.538 266.794C501.33 266.97 501.073 267.066 500.808 267.066H497.35C497.084 267.066 496.827 266.97 496.62 266.794C496.412 266.619 496.268 266.373 496.209 266.099H495.098C495.162 266.685 495.426 267.226 495.841 267.619C496.256 268.012 496.793 268.229 497.35 268.229H498.578V270H499.498V268.229H500.749C501.305 268.229 501.842 268.012 502.257 267.619C502.672 267.226 502.937 266.685 503 266.099V265.834C502.999 265.483 502.925 265.137 502.784 264.82C502.643 264.503 502.438 264.223 502.183 264Z" fill="#E32212"/>
</g>
<g filter="url(#filter13_f_402_1517)">
<path fill-rule="evenodd" clip-rule="evenodd" d="M281.204 185.852H282.321C282.576 185.852 282.821 185.954 283.002 186.134C283.182 186.315 283.283 186.56 283.283 186.815V193.361C283.283 193.616 283.182 193.861 283.002 194.041C282.821 194.222 282.576 194.323 282.321 194.323H271.925C271.669 194.323 271.424 194.222 271.244 194.041C271.063 193.861 270.962 193.616 270.962 193.361V186.815C270.962 186.56 271.063 186.315 271.244 186.134C271.424 185.954 271.669 185.852 271.925 185.852H273.041C272.925 185.607 272.872 185.337 272.888 185.067C272.903 184.796 272.986 184.534 273.13 184.304C273.273 184.074 273.472 183.883 273.708 183.75C273.944 183.617 274.21 183.546 274.481 183.542C275.28 183.522 276.058 183.796 276.668 184.312C276.842 184.463 276.994 184.637 277.123 184.828C277.251 184.637 277.404 184.463 277.577 184.312C278.187 183.796 278.965 183.522 279.764 183.542C280.035 183.546 280.301 183.617 280.537 183.75C280.773 183.883 280.972 184.074 281.116 184.304C281.259 184.534 281.342 184.796 281.358 185.067C281.373 185.337 281.32 185.607 281.204 185.852ZM279.756 184.505C279.196 184.489 278.648 184.678 278.216 185.036C277.976 185.244 277.795 185.513 277.693 185.814H279.756C279.93 185.814 280.097 185.745 280.219 185.622C280.342 185.499 280.411 185.333 280.411 185.159C280.411 184.986 280.342 184.819 280.219 184.696C280.097 184.574 279.93 184.505 279.756 184.505ZM276.021 185.036C275.59 184.678 275.042 184.489 274.481 184.505V184.497C274.308 184.497 274.141 184.566 274.018 184.689C273.896 184.811 273.827 184.978 273.827 185.151C273.827 185.325 273.896 185.492 274.018 185.614C274.141 185.737 274.308 185.806 274.481 185.806H276.545C276.442 185.508 276.261 185.242 276.021 185.036ZM282.321 187.778V186.815H271.925V187.778H282.321ZM271.925 189.703V193.361H282.321V189.703H271.925ZM274.428 191.435H272.887V192.398H274.428V191.435Z" fill="#E32212"/>
</g>
<g filter="url(#filter14_f_402_1517)">
<path fill-rule="evenodd" clip-rule="evenodd" d="M160.556 394.805H161.672C161.928 394.805 162.173 394.907 162.353 395.087C162.534 395.268 162.635 395.513 162.635 395.768V402.314C162.635 402.569 162.534 402.814 162.353 402.995C162.173 403.175 161.928 403.276 161.672 403.276H151.276C151.021 403.276 150.776 403.175 150.595 402.995C150.415 402.814 150.313 402.569 150.313 402.314V395.768C150.313 395.513 150.415 395.268 150.595 395.087C150.776 394.907 151.021 394.805 151.276 394.805H152.393C152.277 394.561 152.224 394.29 152.239 394.02C152.255 393.749 152.338 393.487 152.481 393.257C152.625 393.027 152.824 392.836 153.06 392.703C153.296 392.57 153.562 392.499 153.833 392.495C154.632 392.476 155.41 392.75 156.02 393.265C156.193 393.417 156.346 393.59 156.474 393.781C156.603 393.59 156.755 393.417 156.929 393.265C157.539 392.75 158.317 392.476 159.116 392.495C159.387 392.499 159.653 392.57 159.889 392.703C160.125 392.836 160.324 393.027 160.467 393.257C160.61 393.487 160.694 393.749 160.709 394.02C160.725 394.29 160.672 394.561 160.556 394.805ZM159.108 393.458C158.547 393.442 158 393.631 157.568 393.989C157.327 394.197 157.146 394.466 157.044 394.767H159.108C159.282 394.767 159.448 394.698 159.571 394.575C159.694 394.452 159.763 394.286 159.763 394.112C159.763 393.939 159.694 393.772 159.571 393.649C159.448 393.527 159.282 393.458 159.108 393.458ZM155.373 393.989C154.941 393.631 154.394 393.442 153.833 393.458V393.45C153.659 393.45 153.493 393.519 153.37 393.642C153.247 393.765 153.178 393.931 153.178 394.105C153.178 394.278 153.247 394.445 153.37 394.567C153.493 394.69 153.659 394.759 153.833 394.759H155.897C155.793 394.461 155.613 394.195 155.373 393.989ZM161.672 396.731V395.768H151.276V396.731H161.672ZM151.276 398.656V402.314H161.672V398.656H151.276ZM153.779 400.389H152.239V401.351H153.779V400.389Z" fill="#E32212"/>
</g>
<g filter="url(#filter15_f_402_1517)">
<path d="M156.081 122.5C155.618 122.104 155.03 121.893 154.426 121.908H150.544C150.367 121.913 150.191 121.881 150.026 121.814C149.862 121.748 149.712 121.648 149.586 121.521C149.46 121.394 149.361 121.242 149.293 121.075C149.226 120.908 149.193 120.728 149.195 120.547C149.191 120.477 149.191 120.407 149.195 120.336C149.247 120.013 149.413 119.721 149.661 119.514C149.91 119.307 150.224 119.199 150.544 119.212H154.368C154.68 119.212 154.982 119.325 155.22 119.53C155.458 119.736 155.616 120.022 155.667 120.336H156.909C156.857 119.684 156.567 119.077 156.096 118.633C155.625 118.19 155.008 117.944 154.368 117.944H153.06V116H152.026V117.944H150.544C149.904 117.944 149.287 118.19 148.816 118.633C148.345 119.077 148.055 119.684 148.003 120.336C147.999 120.407 147.999 120.477 148.003 120.547C148.003 120.888 148.069 121.226 148.197 121.541C148.324 121.855 148.511 122.141 148.747 122.382C149.224 122.869 149.87 123.142 150.544 123.142H154.467C154.643 123.138 154.818 123.169 154.981 123.235C155.145 123.3 155.294 123.399 155.419 123.524C155.545 123.649 155.645 123.799 155.713 123.964C155.781 124.129 155.816 124.307 155.816 124.486C155.825 124.582 155.825 124.678 155.816 124.774C155.751 125.071 155.588 125.337 155.355 125.527C155.122 125.718 154.832 125.822 154.534 125.822H150.643C150.345 125.822 150.055 125.718 149.822 125.527C149.589 125.337 149.426 125.071 149.36 124.774H148.111C148.182 125.409 148.479 125.995 148.946 126.421C149.413 126.846 150.017 127.081 150.643 127.081H152.026V129H153.06V127.081H154.467C155.093 127.081 155.697 126.846 156.164 126.421C156.631 125.995 156.929 125.409 157 124.774V124.486C156.999 124.107 156.916 123.732 156.757 123.389C156.599 123.045 156.368 122.742 156.081 122.5Z" fill="#E32212"/>
</g>
<g filter="url(#filter16_f_402_1517)">
<path d="M227.081 443C226.618 442.634 226.03 442.44 225.426 442.454H221.544C221.367 442.458 221.191 442.429 221.026 442.367C220.862 442.306 220.712 442.214 220.586 442.096C220.46 441.979 220.361 441.839 220.293 441.685C220.226 441.53 220.193 441.365 220.195 441.198C220.191 441.133 220.191 441.068 220.195 441.003C220.247 440.704 220.413 440.434 220.661 440.243C220.91 440.052 221.224 439.953 221.544 439.965H225.368C225.68 439.965 225.982 440.069 226.22 440.259C226.458 440.449 226.616 440.713 226.667 441.003H227.909C227.857 440.401 227.567 439.84 227.096 439.431C226.625 439.022 226.008 438.795 225.368 438.795H224.06V437H223.026V438.795H221.544C220.904 438.795 220.287 439.022 219.816 439.431C219.345 439.84 219.055 440.401 219.003 441.003C218.999 441.068 218.999 441.133 219.003 441.198C219.003 441.512 219.069 441.824 219.197 442.114C219.324 442.405 219.511 442.669 219.747 442.891C220.224 443.341 220.87 443.593 221.544 443.593H225.467C225.643 443.589 225.818 443.618 225.981 443.678C226.145 443.739 226.294 443.829 226.419 443.945C226.545 444.061 226.645 444.199 226.713 444.351C226.781 444.504 226.816 444.668 226.816 444.834C226.825 444.922 226.825 445.011 226.816 445.099C226.751 445.373 226.588 445.619 226.355 445.794C226.122 445.97 225.832 446.066 225.534 446.066H221.643C221.345 446.066 221.055 445.97 220.822 445.794C220.589 445.619 220.426 445.373 220.36 445.099H219.111C219.182 445.685 219.479 446.226 219.946 446.619C220.413 447.012 221.017 447.229 221.643 447.229H223.026V449H224.06V447.229H225.467C226.093 447.229 226.697 447.012 227.164 446.619C227.631 446.226 227.929 445.685 228 445.099V444.834C227.999 444.483 227.916 444.137 227.757 443.82C227.599 443.503 227.368 443.223 227.081 443Z" fill="#E32212"/>
</g>
<g filter="url(#filter17_f_402_1517)">
<path fill-rule="evenodd" clip-rule="evenodd" d="M164.663 294.692H165.779C166.035 294.692 166.28 294.794 166.46 294.974C166.641 295.155 166.742 295.399 166.742 295.655V302.201C166.742 302.456 166.641 302.701 166.46 302.881C166.28 303.062 166.035 303.163 165.779 303.163H155.383C155.128 303.163 154.883 303.062 154.702 302.881C154.522 302.701 154.42 302.456 154.42 302.201V295.655C154.42 295.399 154.522 295.155 154.702 294.974C154.883 294.794 155.128 294.692 155.383 294.692H156.5C156.383 294.447 156.331 294.177 156.346 293.906C156.362 293.636 156.445 293.373 156.588 293.143C156.732 292.913 156.931 292.723 157.167 292.59C157.403 292.457 157.669 292.385 157.94 292.382C158.738 292.362 159.517 292.636 160.127 293.152C160.3 293.303 160.453 293.477 160.581 293.668C160.709 293.477 160.862 293.303 161.036 293.152C161.646 292.636 162.424 292.362 163.223 292.382C163.494 292.385 163.759 292.457 163.996 292.59C164.232 292.723 164.431 292.913 164.574 293.143C164.717 293.373 164.801 293.636 164.816 293.906C164.832 294.177 164.779 294.447 164.663 294.692ZM163.215 293.344C162.654 293.329 162.107 293.518 161.675 293.876C161.434 294.084 161.253 294.352 161.151 294.654H163.215C163.389 294.654 163.555 294.585 163.678 294.462C163.801 294.339 163.87 294.173 163.87 293.999C163.87 293.825 163.801 293.659 163.678 293.536C163.555 293.413 163.389 293.344 163.215 293.344ZM159.48 293.876C159.048 293.518 158.501 293.329 157.94 293.344V293.337C157.766 293.337 157.6 293.406 157.477 293.528C157.354 293.651 157.285 293.818 157.285 293.991C157.285 294.165 157.354 294.331 157.477 294.454C157.6 294.577 157.766 294.646 157.94 294.646H160.004C159.9 294.347 159.72 294.082 159.48 293.876ZM165.779 296.617V295.655H155.383V296.617H165.779ZM155.383 298.543V302.201H165.779V298.543H155.383ZM157.886 300.275H156.346V301.238H157.886V300.275Z" fill="#E32212"/>
</g>
<g filter="url(#filter18_f_402_1517)">
<path d="M202.081 292.5C201.618 292.165 201.03 291.987 200.426 291.999H196.544C196.367 292.003 196.191 291.976 196.026 291.92C195.862 291.864 195.712 291.779 195.586 291.672C195.46 291.564 195.361 291.436 195.293 291.294C195.226 291.153 195.193 291.001 195.195 290.848C195.191 290.788 195.191 290.729 195.195 290.669C195.247 290.396 195.413 290.148 195.661 289.973C195.91 289.798 196.224 289.707 196.544 289.718H200.368C200.68 289.718 200.982 289.813 201.22 289.987C201.458 290.162 201.616 290.403 201.667 290.669H202.909C202.857 290.118 202.567 289.603 202.096 289.228C201.625 288.853 201.008 288.645 200.368 288.645H199.06V287H198.026V288.645H196.544C195.904 288.645 195.287 288.853 194.816 289.228C194.345 289.603 194.055 290.118 194.003 290.669C193.999 290.729 193.999 290.788 194.003 290.848C194.003 291.136 194.069 291.422 194.197 291.688C194.324 291.955 194.511 292.197 194.747 292.4C195.224 292.812 195.87 293.044 196.544 293.044H200.467C200.643 293.04 200.818 293.066 200.981 293.122C201.145 293.177 201.294 293.26 201.419 293.366C201.545 293.472 201.645 293.599 201.713 293.739C201.781 293.879 201.816 294.029 201.816 294.181C201.825 294.262 201.825 294.343 201.816 294.424C201.751 294.676 201.588 294.9 201.355 295.062C201.122 295.223 200.832 295.311 200.534 295.311H196.643C196.345 295.311 196.055 295.223 195.822 295.062C195.589 294.9 195.426 294.676 195.36 294.424H194.111C194.182 294.961 194.479 295.457 194.946 295.817C195.413 296.177 196.017 296.376 196.643 296.376H198.026V298H199.06V296.376H200.467C201.093 296.376 201.697 296.177 202.164 295.817C202.631 295.457 202.929 294.961 203 294.424V294.181C202.999 293.86 202.916 293.542 202.757 293.252C202.599 292.961 202.368 292.705 202.081 292.5Z" fill="#E32212"/>
</g>
<g filter="url(#filter19_f_402_1517)">
<path d="M249.183 329C248.772 328.634 248.249 328.44 247.712 328.454H244.261C244.104 328.458 243.948 328.429 243.801 328.367C243.655 328.306 243.522 328.214 243.41 328.096C243.298 327.979 243.209 327.839 243.15 327.685C243.09 327.53 243.06 327.365 243.062 327.198C243.058 327.133 243.058 327.068 243.062 327.003C243.109 326.704 243.256 326.434 243.477 326.243C243.698 326.052 243.977 325.953 244.261 325.965H247.66C247.938 325.965 248.206 326.069 248.418 326.259C248.629 326.449 248.77 326.713 248.815 327.003H249.919C249.873 326.401 249.615 325.84 249.196 325.431C248.778 325.022 248.23 324.795 247.66 324.795H246.498V323H245.578V324.795H244.261C243.692 324.795 243.144 325.022 242.725 325.431C242.307 325.84 242.049 326.401 242.003 327.003C241.999 327.068 241.999 327.133 242.003 327.198C242.003 327.512 242.061 327.824 242.175 328.114C242.288 328.405 242.455 328.669 242.664 328.891C243.088 329.341 243.662 329.593 244.261 329.593H247.749C247.905 329.589 248.06 329.618 248.205 329.678C248.351 329.739 248.483 329.829 248.595 329.945C248.707 330.061 248.796 330.199 248.856 330.351C248.917 330.504 248.948 330.668 248.948 330.834C248.956 330.922 248.956 331.011 248.948 331.099C248.89 331.373 248.745 331.619 248.538 331.794C248.33 331.97 248.073 332.066 247.808 332.066H244.35C244.084 332.066 243.827 331.97 243.62 331.794C243.412 331.619 243.268 331.373 243.209 331.099H242.098C242.162 331.685 242.426 332.226 242.841 332.619C243.256 333.012 243.793 333.229 244.35 333.229H245.578V335H246.498V333.229H247.749C248.305 333.229 248.842 333.012 249.257 332.619C249.672 332.226 249.937 331.685 250 331.099V330.834C249.999 330.483 249.925 330.137 249.784 329.82C249.643 329.503 249.438 329.223 249.183 329Z" fill="#E32212"/>
</g>
<path d="M423.081 273.5C422.618 273.104 422.03 272.893 421.426 272.908H417.544C417.367 272.913 417.191 272.881 417.026 272.814C416.862 272.748 416.712 272.648 416.586 272.521C416.46 272.394 416.361 272.242 416.293 272.075C416.226 271.908 416.193 271.728 416.195 271.547C416.191 271.477 416.191 271.407 416.195 271.336C416.247 271.013 416.413 270.721 416.661 270.514C416.91 270.307 417.224 270.199 417.544 270.212H421.368C421.68 270.212 421.982 270.325 422.22 270.53C422.458 270.736 422.616 271.022 422.667 271.336H423.909C423.857 270.684 423.567 270.077 423.096 269.633C422.625 269.19 422.008 268.944 421.368 268.944H420.06V267H419.026V268.944H417.544C416.904 268.944 416.287 269.19 415.816 269.633C415.345 270.077 415.055 270.684 415.003 271.336C414.999 271.407 414.999 271.477 415.003 271.547C415.003 271.888 415.069 272.226 415.197 272.541C415.324 272.855 415.511 273.141 415.747 273.382C416.224 273.869 416.87 274.142 417.544 274.142H421.467C421.643 274.138 421.818 274.169 421.981 274.235C422.145 274.3 422.294 274.399 422.419 274.524C422.545 274.649 422.645 274.799 422.713 274.964C422.781 275.129 422.816 275.307 422.816 275.486C422.825 275.582 422.825 275.678 422.816 275.774C422.751 276.071 422.588 276.337 422.355 276.527C422.122 276.718 421.832 276.822 421.534 276.822H417.643C417.345 276.822 417.055 276.718 416.822 276.527C416.589 276.337 416.426 276.071 416.36 275.774H415.111C415.182 276.409 415.479 276.995 415.946 277.421C416.413 277.846 417.017 278.081 417.643 278.081H419.026V280H420.06V278.081H421.467C422.093 278.081 422.697 277.846 423.164 277.421C423.631 276.995 423.929 276.409 424 275.774V275.486C423.999 275.107 423.916 274.732 423.757 274.389C423.599 274.045 423.368 273.742 423.081 273.5Z" fill="#E32212"/>
<g filter="url(#filter20_f_402_1517)">
<path fill-rule="evenodd" clip-rule="evenodd" d="M304.82 55.3113H305.937C306.192 55.3113 306.437 55.4127 306.618 55.5932C306.798 55.7737 306.9 56.0186 306.9 56.2739V62.8197C306.9 63.075 306.798 63.3199 306.618 63.5004C306.437 63.6809 306.192 63.7823 305.937 63.7823H295.541C295.285 63.7823 295.041 63.6809 294.86 63.5004C294.68 63.3199 294.578 63.075 294.578 62.8197V56.2739C294.578 56.0186 294.68 55.7737 294.86 55.5932C295.041 55.4127 295.285 55.3113 295.541 55.3113H296.657C296.541 55.0664 296.488 54.7962 296.504 54.5256C296.519 54.255 296.603 53.9926 296.746 53.7626C296.889 53.5325 297.088 53.3422 297.324 53.2092C297.561 53.0761 297.826 53.0045 298.097 53.001C298.896 52.9815 299.674 53.2555 300.285 53.7711C300.458 53.9225 300.611 54.0959 300.739 54.287C300.867 54.0959 301.02 53.9225 301.193 53.7711C301.804 53.2555 302.582 52.9815 303.38 53.001C303.651 53.0045 303.917 53.0761 304.153 53.2092C304.389 53.3422 304.588 53.5325 304.732 53.7626C304.875 53.9926 304.958 54.255 304.974 54.5256C304.989 54.7962 304.937 55.0664 304.82 55.3113ZM303.373 53.9636C302.812 53.9478 302.264 54.1367 301.832 54.495C301.592 54.703 301.411 54.9715 301.309 55.2728H303.373C303.546 55.2728 303.713 55.2038 303.836 55.081C303.958 54.9583 304.027 54.7918 304.027 54.6182C304.027 54.4446 303.958 54.2781 303.836 54.1553C303.713 54.0326 303.546 53.9636 303.373 53.9636ZM299.638 54.495C299.206 54.1367 298.658 53.9478 298.097 53.9636V53.9559C297.924 53.9559 297.757 54.0249 297.635 54.1476C297.512 54.2704 297.443 54.4369 297.443 54.6105C297.443 54.7841 297.512 54.9506 297.635 55.0733C297.757 55.1961 297.924 55.2651 298.097 55.2651H300.161C300.058 54.9666 299.877 54.7009 299.638 54.495ZM305.937 57.2365V56.2739H295.541V57.2365H305.937ZM295.541 59.1618V62.8197H305.937V59.1618H295.541ZM298.044 60.8944H296.504V61.8571H298.044V60.8944Z" fill="#E32212"/>
</g>
<path fill-rule="evenodd" clip-rule="evenodd" d="M289.419 92.4138H290.535C290.791 92.4138 291.035 92.5152 291.216 92.6958C291.396 92.8763 291.498 93.1211 291.498 93.3764V99.9223C291.498 100.178 291.396 100.422 291.216 100.603C291.035 100.783 290.791 100.885 290.535 100.885H280.139C279.884 100.885 279.639 100.783 279.458 100.603C279.278 100.422 279.176 100.178 279.176 99.9223V93.3764C279.176 93.1211 279.278 92.8763 279.458 92.6958C279.639 92.5152 279.884 92.4138 280.139 92.4138H281.256C281.139 92.1689 281.087 91.8987 281.102 91.6281C281.118 91.3575 281.201 91.0951 281.344 90.8651C281.488 90.6351 281.686 90.4448 281.923 90.3117C282.159 90.1786 282.425 90.107 282.696 90.1035C283.494 90.084 284.272 90.358 284.883 90.8736C285.056 91.025 285.209 91.1985 285.337 91.3896C285.465 91.1985 285.618 91.025 285.791 90.8736C286.402 90.358 287.18 90.084 287.978 90.1035C288.25 90.107 288.515 90.1786 288.751 90.3117C288.988 90.4448 289.187 90.6351 289.33 90.8651C289.473 91.0951 289.557 91.3575 289.572 91.6281C289.588 91.8987 289.535 92.1689 289.419 92.4138ZM287.971 91.0661C287.41 91.0503 286.862 91.2392 286.431 91.5975C286.19 91.8055 286.009 92.074 285.907 92.3753H287.971C288.144 92.3753 288.311 92.3063 288.434 92.1836C288.556 92.0608 288.625 91.8943 288.625 91.7207C288.625 91.5471 288.556 91.3806 288.434 91.2579C288.311 91.1351 288.144 91.0661 287.971 91.0661ZM284.236 91.5975C283.804 91.2392 283.257 91.0503 282.696 91.0661V91.0584C282.522 91.0584 282.356 91.1274 282.233 91.2502C282.11 91.3729 282.041 91.5394 282.041 91.713C282.041 91.8866 282.11 92.0531 282.233 92.1759C282.356 92.2986 282.522 92.3676 282.696 92.3676H284.759C284.656 92.0691 284.475 91.8034 284.236 91.5975ZM290.535 94.3391V93.3764H280.139V94.3391H290.535ZM280.139 96.2643V99.9223H290.535V96.2643H280.139ZM282.642 97.997H281.102V98.9596H282.642V97.997Z" fill="#E32212"/>
<g filter="url(#filter21_f_402_1517)">
<path fill-rule="evenodd" clip-rule="evenodd" d="M130.265 196.12H131.382C131.637 196.12 131.882 196.221 132.063 196.402C132.243 196.582 132.345 196.827 132.345 197.082V203.628C132.345 203.884 132.243 204.128 132.063 204.309C131.882 204.49 131.637 204.591 131.382 204.591H120.986C120.73 204.591 120.485 204.49 120.305 204.309C120.124 204.128 120.023 203.884 120.023 203.628V197.082C120.023 196.827 120.124 196.582 120.305 196.402C120.485 196.221 120.73 196.12 120.986 196.12H122.102C121.986 195.875 121.933 195.605 121.949 195.334C121.964 195.064 122.048 194.801 122.191 194.571C122.334 194.341 122.533 194.151 122.769 194.018C123.005 193.885 123.271 193.813 123.542 193.81C124.341 193.79 125.119 194.064 125.729 194.58C125.903 194.731 126.055 194.905 126.184 195.096C126.312 194.905 126.465 194.731 126.638 194.58C127.248 194.064 128.026 193.79 128.825 193.81C129.096 193.813 129.362 193.885 129.598 194.018C129.834 194.151 130.033 194.341 130.177 194.571C130.32 194.801 130.403 195.064 130.419 195.334C130.434 195.605 130.381 195.875 130.265 196.12ZM128.817 194.772C128.257 194.756 127.709 194.945 127.277 195.304C127.037 195.512 126.856 195.78 126.754 196.081H128.817C128.991 196.081 129.158 196.012 129.28 195.89C129.403 195.767 129.472 195.6 129.472 195.427C129.472 195.253 129.403 195.087 129.28 194.964C129.158 194.841 128.991 194.772 128.817 194.772ZM125.082 195.304C124.651 194.945 124.103 194.756 123.542 194.772V194.764C123.369 194.764 123.202 194.833 123.079 194.956C122.957 195.079 122.888 195.245 122.888 195.419C122.888 195.593 122.957 195.759 123.079 195.882C123.202 196.005 123.369 196.074 123.542 196.074H125.606C125.503 195.775 125.322 195.509 125.082 195.304ZM131.382 198.045V197.082H120.986V198.045H131.382ZM120.986 199.97V203.628H131.382V199.97H120.986ZM123.489 201.703H121.948V202.666H123.489V201.703Z" fill="#E32212"/>
</g>
<g filter="url(#filter22_f_402_1517)">
<path d="M104.183 351.5C103.772 351.104 103.249 350.893 102.712 350.908H99.2614C99.1041 350.913 98.9476 350.881 98.8013 350.814C98.6549 350.748 98.5218 350.648 98.4098 350.521C98.2979 350.394 98.2094 350.242 98.1496 350.075C98.0899 349.908 98.0602 349.728 98.0622 349.547C98.0583 349.477 98.0583 349.407 98.0622 349.336C98.1086 349.013 98.256 348.721 98.4768 348.514C98.6976 348.307 98.9766 348.199 99.2614 348.212H102.66C102.938 348.212 103.206 348.325 103.418 348.53C103.629 348.736 103.77 349.022 103.815 349.336H104.919C104.873 348.684 104.615 348.077 104.196 347.633C103.778 347.19 103.23 346.944 102.66 346.944H101.498V345H100.578V346.944H99.2614C98.6922 346.944 98.1439 347.19 97.7254 347.633C97.3069 348.077 97.049 348.684 97.0028 349.336C96.9991 349.407 96.9991 349.477 97.0028 349.547C97.0028 349.888 97.0612 350.226 97.1747 350.541C97.2882 350.855 97.4546 351.141 97.6643 351.382C98.0879 351.869 98.6624 352.142 99.2614 352.142H102.749C102.905 352.138 103.06 352.169 103.205 352.235C103.351 352.3 103.483 352.399 103.595 352.524C103.707 352.649 103.796 352.799 103.856 352.964C103.917 353.129 103.948 353.307 103.948 353.486C103.956 353.582 103.956 353.678 103.948 353.774C103.89 354.071 103.745 354.337 103.538 354.527C103.33 354.718 103.073 354.822 102.808 354.822H99.3497C99.0843 354.822 98.8269 354.718 98.6197 354.527C98.4124 354.337 98.2677 354.071 98.2093 353.774H97.0984C97.1616 354.409 97.426 354.995 97.8412 355.421C98.2564 355.846 98.7933 356.081 99.3497 356.081H100.578V358H101.498V356.081H102.749C103.305 356.081 103.842 355.846 104.257 355.421C104.672 354.995 104.937 354.409 105 353.774V353.486C104.999 353.107 104.925 352.732 104.784 352.389C104.643 352.045 104.438 351.742 104.183 351.5Z" fill="#E32212"/>
</g>
<g filter="url(#filter23_f_402_1517)">
<path fill-rule="evenodd" clip-rule="evenodd" d="M465.001 370.162H466.118C466.373 370.162 466.618 370.263 466.798 370.444C466.979 370.624 467.08 370.869 467.08 371.124V377.67C467.08 377.926 466.979 378.17 466.798 378.351C466.618 378.532 466.373 378.633 466.118 378.633H455.721C455.466 378.633 455.221 378.532 455.041 378.351C454.86 378.17 454.759 377.926 454.759 377.67V371.124C454.759 370.869 454.86 370.624 455.041 370.444C455.221 370.263 455.466 370.162 455.721 370.162H456.838C456.722 369.917 456.669 369.647 456.685 369.376C456.7 369.106 456.783 368.843 456.927 368.613C457.07 368.383 457.269 368.193 457.505 368.06C457.741 367.927 458.007 367.855 458.278 367.852C459.077 367.832 459.855 368.106 460.465 368.622C460.639 368.773 460.791 368.947 460.92 369.138C461.048 368.947 461.201 368.773 461.374 368.622C461.984 368.106 462.762 367.832 463.561 367.852C463.832 367.855 464.098 367.927 464.334 368.06C464.57 368.193 464.769 368.383 464.912 368.613C465.056 368.843 465.139 369.106 465.155 369.376C465.17 369.647 465.117 369.917 465.001 370.162ZM463.553 368.814C462.992 368.798 462.445 368.987 462.013 369.346C461.772 369.554 461.592 369.822 461.489 370.123H463.553C463.727 370.123 463.893 370.054 464.016 369.932C464.139 369.809 464.208 369.642 464.208 369.469C464.208 369.295 464.139 369.129 464.016 369.006C463.893 368.883 463.727 368.814 463.553 368.814ZM459.818 369.346C459.386 368.987 458.839 368.798 458.278 368.814V368.806C458.105 368.806 457.938 368.875 457.815 368.998C457.693 369.121 457.624 369.287 457.624 369.461C457.624 369.635 457.693 369.801 457.815 369.924C457.938 370.047 458.105 370.116 458.278 370.116H460.342C460.239 369.817 460.058 369.551 459.818 369.346ZM466.118 372.087V371.124H455.721V372.087H466.118ZM455.721 374.012V377.67H466.118V374.012H455.721ZM458.224 375.745H456.684V376.708H458.224V375.745Z" fill="#E32212"/>
</g>
<path d="M356.183 385.5C355.772 385.165 355.249 384.987 354.712 384.999H351.261C351.104 385.003 350.948 384.976 350.801 384.92C350.655 384.864 350.522 384.779 350.41 384.672C350.298 384.564 350.209 384.436 350.15 384.294C350.09 384.153 350.06 384.001 350.062 383.848C350.058 383.788 350.058 383.729 350.062 383.669C350.109 383.396 350.256 383.148 350.477 382.973C350.698 382.798 350.977 382.707 351.261 382.718H354.66C354.938 382.718 355.206 382.813 355.418 382.987C355.629 383.162 355.77 383.403 355.815 383.669H356.919C356.873 383.118 356.615 382.603 356.196 382.228C355.778 381.853 355.23 381.645 354.66 381.645H353.498V380H352.578V381.645H351.261C350.692 381.645 350.144 381.853 349.725 382.228C349.307 382.603 349.049 383.118 349.003 383.669C348.999 383.729 348.999 383.788 349.003 383.848C349.003 384.136 349.061 384.422 349.175 384.688C349.288 384.955 349.455 385.197 349.664 385.4C350.088 385.812 350.662 386.044 351.261 386.044H354.749C354.905 386.04 355.06 386.066 355.205 386.122C355.351 386.177 355.483 386.26 355.595 386.366C355.707 386.472 355.796 386.599 355.856 386.739C355.917 386.879 355.948 387.029 355.948 387.181C355.956 387.262 355.956 387.343 355.948 387.424C355.89 387.676 355.745 387.9 355.538 388.062C355.33 388.223 355.073 388.311 354.808 388.311H351.35C351.084 388.311 350.827 388.223 350.62 388.062C350.412 387.9 350.268 387.676 350.209 387.424H349.098C349.162 387.961 349.426 388.457 349.841 388.817C350.256 389.177 350.793 389.376 351.35 389.376H352.578V391H353.498V389.376H354.749C355.305 389.376 355.842 389.177 356.257 388.817C356.672 388.457 356.937 387.961 357 387.424V387.181C356.999 386.86 356.925 386.542 356.784 386.252C356.643 385.961 356.438 385.705 356.183 385.5Z" fill="#E32212"/>
<g filter="url(#filter24_f_402_1517)">
<path d="M326 208L316 203V193L326 198V208Z" stroke="#E32212" stroke-linejoin="bevel"/>
</g>
<g filter="url(#filter25_f_402_1517)">
<path d="M390 154V164.647L381 170V159.353L390 154Z" stroke="#E32212" stroke-linejoin="bevel"/>
</g>
<g filter="url(#filter26_f_402_1517)">
<path d="M189 201.792L180 197L189 197.208L198 202L189 201.792Z" stroke="#E32212" stroke-linejoin="bevel"/>
</g>
<path d="M189 155.833L180 152L189 152.167L198 156L189 155.833Z" stroke="#E32212" stroke-linejoin="bevel"/>
<path d="M305 239L296 234L287 239L296 244L305 239Z" stroke="#E32212" stroke-linejoin="bevel"/>
<path d="M194 330L185 325L176 330L185 335L194 330Z" stroke="#E32212" stroke-linejoin="bevel"/>
<path d="M419 139L410 134V124L419 129V139Z" stroke="#E32212" stroke-linejoin="bevel"/>
<g filter="url(#filter27_f_402_1517)">
<path d="M441 301V310.982L431 316V306.018L441 301Z" stroke="#E32212" stroke-linejoin="bevel"/>
</g>
<path d="M201.5 247.75L192 242L201.5 242.25L211 248L201.5 247.75Z" stroke="#E32212" stroke-linejoin="bevel"/>
<path d="M323 139.5L314 134L305 139.5L314 145L323 139.5Z" stroke="#E32212" stroke-linejoin="bevel"/>
<path d="M386 260L376 255.333V246L386 250.667V260Z" stroke="#E32212" stroke-linejoin="bevel"/>
<path d="M454 251.75L445 246L454 246.25L463 252L454 251.75Z" stroke="#E32212" stroke-linejoin="bevel"/>
<defs>
<filter id="filter0_f_402_1517" x="384" y="194" width="17" height="20" filterUnits="userSpaceOnUse" color-interpolation-filters="sRGB">
<feFlood flood-opacity="0" result="BackgroundImageFix"/>
<feBlend mode="normal" in="SourceGraphic" in2="BackgroundImageFix" result="shape"/>
<feGaussianBlur stdDeviation="2" result="effect1_foregroundBlur_402_1517"/>
</filter>
<filter id="filter1_f_402_1517" x="235.078" y="348.396" width="16.3218" height="14.7822" filterUnits="userSpaceOnUse" color-interpolation-filters="sRGB">
<feFlood flood-opacity="0" result="BackgroundImageFix"/>
<feBlend mode="normal" in="SourceGraphic" in2="BackgroundImageFix" result="shape"/>
<feGaussianBlur stdDeviation="1" result="effect1_foregroundBlur_402_1517"/>
</filter>
<filter id="filter2_f_402_1517" x="230.971" y="269.845" width="16.3218" height="14.7822" filterUnits="userSpaceOnUse" color-interpolation-filters="sRGB">
<feFlood flood-opacity="0" result="BackgroundImageFix"/>
<feBlend mode="normal" in="SourceGraphic" in2="BackgroundImageFix" result="shape"/>
<feGaussianBlur stdDeviation="1" result="effect1_foregroundBlur_402_1517"/>
</filter>
<filter id="filter3_f_402_1517" x="350" y="82" width="13" height="16" filterUnits="userSpaceOnUse" color-interpolation-filters="sRGB">
<feFlood flood-opacity="0" result="BackgroundImageFix"/>
<feBlend mode="normal" in="SourceGraphic" in2="BackgroundImageFix" result="shape"/>
<feGaussianBlur stdDeviation="1" result="effect1_foregroundBlur_402_1517"/>
</filter>
<filter id="filter4_f_402_1517" x="444" y="172" width="32.3218" height="30.7822" filterUnits="userSpaceOnUse" color-interpolation-filters="sRGB">
<feFlood flood-opacity="0" result="BackgroundImageFix"/>
<feBlend mode="normal" in="SourceGraphic" in2="BackgroundImageFix" result="shape"/>
<feGaussianBlur stdDeviation="5" result="effect1_foregroundBlur_402_1517"/>
</filter>
<filter id="filter5_f_402_1517" x="204.792" y="73.3662" width="122.926" height="230.336" filterUnits="userSpaceOnUse" color-interpolation-filters="sRGB">
<feFlood flood-opacity="0" result="BackgroundImageFix"/>
<feBlend mode="normal" in="SourceGraphic" in2="BackgroundImageFix" result="shape"/>
<feGaussianBlur stdDeviation="11.5" result="effect1_foregroundBlur_402_1517"/>
</filter>
<filter id="filter6_f_402_1517" x="248.031" y="229.371" width="58.3218" height="56.7822" filterUnits="userSpaceOnUse" color-interpolation-filters="sRGB">
<feFlood flood-opacity="0" result="BackgroundImageFix"/>
<feBlend mode="normal" in="SourceGraphic" in2="BackgroundImageFix" result="shape"/>
<feGaussianBlur stdDeviation="11.5" result="effect1_foregroundBlur_402_1517"/>
</filter>
<filter id="filter7_f_402_1517" x="428" y="78" width="58.3218" height="56.7822" filterUnits="userSpaceOnUse" color-interpolation-filters="sRGB">
<feFlood flood-opacity="0" result="BackgroundImageFix"/>
<feBlend mode="normal" in="SourceGraphic" in2="BackgroundImageFix" result="shape"/>
<feGaussianBlur stdDeviation="11.5" result="effect1_foregroundBlur_402_1517"/>
</filter>
<filter id="filter8_f_402_1517" x="263.016" y="347.069" width="32.3218" height="30.7822" filterUnits="userSpaceOnUse" color-interpolation-filters="sRGB">
<feFlood flood-opacity="0" result="BackgroundImageFix"/>
<feBlend mode="normal" in="SourceGraphic" in2="BackgroundImageFix" result="shape"/>
<feGaussianBlur stdDeviation="5" result="effect1_foregroundBlur_402_1517"/>
</filter>
<filter id="filter9_f_402_1517" x="334" y="129" width="28" height="33" filterUnits="userSpaceOnUse" color-interpolation-filters="sRGB">
<feFlood flood-opacity="0" result="BackgroundImageFix"/>
<feBlend mode="normal" in="SourceGraphic" in2="BackgroundImageFix" result="shape"/>
<feGaussianBlur stdDeviation="5" result="effect1_foregroundBlur_402_1517"/>
</filter>
<filter id="filter10_f_402_1517" x="334.73" y="316.618" width="20.3218" height="18.7822" filterUnits="userSpaceOnUse" color-interpolation-filters="sRGB">
<feFlood flood-opacity="0" result="BackgroundImageFix"/>
<feBlend mode="normal" in="SourceGraphic" in2="BackgroundImageFix" result="shape"/>
<feGaussianBlur stdDeviation="2" result="effect1_foregroundBlur_402_1517"/>
</filter>
<filter id="filter11_f_402_1517" x="333" y="217" width="24" height="28" filterUnits="userSpaceOnUse" color-interpolation-filters="sRGB">
<feFlood flood-opacity="0" result="BackgroundImageFix"/>
<feBlend mode="normal" in="SourceGraphic" in2="BackgroundImageFix" result="shape"/>
<feGaussianBlur stdDeviation="4" result="effect1_foregroundBlur_402_1517"/>
</filter>
<filter id="filter12_f_402_1517" x="487" y="250" width="24" height="28" filterUnits="userSpaceOnUse" color-interpolation-filters="sRGB">
<feFlood flood-opacity="0" result="BackgroundImageFix"/>
<feBlend mode="normal" in="SourceGraphic" in2="BackgroundImageFix" result="shape"/>
<feGaussianBlur stdDeviation="4" result="effect1_foregroundBlur_402_1517"/>
</filter>
<filter id="filter13_f_402_1517" x="266.962" y="179.541" width="20.3218" height="18.7822" filterUnits="userSpaceOnUse" color-interpolation-filters="sRGB">
<feFlood flood-opacity="0" result="BackgroundImageFix"/>
<feBlend mode="normal" in="SourceGraphic" in2="BackgroundImageFix" result="shape"/>
<feGaussianBlur stdDeviation="2" result="effect1_foregroundBlur_402_1517"/>
</filter>
<filter id="filter14_f_402_1517" x="127.313" y="369.494" width="58.3218" height="56.7822" filterUnits="userSpaceOnUse" color-interpolation-filters="sRGB">
<feFlood flood-opacity="0" result="BackgroundImageFix"/>
<feBlend mode="normal" in="SourceGraphic" in2="BackgroundImageFix" result="shape"/>
<feGaussianBlur stdDeviation="11.5" result="effect1_foregroundBlur_402_1517"/>
</filter>
<filter id="filter15_f_402_1517" x="125" y="93" width="55" height="59" filterUnits="userSpaceOnUse" color-interpolation-filters="sRGB">
<feFlood flood-opacity="0" result="BackgroundImageFix"/>
<feBlend mode="normal" in="SourceGraphic" in2="BackgroundImageFix" result="shape"/>
<feGaussianBlur stdDeviation="11.5" result="effect1_foregroundBlur_402_1517"/>
</filter>
<filter id="filter16_f_402_1517" x="209" y="427" width="29" height="32" filterUnits="userSpaceOnUse" color-interpolation-filters="sRGB">
<feFlood flood-opacity="0" result="BackgroundImageFix"/>
<feBlend mode="normal" in="SourceGraphic" in2="BackgroundImageFix" result="shape"/>
<feGaussianBlur stdDeviation="5" result="effect1_foregroundBlur_402_1517"/>
</filter>
<filter id="filter17_f_402_1517" x="144.42" y="282.381" width="32.3218" height="30.7822" filterUnits="userSpaceOnUse" color-interpolation-filters="sRGB">
<feFlood flood-opacity="0" result="BackgroundImageFix"/>
<feBlend mode="normal" in="SourceGraphic" in2="BackgroundImageFix" result="shape"/>
<feGaussianBlur stdDeviation="5" result="effect1_foregroundBlur_402_1517"/>
</filter>
<filter id="filter18_f_402_1517" x="186" y="279" width="25" height="27" filterUnits="userSpaceOnUse" color-interpolation-filters="sRGB">
<feFlood flood-opacity="0" result="BackgroundImageFix"/>
<feBlend mode="normal" in="SourceGraphic" in2="BackgroundImageFix" result="shape"/>
<feGaussianBlur stdDeviation="4" result="effect1_foregroundBlur_402_1517"/>
</filter>
<filter id="filter19_f_402_1517" x="232" y="313" width="28" height="32" filterUnits="userSpaceOnUse" color-interpolation-filters="sRGB">
<feFlood flood-opacity="0" result="BackgroundImageFix"/>
<feBlend mode="normal" in="SourceGraphic" in2="BackgroundImageFix" result="shape"/>
<feGaussianBlur stdDeviation="5" result="effect1_foregroundBlur_402_1517"/>
</filter>
<filter id="filter20_f_402_1517" x="284.578" y="43" width="32.3218" height="30.7822" filterUnits="userSpaceOnUse" color-interpolation-filters="sRGB">
<feFlood flood-opacity="0" result="BackgroundImageFix"/>
<feBlend mode="normal" in="SourceGraphic" in2="BackgroundImageFix" result="shape"/>
<feGaussianBlur stdDeviation="5" result="effect1_foregroundBlur_402_1517"/>
</filter>
<filter id="filter21_f_402_1517" x="112.023" y="185.809" width="28.3218" height="26.7822" filterUnits="userSpaceOnUse" color-interpolation-filters="sRGB">
<feFlood flood-opacity="0" result="BackgroundImageFix"/>
<feBlend mode="normal" in="SourceGraphic" in2="BackgroundImageFix" result="shape"/>
<feGaussianBlur stdDeviation="4" result="effect1_foregroundBlur_402_1517"/>
</filter>
<filter id="filter22_f_402_1517" x="87" y="335" width="28" height="33" filterUnits="userSpaceOnUse" color-interpolation-filters="sRGB">
<feFlood flood-opacity="0" result="BackgroundImageFix"/>
<feBlend mode="normal" in="SourceGraphic" in2="BackgroundImageFix" result="shape"/>
<feGaussianBlur stdDeviation="5" result="effect1_foregroundBlur_402_1517"/>
</filter>
<filter id="filter23_f_402_1517" x="444.759" y="357.851" width="32.3218" height="30.7822" filterUnits="userSpaceOnUse" color-interpolation-filters="sRGB">
<feFlood flood-opacity="0" result="BackgroundImageFix"/>
<feBlend mode="normal" in="SourceGraphic" in2="BackgroundImageFix" result="shape"/>
<feGaussianBlur stdDeviation="5" result="effect1_foregroundBlur_402_1517"/>
</filter>
<filter id="filter24_f_402_1517" x="311.5" y="188.553" width="19" height="23.8945" filterUnits="userSpaceOnUse" color-interpolation-filters="sRGB">
<feFlood flood-opacity="0" result="BackgroundImageFix"/>
<feBlend mode="normal" in="SourceGraphic" in2="BackgroundImageFix" result="shape"/>
<feGaussianBlur stdDeviation="2" result="effect1_foregroundBlur_402_1517"/>
</filter>
<filter id="filter25_f_402_1517" x="376.5" y="149.57" width="18" height="24.8594" filterUnits="userSpaceOnUse" color-interpolation-filters="sRGB">
<feFlood flood-opacity="0" result="BackgroundImageFix"/>
<feBlend mode="normal" in="SourceGraphic" in2="BackgroundImageFix" result="shape"/>
<feGaussianBlur stdDeviation="2" result="effect1_foregroundBlur_402_1517"/>
</filter>
<filter id="filter26_f_402_1517" x="171.765" y="188.5" width="34.4697" height="22" filterUnits="userSpaceOnUse" color-interpolation-filters="sRGB">
<feFlood flood-opacity="0" result="BackgroundImageFix"/>
<feBlend mode="normal" in="SourceGraphic" in2="BackgroundImageFix" result="shape"/>
<feGaussianBlur stdDeviation="4" result="effect1_foregroundBlur_402_1517"/>
</filter>
<filter id="filter27_f_402_1517" x="422.5" y="292.553" width="27" height="31.8936" filterUnits="userSpaceOnUse" color-interpolation-filters="sRGB">
<feFlood flood-opacity="0" result="BackgroundImageFix"/>
<feBlend mode="normal" in="SourceGraphic" in2="BackgroundImageFix" result="shape"/>
<feGaussianBlur stdDeviation="4" result="effect1_foregroundBlur_402_1517"/>
</filter>
</defs>
</svg>
