<svg width="24" height="24" viewBox="0 0 24 24" fill="none" xmlns="http://www.w3.org/2000/svg">
<path d="M20.3302 4.50753C18.7563 3.79402 17.0912 3.28705 15.3789 3C15.1656 3.37359 14.9165 3.87607 14.7446 4.27582C12.8985 4.00687 11.0693 4.00687 9.25715 4.27582C9.0854 3.87616 8.83058 3.37359 8.61533 3C6.90139 3.28718 5.23486 3.79545 3.66018 4.51126C0.526681 9.09907 -0.322788 13.5728 0.1019 17.9832C2.18024 19.4869 4.19437 20.4004 6.17455 20.9982C6.66668 20.3425 7.10171 19.6483 7.47515 18.9228C6.76417 18.6605 6.07877 18.3373 5.42709 17.9571C5.59858 17.8339 5.76604 17.7055 5.92921 17.5722C9.87815 19.3618 14.1689 19.3618 18.0708 17.5722C18.2347 17.7047 18.402 17.833 18.5728 17.9571C17.9201 18.3383 17.2334 18.6622 16.521 18.9247C16.8965 19.6531 17.3308 20.348 17.8216 21C19.8036 20.4023 21.8196 19.4888 23.898 17.9832C24.3964 12.8705 23.0467 8.43772 20.3302 4.50744V4.50753ZM8.01318 15.2709C6.82771 15.2709 5.85552 14.1986 5.85552 12.8929C5.85552 11.5872 6.80699 10.5131 8.01318 10.5131C9.21946 10.5131 10.1916 11.5853 10.1708 12.8929C10.1727 14.1986 9.21946 15.2709 8.01318 15.2709ZM15.9867 15.2709C14.8012 15.2709 13.8291 14.1986 13.8291 12.8929C13.8291 11.5872 14.7805 10.5131 15.9867 10.5131C17.193 10.5131 18.1651 11.5853 18.1444 12.8929C18.1444 14.1986 17.193 15.2709 15.9867 15.2709V15.2709Z" fill="black"/>
</svg>
