<svg width="24" height="24" viewBox="0 0 24 24" fill="none" xmlns="http://www.w3.org/2000/svg">
<path d="M8.14656 18.9231C8.14656 19.0169 8.03874 19.0919 7.90281 19.0919C7.74812 19.1059 7.64031 19.0309 7.64031 18.9231C7.64031 18.8294 7.74812 18.7544 7.88406 18.7544C8.02468 18.7403 8.14656 18.8153 8.14656 18.9231ZM6.68875 18.7122C6.65593 18.8059 6.74968 18.9137 6.89031 18.9419C7.01218 18.9887 7.15281 18.9419 7.18093 18.8481C7.20906 18.7544 7.12 18.6465 6.97937 18.6044C6.8575 18.5715 6.72156 18.6184 6.68875 18.7122ZM8.76062 18.6325C8.62468 18.6653 8.53093 18.7544 8.54499 18.8622C8.55906 18.9559 8.68093 19.0169 8.82156 18.984C8.9575 18.9512 9.05124 18.8622 9.03718 18.7684C9.02312 18.6794 8.89656 18.6184 8.76062 18.6325ZM11.845 0.669983C5.34343 0.669983 0.369995 5.60592 0.369995 12.1075C0.369995 17.3059 3.64187 21.7544 8.31531 23.32C8.91531 23.4278 9.12625 23.0575 9.12625 22.7528C9.12625 22.4622 9.11218 20.859 9.11218 19.8747C9.11218 19.8747 5.83093 20.5778 5.14187 18.4778C5.14187 18.4778 4.6075 17.1137 3.83875 16.7622C3.83875 16.7622 2.76531 16.0262 3.91375 16.0403C3.91375 16.0403 5.08093 16.134 5.72312 17.2497C6.74968 19.059 8.47 18.5387 9.14031 18.2294C9.24812 17.4794 9.55281 16.959 9.89031 16.6497C7.27 16.359 4.62625 15.9794 4.62625 11.47C4.62625 10.1809 4.9825 9.53405 5.7325 8.70905C5.61062 8.40436 5.21218 7.14811 5.85437 5.52623C6.83406 5.22155 9.08875 6.79186 9.08875 6.79186C10.0262 6.52936 11.0341 6.39342 12.0325 6.39342C13.0309 6.39342 14.0387 6.52936 14.9762 6.79186C14.9762 6.79186 17.2309 5.21686 18.2106 5.52623C18.8528 7.1528 18.4544 8.40436 18.3325 8.70905C19.0825 9.53873 19.5419 10.1856 19.5419 11.47C19.5419 15.9934 16.7809 16.3544 14.1606 16.6497C14.5919 17.02 14.9575 17.7231 14.9575 18.8247C14.9575 20.4044 14.9434 22.359 14.9434 22.7434C14.9434 23.0481 15.1591 23.4184 15.7544 23.3106C20.4419 21.7544 23.62 17.3059 23.62 12.1075C23.62 5.60592 18.3466 0.669983 11.845 0.669983ZM4.92624 16.8372C4.86531 16.884 4.87937 16.9919 4.95906 17.0809C5.03406 17.1559 5.14187 17.1887 5.20281 17.1278C5.26375 17.0809 5.24968 16.9731 5.17 16.884C5.095 16.809 4.98718 16.7762 4.92624 16.8372ZM4.42 16.4575C4.38718 16.5184 4.43406 16.5934 4.52781 16.6403C4.60281 16.6872 4.69656 16.6731 4.72937 16.6075C4.76218 16.5465 4.71531 16.4715 4.62156 16.4247C4.52781 16.3965 4.45281 16.4106 4.42 16.4575ZM5.93875 18.1262C5.86375 18.1872 5.89187 18.3278 5.99968 18.4169C6.1075 18.5247 6.24343 18.5387 6.30437 18.4637C6.36531 18.4028 6.33718 18.2622 6.24343 18.1731C6.14031 18.0653 5.99968 18.0512 5.93875 18.1262ZM5.40437 17.4372C5.32937 17.484 5.32937 17.6059 5.40437 17.7137C5.47937 17.8215 5.60593 17.8684 5.66687 17.8215C5.74187 17.7606 5.74187 17.6387 5.66687 17.5309C5.60125 17.4231 5.47937 17.3762 5.40437 17.4372Z" fill="white"/>
</svg>
