<svg width="320" height="500" viewBox="0 0 320 500" fill="none" xmlns="http://www.w3.org/2000/svg">
<path d="M264 132.5L282 143L300 132.5L282 122L264 132.5Z" stroke="#E32212" stroke-linejoin="bevel"/>
<path d="M129 221L148 231V251L129 241V221Z" stroke="#E32212" stroke-linejoin="bevel"/>
<path d="M218 258V238.036L235 228V247.964L218 258Z" stroke="#E32212" stroke-linejoin="bevel"/>
<path d="M106 432V412.036L123 402V421.964L106 432Z" stroke="#E32212" stroke-linejoin="bevel"/>
<path d="M163 355V335.036L180 325V344.964L163 355Z" stroke="#E32212" stroke-linejoin="bevel"/>
<path d="M200 157.458L218 168L200 167.542L182 157L200 157.458Z" stroke="#E32212" stroke-linejoin="bevel"/>
<path d="M81 299.458L99 310L81 309.542L63 299L81 299.458Z" stroke="#E32212" stroke-linejoin="bevel"/>
<path d="M258 370.458L276 381L258 380.542L240 370L258 370.458Z" stroke="#E32212" stroke-linejoin="bevel"/>
<path d="M154 89L171.5 99L189 89L171.5 79L154 89Z" stroke="#E32212" stroke-linejoin="bevel"/>
<path d="M212 482L229.5 492L247 482L229.5 472L212 482Z" stroke="#E32212" stroke-linejoin="bevel"/>
<path d="M217 8L235 18V38L217 28V8Z" stroke="#E32212" stroke-linejoin="bevel"/>
<path d="M89 152V132.036L106 122V141.964L89 152Z" stroke="#E32212" stroke-linejoin="bevel"/>
<path d="M295 71V51.0364L312 41V60.9636L295 71Z" stroke="#E32212" stroke-linejoin="bevel"/>
<path d="M80.5 45.4583L98 56L80.5 55.5417L63 45L80.5 45.4583Z" stroke="#E32212" stroke-linejoin="bevel"/>
<path d="M25.5 199.458L43 210L25.5 209.542L8 199L25.5 199.458Z" stroke="#E32212" stroke-linejoin="bevel"/>
</svg>
