<svg width="320" height="500" viewBox="0 0 320 500" fill="none" xmlns="http://www.w3.org/2000/svg">
<path d="M44 138.5L26 128L8 138.5L26 149L44 138.5Z" stroke="#E32212" stroke-linejoin="bevel"/>
<path d="M203 401.5L185 391L167 401.5L185 412L203 401.5Z" stroke="#E32212" stroke-linejoin="bevel"/>
<path d="M226 35L207 25V5L226 15V35Z" stroke="#E32212" stroke-linejoin="bevel"/>
<path d="M123 4V23.9636L106 34V14.0364L123 4Z" stroke="#E32212" stroke-linejoin="bevel"/>
<path d="M164 84.5417L146 74L164 74.4583L182 85L164 84.5417Z" stroke="#E32212" stroke-linejoin="bevel"/>
<path d="M42 68.5833L24 59L42 59.4167L60 69L42 68.5833Z" stroke="#E32212" stroke-linejoin="bevel"/>
<path d="M261 202L243.5 192L226 202L243.5 212L261 202Z" stroke="#E32212" stroke-linejoin="bevel"/>
<path d="M138 486L120.5 476L103 486L120.5 496L138 486Z" stroke="#E32212" stroke-linejoin="bevel"/>
<path d="M106 240L88 230V210L106 220V240Z" stroke="#E32212" stroke-linejoin="bevel"/>
<path d="M275 88V107.964L258 118V98.0364L275 88Z" stroke="#E32212" stroke-linejoin="bevel"/>
<path d="M146.5 165.542L129 155L146.5 155.458L164 166L146.5 165.542Z" stroke="#E32212" stroke-linejoin="bevel"/>
<path d="M312 307L294.5 297L277 307L294.5 317L312 307Z" stroke="#E32212" stroke-linejoin="bevel"/>
<path d="M90 341L72 331V311L90 321V341Z" stroke="#E32212" stroke-linejoin="bevel"/>
<path d="M175.5 301.542L158 291L175.5 291.458L193 302L175.5 301.542Z" stroke="#E32212" stroke-linejoin="bevel"/>
</svg>
