<svg width="200" height="72" viewBox="0 0 200 72" fill="none" xmlns="http://www.w3.org/2000/svg">
<path d="M90.2768 44.2544L79.0195 26.9138H83.1857L92.3158 41.142L101.357 26.9138H105.346L94.0883 44.2544V55.8149H90.2768V44.2544Z" fill="white"/>
<path d="M108.443 26.9138H117.476C128.859 26.9138 133.736 33.4254 133.736 41.3643C133.736 49.3031 128.768 55.8149 117.476 55.8149H108.443V26.9138ZM117.567 52.5146C127.052 52.5146 129.762 47.2517 129.762 41.4535C129.762 35.6555 127.052 30.3926 117.567 30.3926H112.327V52.5146H117.567Z" fill="white"/>
<path d="M137.351 45.7062C137.351 39.5967 141.579 34.6551 147.336 34.6551C150.755 34.6551 153.814 36.3622 155.613 39.0576L155.793 35.2841H159.031V56.2183H155.793L155.613 52.4448C153.904 55.1398 150.845 56.8472 147.336 56.8472C141.579 56.7572 137.351 51.8155 137.351 45.7062ZM155.523 45.7062C155.523 40.6748 152.284 37.6201 148.326 37.6201C144.368 37.6201 141.129 40.6748 141.129 45.7062C141.129 50.7375 144.368 53.7921 148.326 53.7921C152.284 53.7921 155.523 50.7375 155.523 45.7062Z" fill="white"/>
<path d="M167.424 37.6474H162.644V35.166H167.424V29.4942H171.193V35.166H176.065V37.6474H171.193V55.815H167.424V37.6474Z" fill="white"/>
<path d="M178.13 45.7062C178.13 39.5967 182.258 34.6551 187.878 34.6551C191.215 34.6551 194.201 36.3622 195.957 39.0576L196.133 35.2841H199.294V56.2183H196.133L195.957 52.4448C194.289 55.1398 191.303 56.8472 187.878 56.8472C182.17 56.7572 178.13 51.8155 178.13 45.7062ZM195.869 45.7062C195.869 40.6748 192.708 37.6201 188.844 37.6201C184.98 37.6201 181.818 40.6748 181.818 45.7062C181.818 50.7375 184.98 53.7921 188.844 53.7921C192.62 53.7921 195.869 50.7375 195.869 45.7062Z" fill="white"/>
<path fill-rule="evenodd" clip-rule="evenodd" d="M19.1719 4.13426L20.1742 4L45.5647 18.5369L70.9365 7.18603L71.9264 8.46404L57.2132 26.8994L56.8629 27.1564L46.8144 31.0408V48.504L46.5711 49.0916L27.9353 67.7565L26.5146 67.1689V38.157L1.17546 23.6495L1 22.3402L19.1719 4.13426ZM28.1785 38.245V65.1581L45.1505 48.1601V31.684L28.1785 38.245ZM46.8144 29.2572L56.0526 25.6859L68.4895 10.1032L46.8144 19.8004V29.2572ZM44.4347 19.8069L19.8999 5.75995L2.94563 22.746L27.2144 36.6406L44.4347 19.8069ZM30.824 35.4387L45.1505 29.9004V21.434L30.824 35.4387Z" fill="#E32212"/>
</svg>
