<svg width="160" height="160" viewBox="0 0 160 160" fill="none" xmlns="http://www.w3.org/2000/svg">
<path fill-rule="evenodd" clip-rule="evenodd" d="M100 28.5861L56.6926 53.3332L100 78.0803L143.307 53.3332L100 28.5861ZM145 56.2052L101.667 80.9671V130.461L145 105.699V56.2052ZM98.3333 130.461V81.6666H55V105.699L98.3333 130.461ZM51.6667 80.9671V106.667L52.5064 108.114L99.1731 134.78H100.827L147.494 108.114L148.333 106.667V53.3332L147.494 51.8861L100.827 25.2195L99.1731 25.2195L52.8907 51.6666H6.66667L5.83976 54.7803L51.6667 80.9671ZM55 78.3332H93.724L55 56.2052V78.3332ZM51.6667 54.9999V77.1279L12.9426 54.9999H51.6667Z" fill="white"/>
</svg>
