<svg width="72" height="72" viewBox="0 0 72 72" fill="none" xmlns="http://www.w3.org/2000/svg">
<path fill-rule="evenodd" clip-rule="evenodd" d="M45 12.8638L25.5117 24L45 35.1362L64.4883 24L45 12.8638ZM65.25 25.2924L45.75 36.4352V58.7076L65.25 47.5648V25.2924ZM44.25 58.7076V36.75H24.75V47.5648L44.25 58.7076ZM23.25 36.4352V48L23.6279 48.6512L44.6279 60.6512H45.3721L66.3721 48.6512L66.75 48V24L66.3721 23.3488L45.3721 11.3488L44.6279 11.3488L23.8008 23.25H3L2.6279 24.6512L23.25 36.4352ZM24.75 35.25H42.1758L24.75 25.2924V35.25ZM23.25 24.75V34.7076L5.82417 24.75H23.25Z" fill="#E32212"/>
</svg>
