<svg width="120" height="120" viewBox="0 0 120 120" fill="none" xmlns="http://www.w3.org/2000/svg">
<path d="M60 5L60 116" stroke="#E32212" stroke-width="2" stroke-dasharray="4 4"/>
<path d="M113 49L92 37L71 49M113 49L92 61M113 49V73L92 85M92 61L71 49M92 61V85M71 49V73L92 85" stroke="#E32212" stroke-width="2" stroke-linejoin="bevel"/>
<path opacity="0.4" d="M49 49L28 37L7 49M49 49L28 61M49 49V73L28 85M28 61L7 49M28 61V85M7 49V73L28 85" stroke="#E32212" stroke-width="2" stroke-linejoin="bevel"/>
</svg>
